<svg width="223" height="295" viewBox="0 0 223 295" fill="none" xmlns="http://www.w3.org/2000/svg">
<g filter="url(#filter0_d)">
<g filter="url(#filter1_b)">
<path d="M4 15.3348C4 7.05057 10.7157 0.334839 19 0.334839H203.297C211.581 0.334839 218.297 7.05057 218.297 15.3348V143.335V271.335C218.297 279.619 211.581 286.335 203.297 286.335H19C10.7157 286.335 4 279.619 4 271.335V143.335V15.3348Z" fill="#51AADB"/>
</g>
<path d="M98.2345 199.216C96.9385 199.216 95.6905 199.048 94.4905 198.712C93.3065 198.36 92.3225 197.872 91.5385 197.248L92.7385 194.56C94.3865 195.712 96.2265 196.288 98.2585 196.288C99.3465 196.288 100.179 196.12 100.755 195.784C101.347 195.432 101.643 194.944 101.643 194.32C101.643 193.776 101.371 193.352 100.827 193.048C100.299 192.728 99.3625 192.424 98.0185 192.136C96.5145 191.832 95.3145 191.464 94.4185 191.032C93.5385 190.584 92.8905 190.048 92.4745 189.424C92.0745 188.784 91.8745 187.992 91.8745 187.048C91.8745 186.024 92.1545 185.104 92.7145 184.288C93.2905 183.472 94.0905 182.84 95.1145 182.392C96.1385 181.928 97.3225 181.696 98.6665 181.696C99.8825 181.696 101.051 181.872 102.171 182.224C103.291 182.576 104.187 183.056 104.859 183.664L103.659 186.352C102.155 185.2 100.499 184.624 98.6905 184.624C97.7305 184.624 96.9625 184.816 96.3865 185.2C95.8105 185.584 95.5225 186.104 95.5225 186.76C95.5225 187.144 95.6265 187.464 95.8345 187.72C96.0585 187.976 96.4265 188.208 96.9385 188.416C97.4505 188.608 98.1785 188.8 99.1225 188.992C101.315 189.472 102.891 190.096 103.851 190.864C104.827 191.632 105.315 192.68 105.315 194.008C105.315 195.608 104.691 196.88 103.443 197.824C102.195 198.752 100.459 199.216 98.2345 199.216ZM108.032 181.912H119.816V184.816H111.68V188.848H119.312V191.776H111.68V196.096H119.816V199H108.032V181.912ZM130.247 199.216C128.551 199.216 127.071 198.864 125.807 198.16C124.559 197.44 123.591 196.416 122.903 195.088C122.231 193.76 121.895 192.208 121.895 190.432C121.895 188.656 122.231 187.112 122.903 185.8C123.591 184.488 124.559 183.48 125.807 182.776C127.071 182.056 128.551 181.696 130.247 181.696C131.943 181.696 133.415 182.056 134.663 182.776C135.911 183.48 136.871 184.488 137.543 185.8C138.215 187.112 138.551 188.656 138.551 190.432C138.551 192.208 138.215 193.76 137.543 195.088C136.871 196.416 135.911 197.44 134.663 198.16C133.415 198.864 131.943 199.216 130.247 199.216ZM130.247 196.288C131.687 196.288 132.807 195.784 133.607 194.776C134.423 193.768 134.831 192.32 134.831 190.432C134.831 188.544 134.423 187.104 133.607 186.112C132.807 185.12 131.687 184.624 130.247 184.624C128.807 184.624 127.679 185.12 126.863 186.112C126.063 187.104 125.663 188.544 125.663 190.432C125.663 192.336 126.063 193.792 126.863 194.8C127.679 195.792 128.807 196.288 130.247 196.288Z" fill="white"/>
<path d="M24.1985 267.425C23.6451 267.425 23.1218 267.355 22.6285 267.215C22.1351 267.075 21.7018 266.872 21.3285 266.605L21.9185 265.485C22.2785 265.732 22.6485 265.915 23.0285 266.035C23.4151 266.148 23.8251 266.205 24.2585 266.205C24.7051 266.205 25.0418 266.138 25.2685 266.005C25.5018 265.872 25.6185 265.678 25.6185 265.425C25.6185 265.178 25.4985 264.988 25.2585 264.855C25.0185 264.722 24.6485 264.582 24.1485 264.435C23.6485 264.288 23.2418 264.145 22.9285 264.005C22.6218 263.865 22.3551 263.662 22.1285 263.395C21.9018 263.122 21.7885 262.765 21.7885 262.325C21.7885 261.885 21.9085 261.498 22.1485 261.165C22.3951 260.832 22.7385 260.575 23.1785 260.395C23.6251 260.215 24.1451 260.125 24.7385 260.125C25.2518 260.125 25.7385 260.198 26.1985 260.345C26.6585 260.492 27.0318 260.692 27.3185 260.945L26.7385 262.065C26.4385 261.832 26.1118 261.655 25.7585 261.535C25.4051 261.408 25.0518 261.345 24.6985 261.345C24.2718 261.345 23.9385 261.418 23.6985 261.565C23.4585 261.712 23.3385 261.918 23.3385 262.185C23.3385 262.365 23.4018 262.518 23.5285 262.645C23.6618 262.765 23.8285 262.865 24.0285 262.945C24.2285 263.018 24.5051 263.108 24.8585 263.215C25.3451 263.355 25.7418 263.495 26.0485 263.635C26.3618 263.768 26.6285 263.968 26.8485 264.235C27.0685 264.495 27.1785 264.835 27.1785 265.255C27.1785 265.942 26.9151 266.475 26.3885 266.855C25.8685 267.235 25.1385 267.425 24.1985 267.425ZM30.1507 261.425L30.0107 263.105H33.1907L33.0807 264.325H29.9207L29.7707 266.125H33.1507L33.0507 267.335H28.1507L28.7107 260.215H33.6207L33.5207 261.425H30.1507ZM36.1371 261.425L35.9971 263.105H39.1771L39.0671 264.325H35.9071L35.7571 266.125H39.1371L39.0371 267.335H34.1371L34.6971 260.215H39.6071L39.5071 261.425H36.1371ZM50.5559 260.215L50.0059 267.335H48.6259L48.9259 263.475L46.9859 267.335H45.9759L44.6259 263.505L44.3259 267.335H42.9559L43.5059 260.215H44.7459L46.6259 265.495L49.3259 260.215H50.5559ZM54.9318 267.435C54.2384 267.435 53.6318 267.298 53.1118 267.025C52.5984 266.745 52.2018 266.348 51.9218 265.835C51.6484 265.322 51.5118 264.715 51.5118 264.015C51.5118 263.235 51.6551 262.552 51.9418 261.965C52.2351 261.372 52.6451 260.915 53.1718 260.595C53.7051 260.275 54.3251 260.115 55.0318 260.115C55.7251 260.115 56.3284 260.255 56.8418 260.535C57.3618 260.808 57.7584 261.202 58.0318 261.715C58.3118 262.228 58.4518 262.835 58.4518 263.535C58.4518 264.315 58.3051 265.002 58.0118 265.595C57.7251 266.182 57.3151 266.635 56.7818 266.955C56.2551 267.275 55.6384 267.435 54.9318 267.435ZM54.9218 266.205C55.5284 266.205 56.0084 265.968 56.3618 265.495C56.7151 265.022 56.8918 264.368 56.8918 263.535C56.8918 262.835 56.7284 262.295 56.4018 261.915C56.0818 261.535 55.6318 261.345 55.0518 261.345C54.4318 261.345 53.9451 261.582 53.5918 262.055C53.2451 262.528 53.0718 263.185 53.0718 264.025C53.0718 264.725 53.2318 265.265 53.5518 265.645C53.8718 266.018 54.3284 266.205 54.9218 266.205ZM63.951 264.305C64.1376 264.365 64.291 264.468 64.411 264.615C64.5376 264.762 64.641 264.965 64.721 265.225L65.401 267.335H63.761L63.031 264.965C62.971 264.778 62.8676 264.648 62.721 264.575C62.581 264.502 62.3943 264.465 62.161 264.465H61.161L60.941 267.335H59.401L59.951 260.215H63.261C63.9943 260.215 64.5676 260.395 64.981 260.755C65.3943 261.115 65.601 261.598 65.601 262.205C65.601 262.758 65.4643 263.215 65.191 263.575C64.9176 263.928 64.5043 264.172 63.951 264.305ZM62.921 263.275C63.321 263.275 63.621 263.192 63.821 263.025C64.0276 262.852 64.131 262.605 64.131 262.285C64.131 261.992 64.041 261.775 63.861 261.635C63.6876 261.488 63.421 261.415 63.061 261.415H61.401L61.261 263.275H62.921ZM68.471 261.425L68.331 263.105H71.5111L71.401 264.325H68.241L68.091 266.125H71.4711L71.3711 267.335H66.471L67.031 260.215H71.9411L71.8411 261.425H68.471Z" fill="white"/>
</g>
<path d="M73.9961 37.929H148.215C149.561 37.9305 150.852 38.466 151.804 39.418C152.756 40.37 153.291 41.6608 153.293 43.0071V66.8569C153.291 68.2033 152.756 69.4941 151.804 70.4461C150.852 71.3981 149.561 71.9336 148.215 71.9351H131.334V79.1636C131.334 79.3954 131.265 79.6219 131.136 79.8146C131.008 80.0074 130.825 80.1575 130.61 80.2462C130.396 80.3349 130.161 80.3581 129.933 80.3129C129.706 80.2676 129.497 80.156 129.333 79.9921L121.391 72.0484H99.457L91.0377 80.0146C90.8713 80.1719 90.6625 80.2771 90.4371 80.3171C90.2116 80.3571 89.9794 80.3301 89.769 80.2396C89.5587 80.149 89.3795 79.9988 89.2536 79.8076C89.1277 79.6163 89.0606 79.3924 89.0605 79.1634V72.0401L73.9961 71.9351C72.6497 71.9336 71.359 71.3981 70.407 70.4461C69.455 69.4941 68.9195 68.2033 68.918 66.8569V43.0071C68.9195 41.6608 69.455 40.37 70.407 39.418C71.359 38.466 72.6497 37.9305 73.9961 37.929ZM71.2617 66.8569C71.263 67.5832 71.5526 68.2792 72.0669 68.792C72.5812 69.3047 73.278 69.5923 74.0043 69.5913L90.2406 69.7046C90.55 69.7068 90.846 69.8312 91.064 70.0507C91.282 70.2703 91.4043 70.5671 91.4043 70.8765V76.4417L98.1875 70.0251C98.4051 69.8192 98.6934 69.7046 98.993 69.7046H121.877C122.031 69.7046 122.183 69.7349 122.326 69.7938C122.468 69.8527 122.597 69.9391 122.706 70.048L128.99 76.3339V70.7632C128.99 70.4524 129.114 70.1543 129.333 69.9346C129.553 69.7148 129.851 69.5913 130.162 69.5913H148.215C148.94 69.5905 149.635 69.3022 150.147 68.7896C150.66 68.277 150.948 67.5819 150.949 66.8569V43.0071C150.948 42.2822 150.66 41.5872 150.147 41.0746C149.635 40.5619 148.94 40.2736 148.215 40.2728H73.9961C73.2711 40.2736 72.5761 40.5619 72.0635 41.0746C71.5509 41.5872 71.2625 42.2822 71.2617 43.0071V66.8569Z" fill="#1AE5BE"/>
<path d="M74.5427 61.8354H84.2728C84.6354 61.8354 84.9832 61.9795 85.2396 62.2359C85.496 62.4923 85.64 62.84 85.64 63.2026C85.64 63.5652 85.496 63.913 85.2396 64.1694C84.9832 64.4258 84.6354 64.5698 84.2728 64.5698H74.5427C74.1801 64.5698 73.8324 64.4258 73.576 64.1694C73.3196 63.913 73.1756 63.5652 73.1756 63.2026C73.1756 62.84 73.3196 62.4923 73.576 62.2359C73.8324 61.9795 74.1801 61.8354 74.5427 61.8354Z" fill="#1AE5BE"/>
<path d="M88.7996 61.8354H107.089C107.452 61.8354 107.8 61.9795 108.056 62.2359C108.313 62.4923 108.457 62.84 108.457 63.2026C108.457 63.5652 108.313 63.913 108.056 64.1694C107.8 64.4258 107.452 64.5698 107.089 64.5698H88.7996C88.437 64.5698 88.0893 64.4258 87.8329 64.1694C87.5765 63.913 87.4325 63.5652 87.4325 63.2026C87.4325 62.84 87.5765 62.4923 87.8329 62.2359C88.0893 61.9795 88.437 61.8354 88.7996 61.8354Z" fill="#1AE5BE"/>
<path d="M112.237 61.8354H122.436C122.799 61.8354 123.146 61.9795 123.403 62.2359C123.659 62.4923 123.803 62.84 123.803 63.2026C123.803 63.5652 123.659 63.913 123.403 64.1694C123.146 64.4258 122.799 64.5698 122.436 64.5698H112.237C111.874 64.5698 111.527 64.4258 111.27 64.1694C111.014 63.913 110.87 63.5652 110.87 63.2026C110.87 62.84 111.014 62.4923 111.27 62.2359C111.527 61.9795 111.874 61.8354 112.237 61.8354Z" fill="#1AE5BE"/>
<path d="M126.983 61.8354H128.83C129.193 61.8354 129.541 61.9795 129.797 62.2359C130.054 62.4923 130.198 62.84 130.198 63.2026C130.198 63.5652 130.054 63.913 129.797 64.1694C129.541 64.4258 129.193 64.5698 128.83 64.5698H126.983C126.62 64.5698 126.272 64.4258 126.016 64.1694C125.76 63.913 125.616 63.5652 125.616 63.2026C125.616 62.84 125.76 62.4923 126.016 62.2359C126.272 61.9795 126.62 61.8354 126.983 61.8354Z" fill="#1AE5BE"/>
<path d="M133.236 61.8354H145.715C146.078 61.8354 146.425 61.9795 146.682 62.2359C146.938 62.4923 147.082 62.84 147.082 63.2026C147.082 63.5652 146.938 63.913 146.682 64.1694C146.425 64.4258 146.078 64.5698 145.715 64.5698H133.236C132.873 64.5698 132.525 64.4258 132.269 64.1694C132.013 63.913 131.869 63.5652 131.869 63.2026C131.869 62.84 132.013 62.4923 132.269 62.2359C132.525 61.9795 132.873 61.8354 133.236 61.8354Z" fill="#1AE5BE"/>
<path d="M74.5427 53.2286H78.2C78.3795 53.2286 78.5573 53.264 78.7232 53.3327C78.889 53.4014 79.0397 53.5021 79.1667 53.6291C79.2937 53.756 79.3944 53.9067 79.4631 54.0726C79.5318 54.2385 79.5671 54.4163 79.5671 54.5958C79.5671 54.7754 79.5318 54.9531 79.4631 55.119C79.3944 55.2849 79.2937 55.4356 79.1667 55.5626C79.0397 55.6895 78.889 55.7902 78.7232 55.8589C78.5573 55.9276 78.3795 55.963 78.2 55.963H74.5427C74.3632 55.963 74.1854 55.9276 74.0195 55.8589C73.8537 55.7902 73.7029 55.6895 73.576 55.5626C73.449 55.4356 73.3483 55.2849 73.2796 55.119C73.2109 54.9531 73.1755 54.7754 73.1755 54.5958C73.1755 54.4163 73.2109 54.2385 73.2796 54.0726C73.3483 53.9067 73.449 53.756 73.576 53.6291C73.7029 53.5021 73.8537 53.4014 74.0195 53.3327C74.1854 53.264 74.3632 53.2286 74.5427 53.2286Z" fill="#1AE5BE"/>
<path d="M98.9216 54.5958C98.9216 54.9584 98.7776 55.3062 98.5212 55.5626C98.2648 55.819 97.917 55.963 97.5544 55.963H82.5636C82.201 55.963 81.8533 55.819 81.5969 55.5626C81.3405 55.3062 81.1964 54.9584 81.1964 54.5958C81.1964 54.2332 81.3405 53.8855 81.5969 53.6291C81.8533 53.3727 82.201 53.2286 82.5636 53.2286H97.5544C97.917 53.2286 98.2648 53.3727 98.5212 53.6291C98.7776 53.8855 98.9216 54.2332 98.9216 54.5958Z" fill="#1AE5BE"/>
<path d="M101.975 55.963C101.613 55.963 101.265 55.819 101.008 55.5626C100.752 55.3062 100.608 54.9584 100.608 54.5958C100.608 54.2332 100.752 53.8855 101.008 53.6291C101.265 53.3727 101.613 53.2286 101.975 53.2286H129.787C130.15 53.2286 130.497 53.3727 130.754 53.6291C131.01 53.8855 131.154 54.2332 131.154 54.5958C131.154 54.9584 131.01 55.3062 130.754 55.5626C130.497 55.819 130.15 55.963 129.787 55.963H101.975Z" fill="#1AE5BE"/>
<path d="M145.715 55.963H135.189C134.826 55.963 134.479 55.819 134.222 55.5626C133.966 55.3062 133.822 54.9584 133.822 54.5958C133.822 54.2332 133.966 53.8855 134.222 53.6291C134.479 53.3727 134.826 53.2286 135.189 53.2286H145.715C146.078 53.2286 146.425 53.3727 146.682 53.6291C146.938 53.8855 147.082 54.2332 147.082 54.5958C147.082 54.9584 146.938 55.3062 146.682 55.5626C146.425 55.819 146.078 55.963 145.715 55.963Z" fill="#1AE5BE"/>
<path d="M74.5427 44.6973H86.8083C87.1709 44.6973 87.5187 44.8414 87.7751 45.0978C88.0315 45.3542 88.1755 45.7019 88.1755 46.0645C88.1755 46.4271 88.0315 46.7749 87.7751 47.0313C87.5187 47.2877 87.1709 47.4317 86.8083 47.4317H74.5427C74.1801 47.4317 73.8324 47.2877 73.576 47.0313C73.3196 46.7749 73.1755 46.4271 73.1755 46.0645C73.1755 45.7019 73.3196 45.3542 73.576 45.0978C73.8324 44.8414 74.1801 44.6973 74.5427 44.6973Z" fill="#1AE5BE"/>
<path d="M94.176 47.4317H91.4631C91.1005 47.4317 90.7528 47.2877 90.4964 47.0313C90.24 46.7749 90.096 46.4271 90.096 46.0645C90.096 45.7019 90.24 45.3542 90.4964 45.0978C90.7528 44.8414 91.1005 44.6973 91.4631 44.6973H94.176C94.5386 44.6973 94.8864 44.8414 95.1428 45.0978C95.3992 45.3542 95.5432 45.7019 95.5432 46.0645C95.5432 46.4271 95.3992 46.7749 95.1428 47.0313C94.8864 47.2877 94.5386 47.4317 94.176 47.4317Z" fill="#1AE5BE"/>
<path d="M112.054 47.4317H98.7816C98.419 47.4317 98.0713 47.2877 97.8149 47.0313C97.5585 46.7749 97.4144 46.4271 97.4144 46.0645C97.4144 45.7019 97.5585 45.3542 97.8149 45.0978C98.0713 44.8414 98.419 44.6973 98.7816 44.6973H112.054C112.416 44.6973 112.764 44.8414 113.02 45.0978C113.277 45.3542 113.421 45.7019 113.421 46.0645C113.421 46.4271 113.277 46.7749 113.02 47.0313C112.764 47.2877 112.416 47.4317 112.054 47.4317Z" fill="#1AE5BE"/>
<path d="M136.687 47.4317H116.188C115.825 47.4317 115.477 47.2877 115.221 47.0313C114.965 46.7749 114.821 46.4271 114.821 46.0645C114.821 45.7019 114.965 45.3542 115.221 45.0978C115.477 44.8414 115.825 44.6973 116.188 44.6973H136.687C137.05 44.6973 137.398 44.8414 137.654 45.0978C137.91 45.3542 138.054 45.7019 138.054 46.0645C138.054 46.4271 137.91 46.7749 137.654 47.0313C137.398 47.2877 137.05 47.4317 136.687 47.4317Z" fill="#1AE5BE"/>
<path d="M145.715 47.4317H141.108C140.745 47.4317 140.397 47.2877 140.141 47.0313C139.885 46.7749 139.74 46.4271 139.74 46.0645C139.74 45.7019 139.885 45.3542 140.141 45.0978C140.397 44.8414 140.745 44.6973 141.108 44.6973H145.715C146.078 44.6973 146.425 44.8414 146.682 45.0978C146.938 45.3542 147.082 45.7019 147.082 46.0645C147.082 46.4271 146.938 46.7749 146.682 47.0313C146.425 47.2877 146.078 47.4317 145.715 47.4317Z" fill="#1AE5BE"/>
<path d="M143.469 93.5815V89.2626C143.467 87.6233 142.926 86.0302 141.93 84.7283C140.934 83.4264 139.538 82.4879 137.956 82.0571C139.063 81.7564 140.224 81.715 141.35 81.936C142.476 82.157 143.535 82.6346 144.447 83.3316C145.358 84.0286 146.096 84.9263 146.604 85.9549C147.112 86.9835 147.376 88.1154 147.375 89.2626V93.5815C147.373 95.561 146.586 97.4587 145.186 98.8585C143.786 100.258 141.889 101.045 139.909 101.048C139.249 101.048 138.593 100.96 137.956 100.787C139.538 100.356 140.934 99.4176 141.93 98.1157C142.926 96.8139 143.467 95.2208 143.469 93.5815Z" fill="#D4E1F4"/>
<path d="M136.085 110.021C133.683 110.088 131.345 109.241 129.544 107.651C130.464 107.154 131.467 106.831 132.505 106.698C133.871 108.297 135.73 109.396 137.789 109.823C137.228 109.94 136.657 110.006 136.085 110.021Z" fill="#D4E1F4"/>
<path d="M148.434 109.205C147.775 108.529 147.008 107.967 146.164 107.541C146.465 107.267 146.749 106.974 147.012 106.665C149.134 106.861 151.106 107.843 152.541 109.418C153.977 110.992 154.773 113.046 154.774 115.177V123.724H150.867V115.177C150.872 112.944 149.998 110.799 148.434 109.205Z" fill="#D4E1F4"/>
<path d="M115.795 89.1208V84.1864C115.792 82.2203 115.124 80.3131 113.899 78.7747C112.675 77.2364 110.966 76.1576 109.051 75.7136C110.325 75.4185 111.65 75.4151 112.926 75.7036C114.202 75.992 115.397 76.5649 116.421 77.3794C117.445 78.194 118.271 79.2292 118.839 80.4078C119.407 81.5864 119.702 82.8781 119.701 84.1864V89.1208C119.702 90.4291 119.407 91.7208 118.839 92.8994C118.271 94.078 117.445 95.1132 116.421 95.9278C115.397 96.7423 114.202 97.3152 112.926 97.6036C111.65 97.8921 110.325 97.8887 109.051 97.5936C110.966 97.1496 112.675 96.0708 113.899 94.5325C115.124 92.9942 115.792 91.0869 115.795 89.1208Z" fill="#D4E1F4"/>
<path d="M85.6982 93.5815V89.2626C85.696 87.6233 85.1553 86.0302 84.1592 84.7283C83.1631 83.4264 81.7668 82.4879 80.1852 82.0571C81.2922 81.7564 82.4537 81.715 83.5794 81.936C84.7051 82.157 85.7647 82.6346 86.6758 83.3316C87.587 84.0286 88.3252 84.9263 88.8331 85.9549C89.3411 86.9835 89.605 88.1154 89.6045 89.2626V93.5815C89.6023 95.561 88.8149 97.4587 87.4152 98.8585C86.0155 100.258 84.1178 101.045 82.1383 101.048C81.4786 101.048 80.8218 100.96 80.1852 100.787C81.7668 100.356 83.163 99.4176 84.1591 98.1157C85.1552 96.8138 85.696 95.2207 85.6982 93.5815Z" fill="#D4E1F4"/>
<path d="M78.3136 110.021C75.9108 110.089 73.5719 109.241 71.7707 107.649C72.691 107.152 73.6954 106.829 74.7332 106.697C76.0994 108.296 77.9582 109.395 80.0173 109.822C79.4564 109.939 78.8863 110.005 78.3136 110.021Z" fill="#D4E1F4"/>
<path d="M89.097 107.939C88.8681 107.794 88.632 107.664 88.3922 107.542C88.6938 107.268 88.9775 106.974 89.2416 106.664C90.5791 106.783 91.8688 107.219 93.0033 107.938C92.0233 109.733 91.5102 111.746 91.5111 113.791V123.723H87.6049V113.792C87.6039 111.747 88.117 109.734 89.097 107.939Z" fill="#D4E1F4"/>
<path d="M110.98 73.1459C113.908 73.1492 116.714 74.3134 118.784 76.3832C120.854 78.453 122.018 81.2592 122.021 84.1864V89.1207C122.009 92.0408 120.84 94.8371 118.771 96.8976C116.702 98.9581 113.901 100.115 110.981 100.115C108.06 100.115 105.259 98.9581 103.19 96.8976C101.121 94.8371 99.9523 92.0408 99.9401 89.1207V84.1864C99.9434 81.2593 101.108 78.453 103.177 76.3833C105.247 74.3135 108.053 73.1492 110.98 73.1459ZM102.284 89.1207C102.295 91.4201 103.216 93.6216 104.846 95.2437C106.475 96.8658 108.681 97.7764 110.981 97.7764C113.28 97.7764 115.486 96.8658 117.116 95.2437C118.745 93.6216 119.666 91.4201 119.677 89.1207V84.1864C119.666 81.887 118.745 79.6855 117.116 78.0634C115.486 76.4413 113.28 75.5307 110.981 75.5307C108.681 75.5307 106.475 76.4413 104.846 78.0634C103.216 79.6855 102.295 81.887 102.284 84.1864V89.1207Z" fill="#0635C9"/>
<path d="M91.9246 89.2625V93.5815C91.9246 96.1832 90.891 98.6784 89.0513 100.518C87.2116 102.358 84.7164 103.391 82.1146 103.391C79.5128 103.391 77.0176 102.358 75.1779 100.518C73.3382 98.6784 72.3046 96.1832 72.3046 93.5815V89.2625C72.3046 86.6608 73.3382 84.1656 75.1779 82.3258C77.0176 80.4861 79.5128 79.4526 82.1146 79.4526C84.7164 79.4526 87.2116 80.4861 89.0513 82.3258C90.891 84.1656 91.9246 86.6608 91.9246 89.2625ZM74.6484 89.2625V93.5815C74.6484 95.5616 75.435 97.4607 76.8352 98.8609C78.2354 100.261 80.1344 101.048 82.1146 101.048C84.0948 101.048 85.9938 100.261 87.394 98.8609C88.7942 97.4607 89.5808 95.5616 89.5808 93.5815V89.2625C89.5808 87.2824 88.7942 85.3833 87.394 83.9831C85.9938 82.5829 84.0948 81.7963 82.1146 81.7963C80.1344 81.7963 78.2354 82.5829 76.8352 83.9831C75.435 85.3833 74.6484 87.2824 74.6484 89.2625Z" fill="#0635C9"/>
<path d="M75.1154 104.306C75.7404 104.261 76.0508 104.64 76.3801 105.041C77.0739 105.889 77.952 106.568 78.9477 107.025C79.9434 107.482 81.0302 107.705 82.1254 107.678C83.2206 107.652 84.2952 107.375 85.2674 106.87C86.2395 106.365 87.0835 105.644 87.735 104.764C87.8476 104.613 87.9945 104.491 88.1634 104.409C88.3324 104.326 88.5186 104.285 88.7066 104.289C90.6904 104.333 92.6234 104.924 94.2926 105.996C95.3625 104.693 96.6899 103.624 98.1918 102.857C99.6938 102.089 101.338 101.641 103.021 101.538C103.634 101.509 103.942 101.883 104.3 102.319C105.109 103.307 106.132 104.098 107.293 104.631C108.453 105.163 109.72 105.424 110.997 105.393C112.273 105.362 113.526 105.039 114.659 104.451C115.792 103.862 116.776 103.022 117.536 101.995C117.648 101.844 117.794 101.722 117.963 101.639C118.133 101.556 118.319 101.516 118.507 101.52C121.706 101.594 124.748 102.921 126.979 105.215C127.228 105.471 127.463 105.737 127.688 106.011C129.246 105.007 131.036 104.42 132.886 104.307C133.51 104.261 133.821 104.64 134.151 105.042C134.845 105.89 135.723 106.568 136.718 107.025C137.714 107.482 138.801 107.706 139.896 107.679C140.991 107.652 142.066 107.375 143.038 106.87C144.01 106.365 144.854 105.645 145.506 104.764C145.618 104.613 145.765 104.491 145.934 104.408C146.103 104.326 146.289 104.285 146.478 104.289C149.317 104.361 152.017 105.54 154 107.574C155.983 109.608 157.093 112.336 157.094 115.177V124.896C157.094 125.207 156.97 125.505 156.751 125.724C156.531 125.944 156.233 126.068 155.922 126.068H130.473V127.877C130.473 128.188 130.349 128.486 130.129 128.706C129.91 128.925 129.612 129.049 129.301 129.049H92.6602C92.3494 129.049 92.0513 128.925 91.8315 128.706C91.6117 128.486 91.4883 128.188 91.4883 127.877V126.068H66.0781C65.7673 126.068 65.4693 125.944 65.2495 125.724C65.0297 125.505 64.9062 125.207 64.9062 124.896V115.177C64.9082 112.407 65.9646 109.741 67.8609 107.722C69.7572 105.703 72.3511 104.482 75.1154 104.306ZM154.75 123.724V115.177C154.749 113.046 153.953 110.992 152.518 109.418C151.082 107.843 149.11 106.861 146.989 106.665C146.095 107.715 144.985 108.559 143.734 109.139C142.483 109.719 141.121 110.021 139.742 110.024C138.364 110.027 137 109.731 135.747 109.157C134.493 108.583 133.379 107.744 132.481 106.698C131.242 106.855 130.052 107.284 128.997 107.954C129.969 109.746 130.476 111.753 130.473 113.792V123.724H154.75ZM93.832 126.705H128.129V113.792C128.128 111.301 127.192 108.901 125.505 107.068C123.819 105.235 121.505 104.102 119.023 103.894C118.018 105.095 116.762 106.061 115.344 106.725C113.926 107.389 112.38 107.735 110.814 107.739C109.248 107.742 107.701 107.403 106.28 106.744C104.859 106.086 103.599 105.125 102.589 103.928C100.176 104.218 97.9531 105.381 96.3394 107.199C94.7257 109.016 93.8332 111.361 93.8307 113.791L93.832 126.705ZM67.25 123.724H91.4883V113.792C91.4874 111.747 92.0005 109.734 92.9805 107.939C91.846 107.22 90.5564 106.783 89.2189 106.664C88.3256 107.715 87.2152 108.559 85.9642 109.139C84.7133 109.719 83.3514 110.021 81.9725 110.024C80.5937 110.027 79.2305 109.731 77.9769 109.157C76.7233 108.583 75.609 107.744 74.7109 106.697C72.6498 106.964 70.7561 107.971 69.3832 109.532C68.0103 111.092 67.2521 113.098 67.25 115.177V123.724Z" fill="#0635C9"/>
<path d="M139.885 79.4525C142.486 79.4554 144.98 80.4899 146.819 82.329C148.658 84.1682 149.692 86.6617 149.695 89.2626V93.5816C149.695 96.1833 148.662 98.6785 146.822 100.518C144.982 102.358 142.487 103.392 139.885 103.392C137.284 103.392 134.788 102.358 132.949 100.518C131.109 98.6785 130.075 96.1833 130.075 93.5816V89.2626C130.078 86.6617 131.113 84.1682 132.952 82.329C134.791 80.4899 137.284 79.4554 139.885 79.4525ZM132.419 93.5816C132.419 95.5617 133.206 97.4608 134.606 98.861C136.006 100.261 137.905 101.048 139.885 101.048C141.866 101.048 143.765 100.261 145.165 98.861C146.565 97.4608 147.352 95.5617 147.352 93.5816V89.2626C147.352 87.2825 146.565 85.3834 145.165 83.9832C143.765 82.583 141.866 81.7964 139.885 81.7964C137.905 81.7964 136.006 82.583 134.606 83.9832C133.206 85.3834 132.419 87.2825 132.419 89.2626V93.5816Z" fill="#0635C9"/>
<path d="M107.163 107.735C105.759 107.776 104.361 107.539 103.048 107.037C101.736 106.536 100.537 105.779 99.5181 104.812C100.487 104.352 101.525 104.053 102.59 103.928C104.187 105.83 106.399 107.115 108.842 107.561C108.288 107.662 107.726 107.721 107.163 107.735Z" fill="#D4E1F4"/>
<path d="M121.396 106.853C120.506 105.94 119.449 105.208 118.282 104.695C118.543 104.441 118.79 104.174 119.024 103.894C121.507 104.103 123.82 105.235 125.507 107.069C127.193 108.902 128.13 111.302 128.13 113.793V126.706H124.224V113.792C124.229 111.197 123.213 108.705 121.396 106.853Z" fill="#D4E1F4"/>
<defs>
<filter id="filter0_d" x="0" y="0.334839" width="222.297" height="294" filterUnits="userSpaceOnUse" color-interpolation-filters="sRGB">
<feFlood flood-opacity="0" result="BackgroundImageFix"/>
<feColorMatrix in="SourceAlpha" type="matrix" values="0 0 0 0 0 0 0 0 0 0 0 0 0 0 0 0 0 0 127 0" result="hardAlpha"/>
<feOffset dy="4"/>
<feGaussianBlur stdDeviation="2"/>
<feComposite in2="hardAlpha" operator="out"/>
<feColorMatrix type="matrix" values="0 0 0 0 0 0 0 0 0 0 0 0 0 0 0 0 0 0 0.25 0"/>
<feBlend mode="normal" in2="BackgroundImageFix" result="effect1_dropShadow"/>
<feBlend mode="normal" in="SourceGraphic" in2="effect1_dropShadow" result="shape"/>
</filter>
<filter id="filter1_b" x="0" y="-3.66516" width="222.297" height="294" filterUnits="userSpaceOnUse" color-interpolation-filters="sRGB">
<feFlood flood-opacity="0" result="BackgroundImageFix"/>
<feGaussianBlur in="BackgroundImage" stdDeviation="2"/>
<feComposite in2="SourceAlpha" operator="in" result="effect1_backgroundBlur"/>
<feBlend mode="normal" in="SourceGraphic" in2="effect1_backgroundBlur" result="shape"/>
</filter>
</defs>
</svg>
