<svg width="222" height="295" viewBox="0 0 222 295" fill="none" xmlns="http://www.w3.org/2000/svg">
<g filter="url(#filter0_d)">
<g filter="url(#filter1_b)">
<path d="M4 15.3348C4 7.05057 10.7157 0.334839 19 0.334839H202.899C211.184 0.334839 217.899 7.05057 217.899 15.3348V143.335V271.335C217.899 279.619 211.184 286.335 202.899 286.335H19C10.7157 286.335 4 279.619 4 271.335V143.335V15.3348Z" fill="#FEAC59"/>
</g>
<path d="M71.5404 182.216C70.2444 182.216 68.9964 182.048 67.7964 181.712C66.6124 181.36 65.6284 180.872 64.8444 180.248L66.0444 177.56C67.6924 178.712 69.5324 179.288 71.5644 179.288C72.6524 179.288 73.4844 179.12 74.0604 178.784C74.6524 178.432 74.9484 177.944 74.9484 177.32C74.9484 176.776 74.6764 176.352 74.1324 176.048C73.6044 175.728 72.6684 175.424 71.3244 175.136C69.8204 174.832 68.6204 174.464 67.7244 174.032C66.8444 173.584 66.1964 173.048 65.7804 172.424C65.3804 171.784 65.1804 170.992 65.1804 170.048C65.1804 169.024 65.4604 168.104 66.0204 167.288C66.5964 166.472 67.3964 165.84 68.4204 165.392C69.4444 164.928 70.6284 164.696 71.9724 164.696C73.1884 164.696 74.3564 164.872 75.4764 165.224C76.5964 165.576 77.4924 166.056 78.1644 166.664L76.9644 169.352C75.4604 168.2 73.8044 167.624 71.9964 167.624C71.0364 167.624 70.2684 167.816 69.6924 168.2C69.1164 168.584 68.8284 169.104 68.8284 169.76C68.8284 170.144 68.9324 170.464 69.1404 170.72C69.3644 170.976 69.7324 171.208 70.2444 171.416C70.7564 171.608 71.4844 171.8 72.4284 171.992C74.6204 172.472 76.1964 173.096 77.1564 173.864C78.1324 174.632 78.6204 175.68 78.6204 177.008C78.6204 178.608 77.9964 179.88 76.7484 180.824C75.5004 181.752 73.7644 182.216 71.5404 182.216ZM89.1858 182.216C87.4898 182.216 86.0098 181.864 84.7458 181.16C83.4978 180.44 82.5298 179.416 81.8418 178.088C81.1698 176.76 80.8338 175.208 80.8338 173.432C80.8338 171.656 81.1698 170.112 81.8418 168.8C82.5298 167.488 83.4978 166.48 84.7458 165.776C86.0098 165.056 87.4898 164.696 89.1858 164.696C90.8818 164.696 92.3538 165.056 93.6018 165.776C94.8498 166.48 95.8098 167.488 96.4818 168.8C97.1538 170.112 97.4898 171.656 97.4898 173.432C97.4898 175.208 97.1538 176.76 96.4818 178.088C95.8098 179.416 94.8498 180.44 93.6018 181.16C92.3538 181.864 90.8818 182.216 89.1858 182.216ZM89.1858 179.288C90.6258 179.288 91.7458 178.784 92.5458 177.776C93.3618 176.768 93.7698 175.32 93.7698 173.432C93.7698 171.544 93.3618 170.104 92.5458 169.112C91.7458 168.12 90.6258 167.624 89.1858 167.624C87.7458 167.624 86.6178 168.12 85.8018 169.112C85.0018 170.104 84.6018 171.544 84.6018 173.432C84.6018 175.336 85.0018 176.792 85.8018 177.8C86.6178 178.792 87.7458 179.288 89.1858 179.288ZM108.432 182.216C106.704 182.216 105.192 181.856 103.896 181.136C102.616 180.4 101.632 179.376 100.944 178.064C100.256 176.736 99.9119 175.192 99.9119 173.432C99.9119 171.688 100.256 170.16 100.944 168.848C101.632 167.52 102.616 166.496 103.896 165.776C105.192 165.056 106.704 164.696 108.432 164.696C109.568 164.696 110.648 164.872 111.672 165.224C112.712 165.56 113.56 166.04 114.216 166.664L113.04 169.352C112.272 168.776 111.52 168.36 110.784 168.104C110.064 167.832 109.304 167.696 108.504 167.696C106.968 167.696 105.792 168.184 104.976 169.16C104.16 170.136 103.752 171.56 103.752 173.432C103.752 175.32 104.16 176.76 104.976 177.752C105.792 178.728 106.968 179.216 108.504 179.216C109.304 179.216 110.064 179.088 110.784 178.832C111.52 178.56 112.272 178.136 113.04 177.56L114.216 180.248C113.56 180.872 112.712 181.36 111.672 181.712C110.648 182.048 109.568 182.216 108.432 182.216ZM116.846 164.912H120.59V182H116.846V164.912ZM135.441 178.208H127.449L125.817 182H122.049L129.897 164.912H132.921L140.769 182H137.073L135.441 178.208ZM134.217 175.352L131.457 168.944L128.697 175.352H134.217ZM142.228 164.912H145.972V178.952H153.604V182H142.228V164.912ZM88.3566 194.912V212H85.0446V202.664L81.1086 212H78.6846L74.7246 202.784V212H71.4366V194.912H74.4126L79.9326 207.512L85.4046 194.912H88.3566ZM91.8026 194.912H103.587V197.816H95.4506V201.848H103.083V204.776H95.4506V209.096H103.587V212H91.8026V194.912ZM106.17 194.912H112.77C114.642 194.912 116.25 195.248 117.594 195.92C118.938 196.592 119.962 197.568 120.666 198.848C121.386 200.128 121.746 201.656 121.746 203.432C121.746 205.224 121.394 206.76 120.69 208.04C119.986 209.32 118.962 210.304 117.618 210.992C116.274 211.664 114.658 212 112.77 212H106.17V194.912ZM112.53 208.976C116.178 208.976 118.002 207.128 118.002 203.432C118.002 199.768 116.178 197.936 112.53 197.936H109.914V208.976H112.53ZM124.685 194.912H128.429V212H124.685V194.912ZM143.281 208.208H135.289L133.657 212H129.889L137.737 194.912H140.761L148.609 212H144.913L143.281 208.208ZM142.057 205.352L139.297 198.944L136.537 205.352H142.057ZM55.216 224.912V242H51.904V232.664L47.968 242H45.544L41.584 232.784V242H38.296V224.912H41.272L46.792 237.512L52.264 224.912H55.216ZM70.086 238.208H62.094L60.462 242H56.694L64.542 224.912H67.566L75.414 242H71.718L70.086 238.208ZM68.862 235.352L66.102 228.944L63.342 235.352H68.862ZM91.297 242H87.337L85.153 236.312C84.977 235.864 84.705 235.552 84.337 235.376C83.985 235.2 83.537 235.112 82.993 235.112H80.569V242H76.873V224.912H84.481C86.465 224.912 87.969 225.344 88.993 226.208C90.017 227.072 90.529 228.312 90.529 229.928C90.529 231.064 90.225 232.04 89.617 232.856C89.025 233.672 88.169 234.256 87.049 234.608C88.057 234.816 88.785 235.512 89.233 236.696L91.297 242ZM83.929 232.256C85.001 232.256 85.785 232.08 86.281 231.728C86.777 231.36 87.025 230.792 87.025 230.024C87.025 229.256 86.777 228.696 86.281 228.344C85.785 227.976 85.001 227.792 83.929 227.792H80.521V232.256H83.929ZM105.049 242L97.6091 234.104V242H93.8651V224.912H97.6091V232.424L104.785 224.912H109.249L101.305 233.072L109.561 242H105.049ZM110.295 224.912H122.079V227.816H113.943V231.848H121.575V234.776H113.943V239.096H122.079V242H110.295V224.912ZM128.786 227.96H123.434V224.912H137.93V227.96H132.578V242H128.786V227.96ZM139.92 224.912H143.664V242H139.92V224.912ZM161.9 224.912V242H159.116L150.596 231.104V242H147.092V224.912H149.852L158.372 235.784V224.912H161.9ZM179.99 232.568V240.944C179.158 241.344 178.182 241.656 177.062 241.88C175.958 242.104 174.822 242.216 173.654 242.216C171.846 242.216 170.278 241.864 168.95 241.16C167.622 240.456 166.598 239.448 165.878 238.136C165.174 236.824 164.822 235.256 164.822 233.432C164.822 231.656 165.174 230.112 165.878 228.8C166.598 227.488 167.606 226.48 168.902 225.776C170.214 225.056 171.742 224.696 173.486 224.696C174.718 224.696 175.862 224.864 176.918 225.2C177.99 225.536 178.87 226.008 179.558 226.616L178.358 229.304C177.558 228.728 176.782 228.312 176.03 228.056C175.278 227.8 174.462 227.672 173.582 227.672C170.286 227.672 168.638 229.592 168.638 233.432C168.638 237.352 170.358 239.312 173.798 239.312C174.742 239.312 175.686 239.192 176.63 238.952V235.184H173.27V232.568H179.99Z" fill="white"/>
<path d="M24.1669 267.425C23.6135 267.425 23.0902 267.355 22.5969 267.215C22.1035 267.075 21.6702 266.872 21.2969 266.605L21.8869 265.485C22.2469 265.732 22.6169 265.915 22.9969 266.035C23.3835 266.148 23.7935 266.205 24.2269 266.205C24.6735 266.205 25.0102 266.138 25.2369 266.005C25.4702 265.872 25.5869 265.678 25.5869 265.425C25.5869 265.178 25.4669 264.988 25.2269 264.855C24.9869 264.722 24.6169 264.582 24.1169 264.435C23.6169 264.288 23.2102 264.145 22.8969 264.005C22.5902 263.865 22.3235 263.662 22.0969 263.395C21.8702 263.122 21.7569 262.765 21.7569 262.325C21.7569 261.885 21.8769 261.498 22.1169 261.165C22.3635 260.832 22.7069 260.575 23.1469 260.395C23.5935 260.215 24.1135 260.125 24.7069 260.125C25.2202 260.125 25.7069 260.198 26.1669 260.345C26.6269 260.492 27.0002 260.692 27.2869 260.945L26.7069 262.065C26.4069 261.832 26.0802 261.655 25.7269 261.535C25.3735 261.408 25.0202 261.345 24.6669 261.345C24.2402 261.345 23.9069 261.418 23.6669 261.565C23.4269 261.712 23.3069 261.918 23.3069 262.185C23.3069 262.365 23.3702 262.518 23.4969 262.645C23.6302 262.765 23.7969 262.865 23.9969 262.945C24.1969 263.018 24.4735 263.108 24.8269 263.215C25.3135 263.355 25.7102 263.495 26.0169 263.635C26.3302 263.768 26.5969 263.968 26.8169 264.235C27.0369 264.495 27.1469 264.835 27.1469 265.255C27.1469 265.942 26.8835 266.475 26.3569 266.855C25.8369 267.235 25.1069 267.425 24.1669 267.425ZM30.1191 261.425L29.9791 263.105H33.1591L33.0491 264.325H29.8891L29.7391 266.125H33.1191L33.0191 267.335H28.1191L28.6791 260.215H33.5891L33.4891 261.425H30.1191ZM36.1054 261.425L35.9654 263.105H39.1454L39.0354 264.325H35.8754L35.7254 266.125H39.1054L39.0054 267.335H34.1054L34.6654 260.215H39.5754L39.4754 261.425H36.1054ZM50.5243 260.215L49.9743 267.335H48.5943L48.8943 263.475L46.9543 267.335H45.9443L44.5943 263.505L44.2943 267.335H42.9243L43.4743 260.215H44.7143L46.5943 265.495L49.2943 260.215H50.5243ZM54.9001 267.435C54.2068 267.435 53.6001 267.298 53.0801 267.025C52.5668 266.745 52.1701 266.348 51.8901 265.835C51.6168 265.322 51.4801 264.715 51.4801 264.015C51.4801 263.235 51.6235 262.552 51.9101 261.965C52.2035 261.372 52.6135 260.915 53.1401 260.595C53.6735 260.275 54.2935 260.115 55.0001 260.115C55.6935 260.115 56.2968 260.255 56.8101 260.535C57.3301 260.808 57.7268 261.202 58.0001 261.715C58.2801 262.228 58.4201 262.835 58.4201 263.535C58.4201 264.315 58.2735 265.002 57.9801 265.595C57.6935 266.182 57.2835 266.635 56.7501 266.955C56.2235 267.275 55.6068 267.435 54.9001 267.435ZM54.8901 266.205C55.4968 266.205 55.9768 265.968 56.3301 265.495C56.6835 265.022 56.8601 264.368 56.8601 263.535C56.8601 262.835 56.6968 262.295 56.3701 261.915C56.0501 261.535 55.6001 261.345 55.0201 261.345C54.4001 261.345 53.9135 261.582 53.5601 262.055C53.2135 262.528 53.0401 263.185 53.0401 264.025C53.0401 264.725 53.2001 265.265 53.5201 265.645C53.8401 266.018 54.2968 266.205 54.8901 266.205ZM63.9194 264.305C64.106 264.365 64.2594 264.468 64.3794 264.615C64.506 264.762 64.6094 264.965 64.6894 265.225L65.3694 267.335H63.7294L62.9994 264.965C62.9394 264.778 62.836 264.648 62.6894 264.575C62.5494 264.502 62.3627 264.465 62.1294 264.465H61.1294L60.9094 267.335H59.3694L59.9194 260.215H63.2294C63.9627 260.215 64.536 260.395 64.9494 260.755C65.3627 261.115 65.5694 261.598 65.5694 262.205C65.5694 262.758 65.4327 263.215 65.1594 263.575C64.886 263.928 64.4727 264.172 63.9194 264.305ZM62.8894 263.275C63.2894 263.275 63.5894 263.192 63.7894 263.025C63.996 262.852 64.0994 262.605 64.0994 262.285C64.0994 261.992 64.0094 261.775 63.8294 261.635C63.656 261.488 63.3894 261.415 63.0294 261.415H61.3694L61.2294 263.275H62.8894ZM68.4394 261.425L68.2994 263.105H71.4794L71.3694 264.325H68.2094L68.0594 266.125H71.4394L71.3394 267.335H66.4394L66.9994 260.215H71.9094L71.8094 261.425H68.4394Z" fill="white"/>
</g>
<path d="M86.2832 55.3731H79.8965V116.388H86.2832V55.3731Z" fill="#D4E1F4"/>
<path d="M95.2246 42.3016H88.8379C86.4673 42.3043 84.1946 43.2472 82.5183 44.9234C80.842 46.5997 79.8991 48.8724 79.8965 51.243V52.8184H86.2832V51.243C86.2859 48.8724 87.2287 46.5997 88.905 44.9234C90.5813 43.2472 92.854 42.3043 95.2246 42.3016Z" fill="#D4E1F4"/>
<path d="M86.2832 122.987V118.516H79.8965V122.987C79.8991 125.358 80.842 127.631 82.5183 129.307C84.1946 130.983 86.4673 131.926 88.8379 131.929H95.2246C92.854 131.926 90.5813 130.983 88.905 129.307C87.2287 127.631 86.2859 125.358 86.2832 122.987Z" fill="#D4E1F4"/>
<path d="M122.193 39.9198H88.1306C85.5343 39.9227 83.0451 40.9554 81.2092 42.7913C79.3733 44.6272 78.3406 47.1164 78.3376 49.7128V124.224C78.3405 126.821 79.3732 129.31 81.2091 131.146C83.045 132.982 85.5342 134.015 88.1306 134.017H122.193C124.789 134.015 127.279 132.982 129.115 131.146C130.95 129.31 131.983 126.821 131.986 124.224V98.6776H129.431V116.135H80.8923V55.2479H115.593C115.932 55.2479 116.257 55.1133 116.497 54.8738C116.736 54.6343 116.871 54.3094 116.871 53.9706C116.871 53.6318 116.736 53.3069 116.497 53.0674C116.257 52.8278 115.932 52.6932 115.593 52.6932H80.8923V49.7128C80.8945 47.7937 81.6578 45.9539 83.0147 44.5969C84.3717 43.2399 86.2116 42.4766 88.1306 42.4745H122.193C124.112 42.4766 125.952 43.2399 127.309 44.5969C128.666 45.9539 129.429 47.7937 129.431 49.7128V52.6932H126.451C126.112 52.6932 125.787 52.8278 125.548 53.0674C125.308 53.3069 125.174 53.6318 125.174 53.9706C125.174 54.3094 125.308 54.6343 125.548 54.8738C125.787 55.1133 126.112 55.2479 126.451 55.2479H129.431V76.2898H131.986V49.7128C131.983 47.1164 130.95 44.6273 129.114 42.7914C127.279 40.9555 124.789 39.9228 122.193 39.9198ZM129.431 118.689V124.224C129.429 126.144 128.666 127.983 127.309 129.34C125.952 130.697 124.112 131.461 122.193 131.463H88.1306C86.2115 131.461 84.3717 130.697 83.0147 129.34C81.6577 127.983 80.8944 126.144 80.8923 124.224V118.689H129.431Z" fill="#0635C9"/>
<path d="M123.43 53.9706C123.43 53.6318 123.295 53.3069 123.056 53.0674C122.816 52.8278 122.491 52.6932 122.153 52.6932H119.786C119.448 52.6932 119.123 52.8278 118.883 53.0674C118.644 53.3069 118.509 53.6318 118.509 53.9706C118.509 54.3094 118.644 54.6343 118.883 54.8738C119.123 55.1133 119.448 55.2479 119.786 55.2479H122.153C122.491 55.2479 122.816 55.1133 123.056 54.8738C123.295 54.6343 123.43 54.3094 123.43 53.9706Z" fill="#0635C9"/>
<path d="M105.162 129.547C106.046 129.547 106.91 129.285 107.646 128.793C108.381 128.302 108.954 127.604 109.292 126.787C109.631 125.97 109.719 125.071 109.547 124.204C109.374 123.337 108.948 122.54 108.323 121.915C107.698 121.29 106.901 120.864 106.034 120.691C105.167 120.519 104.268 120.607 103.451 120.946C102.634 121.284 101.936 121.857 101.445 122.592C100.953 123.327 100.691 124.192 100.691 125.076C100.693 126.261 101.164 127.398 102.002 128.236C102.84 129.074 103.977 129.545 105.162 129.547ZM105.162 123.16C105.541 123.16 105.911 123.272 106.226 123.483C106.541 123.693 106.787 123.993 106.932 124.343C107.077 124.693 107.115 125.078 107.041 125.45C106.967 125.822 106.785 126.163 106.517 126.431C106.249 126.699 105.907 126.881 105.536 126.955C105.164 127.029 104.779 126.991 104.429 126.846C104.079 126.701 103.779 126.456 103.569 126.141C103.358 125.825 103.246 125.455 103.246 125.076C103.246 124.568 103.448 124.081 103.808 123.722C104.167 123.363 104.654 123.161 105.162 123.16Z" fill="#0635C9"/>
<path d="M84.8096 65.9989H91.9627C92.3015 65.9989 92.6264 65.8643 92.8659 65.6248C93.1055 65.3852 93.24 65.0603 93.24 64.7216C93.24 64.3828 93.1055 64.0579 92.8659 63.8183C92.6264 63.5788 92.3015 63.4442 91.9627 63.4442H84.8096C84.4708 63.4442 84.1459 63.5788 83.9064 63.8183C83.6668 64.0579 83.5322 64.3828 83.5322 64.7216C83.5322 65.0603 83.6668 65.3852 83.9064 65.6248C84.1459 65.8643 84.4708 65.9989 84.8096 65.9989Z" fill="#0635C9"/>
<path d="M102.437 63.4442H97.8385C97.4997 63.4442 97.1748 63.5788 96.9353 63.8183C96.6957 64.0579 96.5612 64.3828 96.5612 64.7216C96.5612 65.0603 96.6957 65.3852 96.9353 65.6248C97.1748 65.8643 97.4997 65.9989 97.8385 65.9989H102.437C102.776 65.9989 103.101 65.8643 103.34 65.6248C103.58 65.3852 103.714 65.0603 103.714 64.7216C103.714 64.3828 103.58 64.0579 103.34 63.8183C103.101 63.5788 102.776 63.4442 102.437 63.4442Z" fill="#0635C9"/>
<path d="M117.85 65.9989C118.189 65.9989 118.514 65.8643 118.753 65.6248C118.993 65.3852 119.127 65.0603 119.127 64.7216C119.127 64.3828 118.993 64.0579 118.753 63.8183C118.514 63.5788 118.189 63.4442 117.85 63.4442H109.845C109.507 63.4442 109.182 63.5788 108.942 63.8183C108.703 64.0579 108.568 64.3828 108.568 64.7216C108.568 65.0603 108.703 65.3852 108.942 65.6248C109.182 65.8643 109.507 65.9989 109.845 65.9989H117.85Z" fill="#0635C9"/>
<path d="M84.8096 77.9208H97.0721C97.4108 77.9208 97.7357 77.7862 97.9753 77.5467C98.2148 77.3071 98.3494 76.9822 98.3494 76.6434C98.3494 76.3047 98.2148 75.9798 97.9753 75.7402C97.7357 75.5007 97.4108 75.3661 97.0721 75.3661H84.8096C84.4708 75.3661 84.1459 75.5007 83.9064 75.7402C83.6668 75.9798 83.5322 76.3047 83.5322 76.6434C83.5322 76.9822 83.6668 77.3071 83.9064 77.5467C84.1459 77.7862 84.4708 77.9208 84.8096 77.9208Z" fill="#0635C9"/>
<path d="M107.121 75.3661H102.948C102.609 75.3661 102.284 75.5007 102.045 75.7402C101.805 75.9798 101.671 76.3047 101.671 76.6434C101.671 76.9822 101.805 77.3071 102.045 77.5467C102.284 77.7862 102.609 77.9208 102.948 77.9208H107.121C107.459 77.9208 107.784 77.7862 108.024 77.5467C108.263 77.3071 108.398 76.9822 108.398 76.6434C108.398 76.3047 108.263 75.9798 108.024 75.7402C107.784 75.5007 107.459 75.3661 107.121 75.3661Z" fill="#0635C9"/>
<path d="M84.8096 89.8427H87.8752C88.214 89.8427 88.5389 89.7081 88.7784 89.4685C89.018 89.229 89.1525 88.9041 89.1525 88.5653C89.1525 88.2265 89.018 87.9016 88.7784 87.6621C88.5389 87.4225 88.214 87.288 87.8752 87.288H84.8096C84.4708 87.288 84.1459 87.4225 83.9064 87.6621C83.6668 87.9016 83.5322 88.2265 83.5322 88.5653C83.5322 88.9041 83.6668 89.229 83.9064 89.4685C84.1459 89.7081 84.4708 89.8427 84.8096 89.8427Z" fill="#0635C9"/>
<path d="M104.097 88.5653C104.097 88.2265 103.963 87.9016 103.723 87.6621C103.484 87.4225 103.159 87.288 102.82 87.288H93.751C93.4122 87.288 93.0873 87.4225 92.8478 87.6621C92.6082 87.9016 92.4736 88.2265 92.4736 88.5653C92.4736 88.9041 92.6082 89.229 92.8478 89.4685C93.0873 89.7081 93.4122 89.8427 93.751 89.8427H102.82C103.159 89.8427 103.484 89.7081 103.723 89.4685C103.963 89.229 104.097 88.9041 104.097 88.5653Z" fill="#0635C9"/>
<path d="M99.7973 100.487C99.7973 100.148 99.6627 99.8235 99.4232 99.584C99.1836 99.3444 98.8587 99.2098 98.52 99.2098H84.8098C84.471 99.2098 84.1461 99.3444 83.9066 99.584C83.667 99.8235 83.5325 100.148 83.5325 100.487C83.5325 100.826 83.667 101.151 83.9066 101.39C84.1461 101.63 84.471 101.765 84.8098 101.765H98.52C98.8587 101.765 99.1836 101.63 99.4232 101.39C99.6627 101.151 99.7973 100.826 99.7973 100.487Z" fill="#0635C9"/>
<path d="M106.865 99.2098H104.396C104.057 99.2098 103.732 99.3444 103.492 99.584C103.253 99.8235 103.118 100.148 103.118 100.487C103.118 100.826 103.253 101.151 103.492 101.39C103.732 101.63 104.057 101.765 104.396 101.765H106.865C107.204 101.765 107.529 101.63 107.768 101.39C108.008 101.151 108.142 100.826 108.142 100.487C108.142 100.148 108.008 99.8235 107.768 99.584C107.529 99.3444 107.204 99.2098 106.865 99.2098Z" fill="#0635C9"/>
<path d="M84.8096 108.151C84.4708 108.151 84.1459 108.286 83.9064 108.525C83.6668 108.765 83.5322 109.09 83.5322 109.429C83.5322 109.767 83.6668 110.092 83.9064 110.332C84.1459 110.571 84.4708 110.706 84.8096 110.706H96.3908C96.7296 110.706 97.0545 110.571 97.294 110.332C97.5336 110.092 97.6682 109.767 97.6682 109.429C97.6682 109.09 97.5336 108.765 97.294 108.525C97.0545 108.286 96.7296 108.151 96.3908 108.151H84.8096Z" fill="#0635C9"/>
<path d="M102.267 110.706H119.638C119.977 110.706 120.302 110.571 120.542 110.332C120.781 110.092 120.916 109.767 120.916 109.429C120.916 109.09 120.781 108.765 120.542 108.525C120.302 108.286 119.977 108.151 119.638 108.151H102.267C101.928 108.151 101.603 108.286 101.363 108.525C101.124 108.765 100.989 109.09 100.989 109.429C100.989 109.767 101.124 110.092 101.363 110.332C101.603 110.571 101.928 110.706 102.267 110.706Z" fill="#0635C9"/>
<path d="M163.418 80.4928C163.417 79.3548 162.964 78.2637 162.16 77.459C161.355 76.6543 160.264 76.2016 159.126 76.2002H145.515C145.216 76.2006 144.928 76.0906 144.706 75.8913C144.484 75.6921 144.343 75.4176 144.311 75.1209C144.125 73.4028 144.344 71.6651 144.95 70.0466C145.636 68.2243 145.986 66.293 145.985 64.3459V63.2414C145.983 61.4626 145.276 59.7573 144.018 58.4995C142.76 57.2418 141.055 56.5343 139.276 56.5323C138.971 56.5323 138.676 56.6417 138.444 56.8405C138.212 57.0394 138.06 57.3146 138.013 57.6164L137.402 61.6049C136.776 65.6622 135.202 69.5147 132.808 72.8496C132.184 73.7056 131.367 74.4024 130.424 74.8833C129.48 75.3642 128.436 75.6156 127.377 75.6171H125.768V72.6637C125.768 72.3249 125.633 72 125.394 71.7605C125.154 71.5209 124.829 71.3864 124.491 71.3864H112.955C112.617 71.3864 112.292 71.5209 112.052 71.7605C111.813 72 111.678 72.3249 111.678 72.6637V102.182C111.678 102.52 111.813 102.845 112.052 103.085C112.292 103.324 112.617 103.459 112.955 103.459H124.491C124.83 103.459 125.155 103.324 125.394 103.085C125.634 102.845 125.768 102.52 125.768 102.182V99.7144H127.152C130.26 99.7137 133.306 100.582 135.947 102.221C139.055 104.15 142.518 104.309 146.089 104.309H157.446C158.263 104.31 159.064 104.088 159.763 103.666C160.463 103.245 161.034 102.641 161.415 101.919C161.796 101.197 161.972 100.384 161.925 99.5691C161.879 98.7541 161.61 97.9673 161.149 97.2937C161.757 96.9474 162.277 96.4635 162.665 95.8806C163.053 95.2976 163.3 94.6319 163.384 93.9367C163.469 93.2414 163.39 92.536 163.154 91.8768C162.917 91.2176 162.529 90.623 162.021 90.1405C162.458 89.7171 162.806 89.211 163.046 88.6518C163.285 88.0926 163.411 87.4914 163.417 86.8831C163.422 86.2748 163.306 85.6715 163.076 85.1083C162.846 84.5451 162.506 84.0333 162.077 83.6025C162.5 83.2028 162.838 82.7208 163.068 82.1861C163.299 81.6513 163.418 81.0751 163.418 80.4928ZM123.214 100.904H114.233V73.9411H123.214V100.904ZM158.918 91.4458C159.434 91.4458 159.929 91.6507 160.294 92.0156C160.659 92.3804 160.863 92.8752 160.863 93.3912C160.863 93.9071 160.659 94.4019 160.294 94.7668C159.929 95.1316 159.434 95.3366 158.918 95.3366H152.374C152.035 95.3366 151.71 95.4711 151.471 95.7107C151.231 95.9502 151.097 96.2751 151.097 96.6139C151.097 96.9527 151.231 97.2776 151.471 97.5171C151.71 97.7567 152.035 97.8913 152.374 97.8913H157.447C157.703 97.8886 157.956 97.9366 158.193 98.0324C158.43 98.1283 158.645 98.2702 158.827 98.4498C159.008 98.6294 159.152 98.8433 159.251 99.079C159.349 99.3147 159.4 99.5675 159.4 99.8229C159.4 100.078 159.349 100.331 159.251 100.567C159.152 100.803 159.008 101.016 158.827 101.196C158.645 101.376 158.43 101.518 158.193 101.613C157.956 101.709 157.703 101.757 157.447 101.755H146.09C142.903 101.755 139.832 101.624 137.295 100.05C134.25 98.1599 130.737 97.1589 127.153 97.1598H125.77V78.172H127.379C128.842 78.1697 130.284 77.822 131.587 77.1572C132.89 76.4924 134.018 75.5294 134.879 74.3464C137.511 70.6826 139.241 66.4498 139.929 61.9917L140.353 59.228C141.235 59.4658 142.015 59.9878 142.572 60.7132C143.129 61.4386 143.431 62.3271 143.432 63.2414V64.3459C143.433 65.9862 143.137 67.6131 142.559 69.1482C141.813 71.1416 141.543 73.2819 141.771 75.3981C141.871 76.321 142.308 77.1744 142.999 77.7942C143.69 78.4139 144.586 78.7561 145.515 78.7549H159.126C159.583 78.76 160.021 78.9453 160.342 79.2706C160.664 79.596 160.844 80.0351 160.844 80.4927C160.844 80.9502 160.664 81.3893 160.342 81.7147C160.021 82.04 159.583 82.2253 159.126 82.2304H156.35C156.289 82.2309 156.228 82.2357 156.168 82.2449H154.379C154.041 82.2449 153.716 82.3794 153.476 82.619C153.237 82.8585 153.102 83.1834 153.102 83.5222C153.102 83.861 153.237 84.1859 153.476 84.4254C153.716 84.665 154.041 84.7995 154.379 84.7995H158.818C159.357 84.805 159.872 85.023 160.251 85.4061C160.631 85.7891 160.843 86.3063 160.843 86.8453C160.843 87.3843 160.631 87.9015 160.251 88.2846C159.872 88.6676 159.357 88.8856 158.818 88.8911H154.379C154.04 88.8911 153.715 89.0257 153.476 89.2652C153.236 89.5048 153.102 89.8297 153.102 90.1684C153.102 90.5072 153.236 90.8321 153.476 91.0717C153.715 91.3112 154.04 91.4458 154.379 91.4458H158.918Z" fill="#1AE5BE"/>
<path d="M174.091 55.1042C173.33 51.3295 170.566 48.8906 167.052 48.8906C165.469 48.8906 163.793 49.4173 162.154 50.4223C160.495 49.3696 158.833 48.8372 157.202 48.8372C153.664 48.8372 150.91 51.3039 150.187 55.1174C149.192 60.3013 152.25 67.1432 161.324 70.7436C161.349 70.7534 161.375 70.763 161.401 70.7715C161.879 70.9456 162.403 70.9456 162.881 70.7715C162.91 70.7619 162.938 70.7513 162.966 70.7396C172.035 67.0657 175.088 60.2441 174.092 55.1147C174.093 55.1115 174.092 55.1079 174.091 55.1042ZM162.137 67.8583C154.867 64.8651 152.361 59.6067 153.115 55.6765C153.566 53.2964 155.132 51.8176 157.202 51.8176C158.447 51.8176 159.847 52.3711 161.249 53.4171C161.504 53.6072 161.813 53.711 162.131 53.7131C162.449 53.7152 162.759 53.6156 163.016 53.4288C164.4 52.4244 165.833 51.8711 167.052 51.8711C169.114 51.8711 170.692 53.3334 171.169 55.6882C171.918 59.5671 169.408 64.8042 162.137 67.8583Z" fill="#1AE5BE"/>
<path d="M180.509 32.9048C179.87 29.7398 177.545 27.6947 174.585 27.6947C173.198 27.7299 171.847 28.135 170.669 28.8682C169.346 28.0603 168.016 27.6517 166.706 27.6517C163.725 27.6517 161.407 29.72 160.8 32.9184C159.982 37.1858 162.476 42.8093 169.893 45.7523C169.918 45.7623 169.944 45.7716 169.97 45.7804C170.414 45.9397 170.899 45.9397 171.342 45.7804C171.372 45.7706 171.4 45.7591 171.429 45.7481C174.769 44.3952 177.374 42.3893 178.963 39.9481C180.41 37.724 180.96 35.2264 180.511 32.915L180.509 32.9048ZM170.652 42.8438C165.079 40.5059 163.151 36.4818 163.727 33.4766C164.065 31.6954 165.178 30.632 166.705 30.632C167.636 30.632 168.694 31.0539 169.764 31.8523C170.019 32.0424 170.328 32.1461 170.646 32.1482C170.964 32.1502 171.274 32.0506 171.531 31.8638C172.588 31.0974 173.672 30.6746 174.585 30.6746C176.084 30.6746 177.234 31.7524 177.586 33.4881C178.159 36.4533 176.227 40.459 170.652 42.8438Z" fill="#1AE5BE"/>
<defs>
<filter id="filter0_d" x="0" y="0.334839" width="221.899" height="294" filterUnits="userSpaceOnUse" color-interpolation-filters="sRGB">
<feFlood flood-opacity="0" result="BackgroundImageFix"/>
<feColorMatrix in="SourceAlpha" type="matrix" values="0 0 0 0 0 0 0 0 0 0 0 0 0 0 0 0 0 0 127 0" result="hardAlpha"/>
<feOffset dy="4"/>
<feGaussianBlur stdDeviation="2"/>
<feComposite in2="hardAlpha" operator="out"/>
<feColorMatrix type="matrix" values="0 0 0 0 0 0 0 0 0 0 0 0 0 0 0 0 0 0 0.25 0"/>
<feBlend mode="normal" in2="BackgroundImageFix" result="effect1_dropShadow"/>
<feBlend mode="normal" in="SourceGraphic" in2="effect1_dropShadow" result="shape"/>
</filter>
<filter id="filter1_b" x="0" y="-3.66516" width="221.899" height="294" filterUnits="userSpaceOnUse" color-interpolation-filters="sRGB">
<feFlood flood-opacity="0" result="BackgroundImageFix"/>
<feGaussianBlur in="BackgroundImage" stdDeviation="2"/>
<feComposite in2="SourceAlpha" operator="in" result="effect1_backgroundBlur"/>
<feBlend mode="normal" in="SourceGraphic" in2="effect1_backgroundBlur" result="shape"/>
</filter>
</defs>
</svg>
