<svg width="78" height="25" viewBox="0 0 78 25" fill="none" xmlns="http://www.w3.org/2000/svg">
<path d="M34.57 17V7.535H31.435V6.5H38.965V7.535H35.83V17H34.57ZM40.933 17L38.758 9.56H40.018L41.593 15.395L43.333 9.56H44.758L46.513 15.395L48.073 9.56H49.348L47.173 17H45.883L44.053 10.865L42.223 17H40.933ZM51.302 7.91C51.052 7.91 50.842 7.83 50.672 7.67C50.512 7.5 50.432 7.29 50.432 7.04C50.432 6.8 50.512 6.6 50.672 6.44C50.842 6.28 51.052 6.2 51.302 6.2C51.542 6.2 51.747 6.28 51.917 6.44C52.087 6.6 52.172 6.8 52.172 7.04C52.172 7.29 52.087 7.5 51.917 7.67C51.747 7.83 51.542 7.91 51.302 7.91ZM50.672 17V9.56H51.932V17H50.672ZM56.8614 17C56.1814 17 55.6464 16.835 55.2564 16.505C54.8664 16.175 54.6714 15.58 54.6714 14.72V10.625H53.3814V9.56H54.6714L54.8364 7.775H55.9314V9.56H58.1214V10.625H55.9314V14.72C55.9314 15.19 56.0264 15.51 56.2164 15.68C56.4064 15.84 56.7414 15.92 57.2214 15.92H58.0014V17H56.8614ZM62.4576 17C61.7776 17 61.2426 16.835 60.8526 16.505C60.4626 16.175 60.2676 15.58 60.2676 14.72V10.625H58.9776V9.56H60.2676L60.4326 7.775H61.5276V9.56H63.7176V10.625H61.5276V14.72C61.5276 15.19 61.6226 15.51 61.8126 15.68C62.0026 15.84 62.3376 15.92 62.8176 15.92H63.5976V17H62.4576ZM68.2538 17.18C67.5438 17.18 66.9138 17.02 66.3638 16.7C65.8138 16.37 65.3788 15.915 65.0588 15.335C64.7488 14.755 64.5938 14.07 64.5938 13.28C64.5938 12.5 64.7488 11.82 65.0588 11.24C65.3688 10.65 65.7988 10.195 66.3488 9.875C66.9088 9.545 67.5538 9.38 68.2838 9.38C69.0038 9.38 69.6238 9.545 70.1438 9.875C70.6738 10.195 71.0788 10.62 71.3588 11.15C71.6388 11.68 71.7788 12.25 71.7788 12.86C71.7788 12.97 71.7738 13.08 71.7638 13.19C71.7638 13.3 71.7638 13.425 71.7638 13.565H65.8388C65.8688 14.135 65.9988 14.61 66.2288 14.99C66.4688 15.36 66.7638 15.64 67.1138 15.83C67.4738 16.02 67.8538 16.115 68.2538 16.115C68.7738 16.115 69.2088 15.995 69.5588 15.755C69.9088 15.515 70.1638 15.19 70.3238 14.78H71.5688C71.3688 15.47 70.9838 16.045 70.4138 16.505C69.8538 16.955 69.1338 17.18 68.2538 17.18ZM68.2538 10.445C67.6538 10.445 67.1188 10.63 66.6488 11C66.1888 11.36 65.9238 11.89 65.8538 12.59H70.5338C70.5038 11.92 70.2738 11.395 69.8438 11.015C69.4138 10.635 68.8838 10.445 68.2538 10.445ZM73.2443 17V9.56H74.3843L74.4893 10.985C74.7193 10.495 75.0693 10.105 75.5393 9.815C76.0093 9.525 76.5893 9.38 77.2793 9.38V10.7H76.9343C76.4943 10.7 76.0893 10.78 75.7193 10.94C75.3493 11.09 75.0543 11.35 74.8343 11.72C74.6143 12.09 74.5043 12.6 74.5043 13.25V17H73.2443Z" fill="#1E2833"/>
<path d="M19.5556 7.85789C18.8283 8.23106 18.0534 8.4784 17.2456 8.59851C18.0767 8.01802 18.711 7.10583 19.0092 6.00633C18.2343 6.54679 17.3788 6.92854 16.467 7.14157C15.7312 6.22509 14.6826 5.65747 13.5386 5.65747C11.319 5.65747 9.53211 7.76495 9.53211 10.3485C9.53211 10.7203 9.559 11.0777 9.625 11.418C6.292 11.2279 3.34278 9.35914 1.36156 6.51247C1.01567 7.21449 0.812778 8.01802 0.812778 8.88303C0.812778 10.5072 1.52778 11.947 2.59356 12.7806C1.94944 12.7663 1.31756 12.5475 0.782222 12.203C0.782222 12.2173 0.782222 12.2358 0.782222 12.2544C0.782222 14.5335 2.17189 16.4265 3.99422 16.8626C3.66789 16.9669 3.31222 17.017 2.94311 17.017C2.68644 17.017 2.42733 16.9998 2.18411 16.9369C2.70356 18.7942 4.17756 20.1596 5.93022 20.2039C4.56622 21.4521 2.83433 22.2042 0.959444 22.2042C0.630667 22.2042 0.315333 22.187 0 22.1398C1.77589 23.4795 3.88056 24.2445 6.15022 24.2445C13.5276 24.2445 17.5609 17.0956 17.5609 10.899C17.5609 10.6917 17.5548 10.4915 17.5462 10.2928C18.3419 9.63223 19.0104 8.80725 19.5556 7.85789Z" fill="#1E2833"/>
</svg>
