<svg width="102" height="24" viewBox="0 0 102 24" fill="none" xmlns="http://www.w3.org/2000/svg">
<path d="M36.11 15.7764V5.27637H37.37V15.7764H36.11ZM39.3168 15.7764V8.33637H40.4568L40.5318 9.67137C40.7718 9.20137 41.1168 8.83137 41.5668 8.56137C42.0168 8.29137 42.5268 8.15637 43.0968 8.15637C43.9768 8.15637 44.6768 8.42637 45.1968 8.96637C45.7268 9.49637 45.9918 10.3164 45.9918 11.4264V15.7764H44.7318V11.5614C44.7318 10.0114 44.0918 9.23637 42.8118 9.23637C42.1718 9.23637 41.6368 9.47137 41.2068 9.94137C40.7868 10.4014 40.5768 11.0614 40.5768 11.9214V15.7764H39.3168ZM50.5462 15.9564C49.6562 15.9564 48.9162 15.7314 48.3262 15.2814C47.7362 14.8314 47.3912 14.2214 47.2912 13.4514H48.5812C48.6612 13.8414 48.8662 14.1814 49.1962 14.4714C49.5362 14.7514 49.9912 14.8914 50.5612 14.8914C51.0912 14.8914 51.4812 14.7814 51.7312 14.5614C51.9812 14.3314 52.1062 14.0614 52.1062 13.7514C52.1062 13.3014 51.9412 13.0014 51.6112 12.8514C51.2912 12.7014 50.8362 12.5664 50.2462 12.4464C49.8462 12.3664 49.4462 12.2514 49.0462 12.1014C48.6462 11.9514 48.3112 11.7414 48.0412 11.4714C47.7712 11.1914 47.6362 10.8264 47.6362 10.3764C47.6362 9.72637 47.8762 9.19637 48.3562 8.78637C48.8462 8.36637 49.5062 8.15637 50.3362 8.15637C51.1262 8.15637 51.7712 8.35637 52.2712 8.75637C52.7812 9.14637 53.0762 9.70637 53.1562 10.4364H51.9112C51.8612 10.0564 51.6962 9.76137 51.4162 9.55137C51.1462 9.33137 50.7812 9.22137 50.3212 9.22137C49.8712 9.22137 49.5212 9.31637 49.2712 9.50637C49.0312 9.69637 48.9112 9.94637 48.9112 10.2564C48.9112 10.5564 49.0662 10.7914 49.3762 10.9614C49.6962 11.1314 50.1262 11.2764 50.6662 11.3964C51.1262 11.4964 51.5612 11.6214 51.9712 11.7714C52.3912 11.9114 52.7312 12.1264 52.9912 12.4164C53.2612 12.6964 53.3962 13.1064 53.3962 13.6464C53.4062 14.3164 53.1512 14.8714 52.6312 15.3114C52.1212 15.7414 51.4262 15.9564 50.5462 15.9564ZM57.5948 15.7764C56.9148 15.7764 56.3798 15.6114 55.9898 15.2814C55.5998 14.9514 55.4048 14.3564 55.4048 13.4964V9.40137H54.1148V8.33637H55.4048L55.5698 6.55137H56.6648V8.33637H58.8548V9.40137H56.6648V13.4964C56.6648 13.9664 56.7598 14.2864 56.9498 14.4564C57.1398 14.6164 57.4748 14.6964 57.9548 14.6964H58.7348V15.7764H57.5948ZM62.726 15.9564C62.106 15.9564 61.591 15.8514 61.181 15.6414C60.771 15.4314 60.466 15.1514 60.266 14.8014C60.066 14.4514 59.966 14.0714 59.966 13.6614C59.966 12.9014 60.256 12.3164 60.836 11.9064C61.416 11.4964 62.206 11.2914 63.206 11.2914H65.216V11.2014C65.216 10.5514 65.046 10.0614 64.706 9.73137C64.366 9.39137 63.911 9.22137 63.341 9.22137C62.851 9.22137 62.426 9.34637 62.066 9.59637C61.716 9.83637 61.496 10.1914 61.406 10.6614H60.116C60.166 10.1214 60.346 9.66637 60.656 9.29637C60.976 8.92637 61.371 8.64637 61.841 8.45637C62.311 8.25637 62.811 8.15637 63.341 8.15637C64.381 8.15637 65.161 8.43637 65.681 8.99637C66.211 9.54637 66.476 10.2814 66.476 11.2014V15.7764H65.351L65.276 14.4414C65.066 14.8614 64.756 15.2214 64.346 15.5214C63.946 15.8114 63.406 15.9564 62.726 15.9564ZM62.921 14.8914C63.401 14.8914 63.811 14.7664 64.151 14.5164C64.501 14.2664 64.766 13.9414 64.946 13.5414C65.126 13.1414 65.216 12.7214 65.216 12.2814V12.2664H63.311C62.571 12.2664 62.046 12.3964 61.736 12.6564C61.436 12.9064 61.286 13.2214 61.286 13.6014C61.286 13.9914 61.426 14.3064 61.706 14.5464C61.996 14.7764 62.401 14.8914 62.921 14.8914ZM71.1017 13.4364C70.6817 13.4364 70.2967 13.3814 69.9467 13.2714L69.1967 13.9764C69.3067 14.0564 69.4417 14.1264 69.6017 14.1864C69.7717 14.2364 70.0117 14.2864 70.3217 14.3364C70.6317 14.3764 71.0667 14.4214 71.6267 14.4714C72.6267 14.5414 73.3417 14.7714 73.7717 15.1614C74.2017 15.5514 74.4167 16.0614 74.4167 16.6914C74.4167 17.1214 74.2967 17.5314 74.0567 17.9214C73.8267 18.3114 73.4667 18.6314 72.9767 18.8814C72.4967 19.1314 71.8767 19.2564 71.1167 19.2564C70.4467 19.2564 69.8517 19.1664 69.3317 18.9864C68.8117 18.8164 68.4067 18.5514 68.1167 18.1914C67.8267 17.8414 67.6817 17.3964 67.6817 16.8564C67.6817 16.5764 67.7567 16.2714 67.9067 15.9414C68.0567 15.6214 68.3367 15.3164 68.7467 15.0264C68.5267 14.9364 68.3367 14.8414 68.1767 14.7414C68.0267 14.6314 67.8867 14.5114 67.7567 14.3814V14.0364L69.0317 12.7764C68.4417 12.2764 68.1467 11.6164 68.1467 10.7964C68.1467 10.3064 68.2617 9.86137 68.4917 9.46137C68.7217 9.06137 69.0567 8.74637 69.4967 8.51637C69.9367 8.27637 70.4717 8.15637 71.1017 8.15637C71.5317 8.15637 71.9217 8.21637 72.2717 8.33637H75.0167V9.28137L73.6217 9.34137C73.9117 9.76137 74.0567 10.2464 74.0567 10.7964C74.0567 11.2864 73.9367 11.7314 73.6967 12.1314C73.4667 12.5314 73.1317 12.8514 72.6917 13.0914C72.2617 13.3214 71.7317 13.4364 71.1017 13.4364ZM71.1017 12.4014C71.6317 12.4014 72.0517 12.2664 72.3617 11.9964C72.6817 11.7164 72.8417 11.3164 72.8417 10.7964C72.8417 10.2864 72.6817 9.89637 72.3617 9.62637C72.0517 9.34637 71.6317 9.20637 71.1017 9.20637C70.5617 9.20637 70.1317 9.34637 69.8117 9.62637C69.5017 9.89637 69.3467 10.2864 69.3467 10.7964C69.3467 11.3164 69.5017 11.7164 69.8117 11.9964C70.1317 12.2664 70.5617 12.4014 71.1017 12.4014ZM68.9117 16.7364C68.9117 17.2364 69.1217 17.6064 69.5417 17.8464C69.9617 18.0964 70.4867 18.2214 71.1167 18.2214C71.7367 18.2214 72.2317 18.0864 72.6017 17.8164C72.9817 17.5464 73.1717 17.1864 73.1717 16.7364C73.1717 16.4164 73.0417 16.1364 72.7817 15.8964C72.5217 15.6664 72.0417 15.5314 71.3417 15.4914C70.7917 15.4514 70.3167 15.4014 69.9167 15.3414C69.5067 15.5614 69.2367 15.7964 69.1067 16.0464C68.9767 16.3064 68.9117 16.5364 68.9117 16.7364ZM76.2335 15.7764V8.33637H77.3735L77.4785 9.76137C77.7085 9.27137 78.0585 8.88137 78.5285 8.59137C78.9985 8.30137 79.5785 8.15637 80.2685 8.15637V9.47637H79.9235C79.4835 9.47637 79.0785 9.55637 78.7085 9.71637C78.3385 9.86637 78.0435 10.1264 77.8235 10.4964C77.6035 10.8664 77.4935 11.3764 77.4935 12.0264V15.7764H76.2335ZM83.9532 15.9564C83.3332 15.9564 82.8182 15.8514 82.4082 15.6414C81.9982 15.4314 81.6932 15.1514 81.4932 14.8014C81.2932 14.4514 81.1932 14.0714 81.1932 13.6614C81.1932 12.9014 81.4832 12.3164 82.0632 11.9064C82.6432 11.4964 83.4332 11.2914 84.4332 11.2914H86.4432V11.2014C86.4432 10.5514 86.2732 10.0614 85.9332 9.73137C85.5932 9.39137 85.1382 9.22137 84.5682 9.22137C84.0782 9.22137 83.6532 9.34637 83.2932 9.59637C82.9432 9.83637 82.7232 10.1914 82.6332 10.6614H81.3432C81.3932 10.1214 81.5732 9.66637 81.8832 9.29637C82.2032 8.92637 82.5982 8.64637 83.0682 8.45637C83.5382 8.25637 84.0382 8.15637 84.5682 8.15637C85.6082 8.15637 86.3882 8.43637 86.9082 8.99637C87.4382 9.54637 87.7032 10.2814 87.7032 11.2014V15.7764H86.5782L86.5032 14.4414C86.2932 14.8614 85.9832 15.2214 85.5732 15.5214C85.1732 15.8114 84.6332 15.9564 83.9532 15.9564ZM84.1482 14.8914C84.6282 14.8914 85.0382 14.7664 85.3782 14.5164C85.7282 14.2664 85.9932 13.9414 86.1732 13.5414C86.3532 13.1414 86.4432 12.7214 86.4432 12.2814V12.2664H84.5382C83.7982 12.2664 83.2732 12.3964 82.9632 12.6564C82.6632 12.9064 82.5132 13.2214 82.5132 13.6014C82.5132 13.9914 82.6532 14.3064 82.9332 14.5464C83.2232 14.7764 83.6282 14.8914 84.1482 14.8914ZM89.3889 15.7764V8.33637H90.5289L90.6189 9.41637C90.8589 9.01637 91.1789 8.70637 91.5789 8.48637C91.9789 8.26637 92.4289 8.15637 92.9289 8.15637C93.5189 8.15637 94.0239 8.27637 94.4439 8.51637C94.8739 8.75637 95.2039 9.12137 95.4339 9.61137C95.6939 9.16137 96.0489 8.80637 96.4989 8.54637C96.9589 8.28637 97.4539 8.15637 97.9839 8.15637C98.8739 8.15637 99.5839 8.42637 100.114 8.96637C100.644 9.49637 100.909 10.3164 100.909 11.4264V15.7764H99.6639V11.5614C99.6639 10.7914 99.5089 10.2114 99.1989 9.82137C98.8889 9.43137 98.4439 9.23637 97.8639 9.23637C97.2639 9.23637 96.7639 9.47137 96.3639 9.94137C95.9739 10.4014 95.7789 11.0614 95.7789 11.9214V15.7764H94.5189V11.5614C94.5189 10.7914 94.3639 10.2114 94.0539 9.82137C93.7439 9.43137 93.2989 9.23637 92.7189 9.23637C92.1289 9.23637 91.6339 9.47137 91.2339 9.94137C90.8439 10.4014 90.6489 11.0614 90.6489 11.9214V15.7764H89.3889Z" fill="#1E2833"/>
<path fill-rule="evenodd" clip-rule="evenodd" d="M6.25 0.717041H13.75C17.2013 0.717041 20 3.99105 20 8.02836V16.8019C20 20.8393 17.2013 24.1133 13.75 24.1133H6.25C2.79875 24.1133 0 20.8393 0 16.8019V8.02836C0 3.99105 2.79875 0.717041 6.25 0.717041ZM13.75 21.9198C16.1625 21.9198 18.125 19.6241 18.125 16.8019V8.02833C18.125 5.20616 16.1625 2.9104 13.75 2.9104H6.25C3.8375 2.9104 1.875 5.20616 1.875 8.02833V16.8019C1.875 19.6241 3.8375 21.9198 6.25 21.9198H13.75Z" fill="#1E2833"/>
<path fill-rule="evenodd" clip-rule="evenodd" d="M5 12.4152C5 9.18508 7.23875 6.56616 10 6.56616C12.7613 6.56616 15 9.18508 15 12.4152C15 15.6454 12.7613 18.2643 10 18.2643C7.23875 18.2643 5 15.6454 5 12.4152ZM6.875 12.4152C6.875 14.4302 8.2775 16.0709 10 16.0709C11.7225 16.0709 13.125 14.4302 13.125 12.4152C13.125 10.3987 11.7225 8.75954 10 8.75954C8.2775 8.75954 6.875 10.3987 6.875 12.4152Z" fill="#1E2833"/>
<ellipse cx="15.375" cy="6.12753" rx="0.66625" ry="0.779388" fill="#1E2833"/>
</svg>
