<svg width="93" height="27" viewBox="0 0 93 27" fill="none" xmlns="http://www.w3.org/2000/svg">
<path d="M27.11 21.2236V10.7236H33.5V11.7586H28.37V15.4486H32.735V16.4686H28.37V21.2236H27.11ZM36.8055 21.4036C36.1855 21.4036 35.6705 21.2986 35.2605 21.0886C34.8505 20.8786 34.5455 20.5986 34.3455 20.2486C34.1455 19.8986 34.0455 19.5186 34.0455 19.1086C34.0455 18.3486 34.3355 17.7636 34.9155 17.3536C35.4955 16.9436 36.2855 16.7386 37.2855 16.7386H39.2955V16.6486C39.2955 15.9986 39.1255 15.5086 38.7855 15.1786C38.4455 14.8386 37.9905 14.6686 37.4205 14.6686C36.9305 14.6686 36.5055 14.7936 36.1455 15.0436C35.7955 15.2836 35.5755 15.6386 35.4855 16.1086H34.1955C34.2455 15.5686 34.4255 15.1136 34.7355 14.7436C35.0555 14.3736 35.4505 14.0936 35.9205 13.9036C36.3905 13.7036 36.8905 13.6036 37.4205 13.6036C38.4605 13.6036 39.2405 13.8836 39.7605 14.4436C40.2905 14.9936 40.5555 15.7286 40.5555 16.6486V21.2236H39.4305L39.3555 19.8886C39.1455 20.3086 38.8355 20.6686 38.4255 20.9686C38.0255 21.2586 37.4855 21.4036 36.8055 21.4036ZM37.0005 20.3386C37.4805 20.3386 37.8905 20.2136 38.2305 19.9636C38.5805 19.7136 38.8455 19.3886 39.0255 18.9886C39.2055 18.5886 39.2955 18.1686 39.2955 17.7286V17.7136H37.3905C36.6505 17.7136 36.1255 17.8436 35.8155 18.1036C35.5155 18.3536 35.3655 18.6686 35.3655 19.0486C35.3655 19.4386 35.5055 19.7536 35.7855 19.9936C36.0755 20.2236 36.4805 20.3386 37.0005 20.3386ZM45.6611 21.4036C44.9511 21.4036 44.3111 21.2436 43.7411 20.9236C43.1811 20.5936 42.7361 20.1386 42.4061 19.5586C42.0861 18.9686 41.9261 18.2836 41.9261 17.5036C41.9261 16.7236 42.0861 16.0436 42.4061 15.4636C42.7361 14.8736 43.1811 14.4186 43.7411 14.0986C44.3111 13.7686 44.9511 13.6036 45.6611 13.6036C46.5411 13.6036 47.2811 13.8336 47.8811 14.2936C48.4911 14.7536 48.8761 15.3686 49.0361 16.1386H47.7461C47.6461 15.6786 47.4011 15.3236 47.0111 15.0736C46.6211 14.8136 46.1661 14.6836 45.6461 14.6836C45.2261 14.6836 44.8311 14.7886 44.4611 14.9986C44.0911 15.2086 43.7911 15.5236 43.5611 15.9436C43.3311 16.3636 43.2161 16.8836 43.2161 17.5036C43.2161 18.1236 43.3311 18.6436 43.5611 19.0636C43.7911 19.4836 44.0911 19.8036 44.4611 20.0236C44.8311 20.2336 45.2261 20.3386 45.6461 20.3386C46.1661 20.3386 46.6211 20.2136 47.0111 19.9636C47.4011 19.7036 47.6461 19.3386 47.7461 18.8686H49.0361C48.8861 19.6186 48.5061 20.2286 47.8961 20.6986C47.2861 21.1686 46.5411 21.4036 45.6611 21.4036ZM53.9363 21.4036C53.2263 21.4036 52.5963 21.2436 52.0463 20.9236C51.4963 20.5936 51.0613 20.1386 50.7413 19.5586C50.4313 18.9786 50.2763 18.2936 50.2763 17.5036C50.2763 16.7236 50.4313 16.0436 50.7413 15.4636C51.0513 14.8736 51.4813 14.4186 52.0313 14.0986C52.5913 13.7686 53.2363 13.6036 53.9663 13.6036C54.6863 13.6036 55.3063 13.7686 55.8263 14.0986C56.3563 14.4186 56.7613 14.8436 57.0413 15.3736C57.3213 15.9036 57.4613 16.4736 57.4613 17.0836C57.4613 17.1936 57.4563 17.3036 57.4463 17.4136C57.4463 17.5236 57.4463 17.6486 57.4463 17.7886H51.5213C51.5513 18.3586 51.6813 18.8336 51.9113 19.2136C52.1513 19.5836 52.4463 19.8636 52.7963 20.0536C53.1563 20.2436 53.5363 20.3386 53.9363 20.3386C54.4563 20.3386 54.8913 20.2186 55.2413 19.9786C55.5913 19.7386 55.8463 19.4136 56.0063 19.0036H57.2513C57.0513 19.6936 56.6663 20.2686 56.0963 20.7286C55.5363 21.1786 54.8163 21.4036 53.9363 21.4036ZM53.9363 14.6686C53.3363 14.6686 52.8013 14.8536 52.3313 15.2236C51.8713 15.5836 51.6063 16.1136 51.5363 16.8136H56.2163C56.1863 16.1436 55.9563 15.6186 55.5263 15.2386C55.0963 14.8586 54.5663 14.6686 53.9363 14.6686ZM62.9018 21.4036C62.2918 21.4036 61.7468 21.2786 61.2668 21.0286C60.7968 20.7786 60.4368 20.4286 60.1868 19.9786L60.0668 21.2236H58.9268V10.4236H60.1868V15.0136C60.4268 14.6536 60.7668 14.3286 61.2068 14.0386C61.6568 13.7486 62.2268 13.6036 62.9168 13.6036C63.6568 13.6036 64.3018 13.7736 64.8518 14.1136C65.4018 14.4536 65.8268 14.9186 66.1268 15.5086C66.4368 16.0986 66.5918 16.7686 66.5918 17.5186C66.5918 18.2686 66.4368 18.9386 66.1268 19.5286C65.8268 20.1086 65.3968 20.5686 64.8368 20.9086C64.2868 21.2386 63.6418 21.4036 62.9018 21.4036ZM62.7668 20.3086C63.2668 20.3086 63.7068 20.1936 64.0868 19.9636C64.4668 19.7236 64.7668 19.3936 64.9868 18.9736C65.2068 18.5536 65.3168 18.0636 65.3168 17.5036C65.3168 16.9436 65.2068 16.4536 64.9868 16.0336C64.7668 15.6136 64.4668 15.2886 64.0868 15.0586C63.7068 14.8186 63.2668 14.6986 62.7668 14.6986C62.2668 14.6986 61.8268 14.8186 61.4468 15.0586C61.0668 15.2886 60.7668 15.6136 60.5468 16.0336C60.3268 16.4536 60.2168 16.9436 60.2168 17.5036C60.2168 18.0636 60.3268 18.5536 60.5468 18.9736C60.7668 19.3936 61.0668 19.7236 61.4468 19.9636C61.8268 20.1936 62.2668 20.3086 62.7668 20.3086ZM71.5312 21.4036C70.8312 21.4036 70.2012 21.2436 69.6412 20.9236C69.0812 20.6036 68.6362 20.1536 68.3062 19.5736C67.9862 18.9836 67.8262 18.2936 67.8262 17.5036C67.8262 16.7136 67.9912 16.0286 68.3212 15.4486C68.6512 14.8586 69.0962 14.4036 69.6562 14.0836C70.2262 13.7636 70.8612 13.6036 71.5612 13.6036C72.2612 13.6036 72.8912 13.7636 73.4512 14.0836C74.0112 14.4036 74.4512 14.8586 74.7712 15.4486C75.1012 16.0286 75.2662 16.7136 75.2662 17.5036C75.2662 18.2936 75.1012 18.9836 74.7712 19.5736C74.4412 20.1536 73.9912 20.6036 73.4212 20.9236C72.8612 21.2436 72.2312 21.4036 71.5312 21.4036ZM71.5312 20.3236C71.9612 20.3236 72.3612 20.2186 72.7312 20.0086C73.1012 19.7986 73.4012 19.4836 73.6312 19.0636C73.8612 18.6436 73.9762 18.1236 73.9762 17.5036C73.9762 16.8836 73.8612 16.3636 73.6312 15.9436C73.4112 15.5236 73.1162 15.2086 72.7462 14.9986C72.3762 14.7886 71.9812 14.6836 71.5612 14.6836C71.1312 14.6836 70.7312 14.7886 70.3612 14.9986C69.9912 15.2086 69.6912 15.5236 69.4612 15.9436C69.2312 16.3636 69.1162 16.8836 69.1162 17.5036C69.1162 18.1236 69.2312 18.6436 69.4612 19.0636C69.6912 19.4836 69.9862 19.7986 70.3462 20.0086C70.7162 20.2186 71.1112 20.3236 71.5312 20.3236ZM80.2036 21.4036C79.5036 21.4036 78.8736 21.2436 78.3136 20.9236C77.7536 20.6036 77.3086 20.1536 76.9786 19.5736C76.6586 18.9836 76.4986 18.2936 76.4986 17.5036C76.4986 16.7136 76.6636 16.0286 76.9936 15.4486C77.3236 14.8586 77.7686 14.4036 78.3286 14.0836C78.8986 13.7636 79.5336 13.6036 80.2336 13.6036C80.9336 13.6036 81.5636 13.7636 82.1236 14.0836C82.6836 14.4036 83.1236 14.8586 83.4436 15.4486C83.7736 16.0286 83.9386 16.7136 83.9386 17.5036C83.9386 18.2936 83.7736 18.9836 83.4436 19.5736C83.1136 20.1536 82.6636 20.6036 82.0936 20.9236C81.5336 21.2436 80.9036 21.4036 80.2036 21.4036ZM80.2036 20.3236C80.6336 20.3236 81.0336 20.2186 81.4036 20.0086C81.7736 19.7986 82.0736 19.4836 82.3036 19.0636C82.5336 18.6436 82.6486 18.1236 82.6486 17.5036C82.6486 16.8836 82.5336 16.3636 82.3036 15.9436C82.0836 15.5236 81.7886 15.2086 81.4186 14.9986C81.0486 14.7886 80.6536 14.6836 80.2336 14.6836C79.8036 14.6836 79.4036 14.7886 79.0336 14.9986C78.6636 15.2086 78.3636 15.5236 78.1336 15.9436C77.9036 16.3636 77.7886 16.8836 77.7886 17.5036C77.7886 18.1236 77.9036 18.6436 78.1336 19.0636C78.3636 19.4836 78.6586 19.7986 79.0186 20.0086C79.3886 20.2186 79.7836 20.3236 80.2036 20.3236ZM85.486 21.2236V10.4236H86.746V16.9186L89.791 13.7836H91.336L88.036 17.1436L91.756 21.2236H90.151L86.746 17.3686V21.2236H85.486Z" fill="#1E2833"/>
<path d="M8.14996 4.04042H9.96164V0.349262C9.64908 0.298963 8.57414 0.185791 7.32226 0.185791C4.71016 0.185791 2.92081 2.10779 2.92081 5.64032V8.89136H0.0383301V13.0178H2.92081V23.4007H6.45487V13.0188H9.22076L9.65983 8.89233H6.45404V6.04948C6.45487 4.85681 6.72939 4.04042 8.14996 4.04042Z" fill="#1E2833"/>
</svg>
