<svg width="223" height="295" viewBox="0 0 223 295" fill="none" xmlns="http://www.w3.org/2000/svg">
<g filter="url(#filter0_d)">
<g filter="url(#filter1_b)">
<path d="M4.29688 15.3348C4.29688 7.05057 11.0126 0.334839 19.2969 0.334839H203.196C211.481 0.334839 218.196 7.05057 218.196 15.3348V143.335V271.335C218.196 279.619 211.481 286.335 203.196 286.335H19.2969C11.0126 286.335 4.29688 279.619 4.29688 271.335V143.335V15.3348Z" fill="#DF64DA"/>
</g>
<path d="M80.8144 173.912H92.5984V176.816H84.4624V180.848H92.0944V183.776H84.4624V188.096H92.5984V191H80.8144V173.912ZM112.15 173.912V191H108.838V181.664L104.902 191H102.478L98.5175 181.784V191H95.2295V173.912H98.2055L103.726 186.512L109.198 173.912H112.15ZM127.02 187.208H119.028L117.396 191H113.628L121.476 173.912H124.5L132.348 191H128.652L127.02 187.208ZM125.796 184.352L123.036 177.944L120.276 184.352H125.796ZM133.807 173.912H137.551V191H133.807V173.912ZM140.978 173.912H144.722V187.952H152.354V191H140.978V173.912ZM62.216 203.912V221H58.904V211.664L54.968 221H52.544L48.584 211.784V221H45.296V203.912H48.272L53.792 216.512L59.264 203.912H62.216ZM77.086 217.208H69.094L67.462 221H63.694L71.542 203.912H74.566L82.414 221H78.718L77.086 217.208ZM75.862 214.352L73.102 207.944L70.342 214.352H75.862ZM98.297 221H94.337L92.153 215.312C91.977 214.864 91.705 214.552 91.337 214.376C90.985 214.2 90.537 214.112 89.993 214.112H87.569V221H83.873V203.912H91.481C93.465 203.912 94.969 204.344 95.993 205.208C97.017 206.072 97.529 207.312 97.529 208.928C97.529 210.064 97.225 211.04 96.617 211.856C96.025 212.672 95.169 213.256 94.049 213.608C95.057 213.816 95.785 214.512 96.233 215.696L98.297 221ZM90.929 211.256C92.001 211.256 92.785 211.08 93.281 210.728C93.777 210.36 94.025 209.792 94.025 209.024C94.025 208.256 93.777 207.696 93.281 207.344C92.785 206.976 92.001 206.792 90.929 206.792H87.521V211.256H90.929ZM112.049 221L104.609 213.104V221H100.865V203.912H104.609V211.424L111.785 203.912H116.249L108.305 212.072L116.561 221H112.049ZM117.295 203.912H129.079V206.816H120.943V210.848H128.575V213.776H120.943V218.096H129.079V221H117.295V203.912ZM135.786 206.96H130.434V203.912H144.93V206.96H139.578V221H135.786V206.96ZM146.92 203.912H150.664V221H146.92V203.912ZM168.9 203.912V221H166.116L157.596 210.104V221H154.092V203.912H156.852L165.372 214.784V203.912H168.9ZM186.99 211.568V219.944C186.158 220.344 185.182 220.656 184.062 220.88C182.958 221.104 181.822 221.216 180.654 221.216C178.846 221.216 177.278 220.864 175.95 220.16C174.622 219.456 173.598 218.448 172.878 217.136C172.174 215.824 171.822 214.256 171.822 212.432C171.822 210.656 172.174 209.112 172.878 207.8C173.598 206.488 174.606 205.48 175.902 204.776C177.214 204.056 178.742 203.696 180.486 203.696C181.718 203.696 182.862 203.864 183.918 204.2C184.99 204.536 185.87 205.008 186.558 205.616L185.358 208.304C184.558 207.728 183.782 207.312 183.03 207.056C182.278 206.8 181.462 206.672 180.582 206.672C177.286 206.672 175.638 208.592 175.638 212.432C175.638 216.352 177.358 218.312 180.798 218.312C181.742 218.312 182.686 218.192 183.63 217.952V214.184H180.27V211.568H186.99Z" fill="white"/>
<path d="M24.4637 267.425C23.9104 267.425 23.3871 267.355 22.8937 267.215C22.4004 267.075 21.9671 266.872 21.5937 266.605L22.1837 265.485C22.5437 265.732 22.9137 265.915 23.2937 266.035C23.6804 266.148 24.0904 266.205 24.5237 266.205C24.9704 266.205 25.3071 266.138 25.5337 266.005C25.7671 265.872 25.8837 265.678 25.8837 265.425C25.8837 265.178 25.7637 264.988 25.5237 264.855C25.2837 264.722 24.9137 264.582 24.4137 264.435C23.9137 264.288 23.5071 264.145 23.1937 264.005C22.8871 263.865 22.6204 263.662 22.3937 263.395C22.1671 263.122 22.0537 262.765 22.0537 262.325C22.0537 261.885 22.1737 261.498 22.4137 261.165C22.6604 260.832 23.0037 260.575 23.4437 260.395C23.8904 260.215 24.4104 260.125 25.0037 260.125C25.5171 260.125 26.0037 260.198 26.4637 260.345C26.9237 260.492 27.2971 260.692 27.5837 260.945L27.0037 262.065C26.7037 261.832 26.3771 261.655 26.0237 261.535C25.6704 261.408 25.3171 261.345 24.9637 261.345C24.5371 261.345 24.2037 261.418 23.9637 261.565C23.7237 261.712 23.6037 261.918 23.6037 262.185C23.6037 262.365 23.6671 262.518 23.7937 262.645C23.9271 262.765 24.0937 262.865 24.2937 262.945C24.4937 263.018 24.7704 263.108 25.1237 263.215C25.6104 263.355 26.0071 263.495 26.3137 263.635C26.6271 263.768 26.8937 263.968 27.1137 264.235C27.3337 264.495 27.4437 264.835 27.4437 265.255C27.4437 265.942 27.1804 266.475 26.6537 266.855C26.1337 267.235 25.4037 267.425 24.4637 267.425ZM30.416 261.425L30.276 263.105H33.456L33.346 264.325H30.186L30.036 266.125H33.416L33.316 267.335H28.416L28.976 260.215H33.886L33.786 261.425H30.416ZM36.4023 261.425L36.2623 263.105H39.4423L39.3323 264.325H36.1723L36.0223 266.125H39.4023L39.3023 267.335H34.4023L34.9623 260.215H39.8723L39.7723 261.425H36.4023ZM50.8212 260.215L50.2712 267.335H48.8912L49.1912 263.475L47.2512 267.335H46.2412L44.8912 263.505L44.5912 267.335H43.2212L43.7712 260.215H45.0112L46.8912 265.495L49.5912 260.215H50.8212ZM55.197 267.435C54.5037 267.435 53.897 267.298 53.377 267.025C52.8637 266.745 52.467 266.348 52.187 265.835C51.9137 265.322 51.777 264.715 51.777 264.015C51.777 263.235 51.9203 262.552 52.207 261.965C52.5003 261.372 52.9103 260.915 53.437 260.595C53.9703 260.275 54.5903 260.115 55.297 260.115C55.9903 260.115 56.5937 260.255 57.107 260.535C57.627 260.808 58.0237 261.202 58.297 261.715C58.577 262.228 58.717 262.835 58.717 263.535C58.717 264.315 58.5703 265.002 58.277 265.595C57.9903 266.182 57.5803 266.635 57.047 266.955C56.5203 267.275 55.9037 267.435 55.197 267.435ZM55.187 266.205C55.7937 266.205 56.2737 265.968 56.627 265.495C56.9803 265.022 57.157 264.368 57.157 263.535C57.157 262.835 56.9937 262.295 56.667 261.915C56.347 261.535 55.897 261.345 55.317 261.345C54.697 261.345 54.2103 261.582 53.857 262.055C53.5103 262.528 53.337 263.185 53.337 264.025C53.337 264.725 53.497 265.265 53.817 265.645C54.137 266.018 54.5937 266.205 55.187 266.205ZM64.2162 264.305C64.4029 264.365 64.5562 264.468 64.6762 264.615C64.8029 264.762 64.9062 264.965 64.9862 265.225L65.6662 267.335H64.0262L63.2962 264.965C63.2362 264.778 63.1329 264.648 62.9862 264.575C62.8462 264.502 62.6596 264.465 62.4262 264.465H61.4262L61.2062 267.335H59.6662L60.2162 260.215H63.5262C64.2596 260.215 64.8329 260.395 65.2462 260.755C65.6596 261.115 65.8662 261.598 65.8662 262.205C65.8662 262.758 65.7296 263.215 65.4562 263.575C65.1829 263.928 64.7696 264.172 64.2162 264.305ZM63.1862 263.275C63.5862 263.275 63.8862 263.192 64.0862 263.025C64.2929 262.852 64.3962 262.605 64.3962 262.285C64.3962 261.992 64.3062 261.775 64.1262 261.635C63.9529 261.488 63.6862 261.415 63.3262 261.415H61.6662L61.5262 263.275H63.1862ZM68.7363 261.425L68.5963 263.105H71.7763L71.6663 264.325H68.5063L68.3563 266.125H71.7363L71.6363 267.335H66.7363L67.2963 260.215H72.2063L72.1063 261.425H68.7363Z" fill="white"/>
</g>
<path d="M69.75 73.325C69.7517 72.7641 69.8964 72.2129 70.1704 71.7235C70.4444 71.2341 70.8386 70.8226 71.3159 70.5279L81.4688 64.374V58.5366L67.0971 67.2467C66.6199 67.5414 66.2256 67.9528 65.9516 68.4423C65.6776 68.9317 65.533 69.4828 65.5312 70.0437V72.6687L69.75 75.2469V73.325Z" fill="#D4E1F4"/>
<path d="M70.2188 115.644V78.8285L65.5312 75.9637V115.643C65.5336 118.033 66.4836 120.323 68.1728 122.013C69.862 123.702 72.1525 124.652 74.5416 124.655H79.2291C76.8401 124.652 74.5497 123.702 72.8605 122.013C71.1713 120.323 70.2212 118.033 70.2188 115.644Z" fill="#D4E1F4"/>
<path d="M159.281 115.644V70.0436C159.278 69.0014 159.009 67.9773 158.5 67.0681C157.99 66.1588 157.257 65.3945 156.37 64.8473L141.054 55.3959C141.007 55.3666 140.958 55.3403 140.908 55.3169L140.531 55.1421V51.0002C140.531 50.6535 140.403 50.3191 140.172 50.0611L120.124 27.7118C120.113 27.6991 120.099 27.6895 120.087 27.6773C119.955 27.5281 119.794 27.4087 119.612 27.3268C119.431 27.245 119.235 27.2027 119.036 27.2027C118.976 27.2031 118.916 27.2073 118.856 27.2154L118.799 27.2097C118.752 27.205 118.705 27.2027 118.658 27.2027H90.308C87.9645 27.2054 85.7177 28.1375 84.0606 29.7946C82.4035 31.4517 81.4714 33.6984 81.4688 36.0419V55.2475L65.6348 64.844C64.7466 65.3911 64.0126 66.1557 63.5023 67.0656C62.992 67.9754 62.7223 69.0005 62.7188 70.0436V115.644C62.722 118.779 63.9686 121.784 66.1851 124.001C68.4016 126.217 71.4069 127.464 74.5416 127.468H147.458C150.593 127.464 153.598 126.217 155.815 124.001C158.031 121.784 159.278 118.779 159.281 115.644ZM154.898 67.2438C155.377 67.5383 155.772 67.9501 156.047 68.44C156.322 68.9299 156.467 69.4819 156.469 70.0436V72.6686L140.531 82.4083V58.3779L154.898 67.2438ZM120.442 32.2779L133.91 47.2919H126.469C124.871 47.2901 123.339 46.6545 122.209 45.5245C121.079 44.3945 120.444 42.8624 120.442 41.2645V32.2779ZM90.308 30.0145H117.63V41.2645C117.632 43.6081 118.564 45.8551 120.221 47.5123C121.878 49.1696 124.125 50.1018 126.469 50.1044H136.432L137.719 51.5386V84.1261L111 100.454L84.2812 84.1261V36.0419C84.2829 34.444 84.9183 32.9119 86.0482 31.7819C87.178 30.6519 88.71 30.0163 90.308 30.0145ZM67.0971 67.2466L81.4688 58.5365V82.4074L65.5312 72.6677V70.0427C65.5331 69.482 65.6779 68.931 65.9519 68.4417C66.2258 67.9525 66.62 67.5412 67.0971 67.2466ZM65.5312 115.644V75.9637L81.8852 85.9579C82.0405 86.1118 82.2295 86.2272 82.4372 86.2952L110.267 103.302C110.487 103.437 110.741 103.509 111 103.509C111.259 103.509 111.513 103.437 111.733 103.302L139.563 86.2952C139.771 86.2273 139.96 86.1118 140.115 85.9579L156.469 75.9637V115.643C156.466 118.032 155.516 120.323 153.827 122.013C152.138 123.702 149.848 124.652 147.458 124.655H74.5416C72.1526 124.652 69.8622 123.702 68.173 122.013C66.4838 120.323 65.5337 118.033 65.5312 115.644Z" fill="#0635C9"/>
<path d="M107.531 74.6367C107.77 74.9159 108.108 75.0908 108.473 75.124C108.839 75.1572 109.203 75.0461 109.488 74.8144L117.895 67.9746C118.185 67.7392 118.369 67.3985 118.407 67.0275C118.445 66.6565 118.334 66.2855 118.099 65.9961C117.863 65.7068 117.522 65.5229 117.151 65.4847C116.78 65.4466 116.409 65.5574 116.12 65.7928L108.779 71.7661L106.06 68.5828C105.818 68.2992 105.473 68.1234 105.101 68.0941C104.729 68.0648 104.361 68.1844 104.078 68.4266C103.794 68.6688 103.618 69.0138 103.589 69.3856C103.56 69.7574 103.679 70.1257 103.921 70.4093L107.531 74.6367Z" fill="#1AE5BE"/>
<path d="M111 87.9539C114.491 87.9539 117.903 86.9187 120.806 84.9793C123.708 83.0398 125.971 80.2832 127.307 77.0581C128.643 73.8329 128.992 70.284 128.311 66.8602C127.63 63.4364 125.949 60.2914 123.481 57.8229C121.012 55.3545 117.867 53.6735 114.443 52.9924C111.02 52.3114 107.471 52.6609 104.245 53.9968C101.02 55.3327 98.2637 57.595 96.3242 60.4976C94.3848 63.4002 93.3496 66.8127 93.3496 70.3036C93.3549 74.9831 95.2162 79.4695 98.5251 82.7784C101.834 86.0874 106.32 87.9486 111 87.9539ZM111 55.4658C113.935 55.4658 116.803 56.336 119.243 57.9664C121.683 59.5968 123.585 61.9141 124.708 64.6254C125.831 67.3367 126.125 70.32 125.553 73.1983C124.98 76.0766 123.567 78.7204 121.492 80.7955C119.417 82.8706 116.773 84.2838 113.895 84.8563C111.016 85.4288 108.033 85.135 105.322 84.0119C102.61 82.8889 100.293 80.9871 98.6627 78.547C97.0323 76.107 96.1621 73.2382 96.1621 70.3036C96.1666 66.3697 97.7313 62.5983 100.513 59.8166C103.295 57.0349 107.066 55.4702 111 55.4658Z" fill="#1AE5BE"/>
<path d="M136.74 70.3036C136.74 69.9306 136.592 69.5729 136.328 69.3092C136.064 69.0455 135.707 68.8973 135.334 68.8973H132.232C131.859 68.8973 131.502 69.0455 131.238 69.3092C130.974 69.5729 130.826 69.9306 130.826 70.3036C130.826 70.6765 130.974 71.0342 131.238 71.298C131.502 71.5617 131.859 71.7098 132.232 71.7098H135.334C135.707 71.7098 136.064 71.5617 136.328 71.298C136.592 71.0342 136.74 70.6765 136.74 70.3036Z" fill="#1AE5BE"/>
<path d="M85.4944 70.3036C85.4944 70.6765 85.6425 71.0342 85.9063 71.298C86.17 71.5617 86.5277 71.7098 86.9006 71.7098H90.0019C90.3748 71.7098 90.7325 71.5617 90.9963 71.298C91.26 71.0342 91.4081 70.6765 91.4081 70.3036C91.4081 69.9306 91.26 69.5729 90.9963 69.3092C90.7325 69.0455 90.3748 68.8973 90.0019 68.8973H86.9006C86.5277 68.8973 86.17 69.0455 85.9063 69.3092C85.6425 69.5729 85.4944 69.9306 85.4944 70.3036Z" fill="#1AE5BE"/>
<path d="M129.041 79.1396L133.369 80.6311C133.721 80.7527 134.108 80.7291 134.443 80.5657C134.778 80.4023 135.035 80.1124 135.156 79.7597C135.278 79.4071 135.254 79.0206 135.091 78.6853C134.928 78.3501 134.638 78.0934 134.285 77.9719L129.957 76.4806C129.605 76.3628 129.221 76.3887 128.889 76.5526C128.556 76.7166 128.302 77.0053 128.181 77.3559C128.06 77.7066 128.082 78.0907 128.244 78.4248C128.405 78.7588 128.691 79.0157 129.041 79.1396Z" fill="#1AE5BE"/>
<path d="M92.2773 64.1276C92.4524 64.1896 92.6379 64.2163 92.8233 64.2062C93.0088 64.1961 93.1903 64.1494 93.3576 64.0688C93.5249 63.9881 93.6745 63.8751 93.7979 63.7364C93.9212 63.5976 94.0159 63.4357 94.0764 63.2602C94.1369 63.0846 94.162 62.8988 94.1503 62.7135C94.1386 62.5282 94.0903 62.347 94.0082 62.1804C93.9262 62.0139 93.8119 61.8652 93.6721 61.743C93.5322 61.6209 93.3696 61.5276 93.1935 61.4686L88.8655 59.9771C88.5129 59.8555 88.1264 59.8791 87.7911 60.0425C87.4559 60.2059 87.1992 60.4958 87.0777 60.8485C86.9562 61.2011 86.9797 61.5876 87.1431 61.9229C87.3066 62.2581 87.5965 62.5148 87.9491 62.6363L92.2773 64.1276Z" fill="#1AE5BE"/>
<path d="M129.717 64.8715C129.859 64.8714 130 64.8499 130.135 64.8077L134.506 63.4483C134.683 63.3935 134.847 63.3045 134.988 63.1863C135.13 63.0682 135.248 62.9232 135.334 62.7598C135.42 62.5963 135.472 62.4175 135.489 62.2336C135.506 62.0497 135.487 61.8643 135.432 61.6879C135.377 61.5116 135.288 61.3478 135.17 61.2058C135.052 61.0639 134.907 60.9466 134.743 60.8607C134.58 60.7748 134.401 60.7219 134.217 60.7051C134.033 60.6882 133.848 60.7078 133.671 60.7626L129.3 62.122C128.978 62.2216 128.703 62.4333 128.524 62.7184C128.346 63.0036 128.275 63.3434 128.326 63.6762C128.376 64.0089 128.544 64.3125 128.8 64.5318C129.055 64.7512 129.38 64.8717 129.717 64.8715Z" fill="#1AE5BE"/>
<path d="M88.1451 79.9081C88.2868 79.908 88.4277 79.8865 88.563 79.8443L92.9346 78.485C93.2907 78.3742 93.5883 78.1265 93.7618 77.7964C93.9354 77.4663 93.9706 77.0807 93.8599 76.7246C93.7492 76.3684 93.5015 76.0709 93.1713 75.8973C92.8412 75.7238 92.4557 75.6885 92.0995 75.7993L87.7279 77.1586C87.4065 77.2583 87.1314 77.4699 86.9527 77.7551C86.774 78.0403 86.7035 78.3801 86.754 78.7128C86.8044 79.0455 86.9726 79.3491 87.2279 79.5685C87.4831 79.7878 87.8086 79.9083 88.1451 79.9081Z" fill="#1AE5BE"/>
<defs>
<filter id="filter0_d" x="0.296875" y="0.334839" width="221.899" height="294" filterUnits="userSpaceOnUse" color-interpolation-filters="sRGB">
<feFlood flood-opacity="0" result="BackgroundImageFix"/>
<feColorMatrix in="SourceAlpha" type="matrix" values="0 0 0 0 0 0 0 0 0 0 0 0 0 0 0 0 0 0 127 0" result="hardAlpha"/>
<feOffset dy="4"/>
<feGaussianBlur stdDeviation="2"/>
<feComposite in2="hardAlpha" operator="out"/>
<feColorMatrix type="matrix" values="0 0 0 0 0 0 0 0 0 0 0 0 0 0 0 0 0 0 0.25 0"/>
<feBlend mode="normal" in2="BackgroundImageFix" result="effect1_dropShadow"/>
<feBlend mode="normal" in="SourceGraphic" in2="effect1_dropShadow" result="shape"/>
</filter>
<filter id="filter1_b" x="0.296875" y="-3.66516" width="221.899" height="294" filterUnits="userSpaceOnUse" color-interpolation-filters="sRGB">
<feFlood flood-opacity="0" result="BackgroundImageFix"/>
<feGaussianBlur in="BackgroundImage" stdDeviation="2"/>
<feComposite in2="SourceAlpha" operator="in" result="effect1_backgroundBlur"/>
<feBlend mode="normal" in="SourceGraphic" in2="effect1_backgroundBlur" result="shape"/>
</filter>
</defs>
</svg>
