<svg width="222" height="295" viewBox="0 0 222 295" fill="none" xmlns="http://www.w3.org/2000/svg">
<g filter="url(#filter0_d)">
<g filter="url(#filter1_b)">
<path d="M4 15.3348C4 7.05057 10.7157 0.334839 19 0.334839H202.899C211.184 0.334839 217.899 7.05057 217.899 15.3348V143.335V271.335C217.899 279.619 211.184 286.335 202.899 286.335H19C10.7157 286.335 4 279.619 4 271.335V143.335V15.3348Z" fill="#1AE5BE"/>
</g>
<path d="M24.1669 275.425C23.6135 275.425 23.0902 275.355 22.5969 275.215C22.1035 275.075 21.6702 274.872 21.2969 274.605L21.8869 273.485C22.2469 273.732 22.6169 273.915 22.9969 274.035C23.3835 274.148 23.7935 274.205 24.2269 274.205C24.6735 274.205 25.0102 274.138 25.2369 274.005C25.4702 273.872 25.5869 273.678 25.5869 273.425C25.5869 273.178 25.4669 272.988 25.2269 272.855C24.9869 272.722 24.6169 272.582 24.1169 272.435C23.6169 272.288 23.2102 272.145 22.8969 272.005C22.5902 271.865 22.3235 271.662 22.0969 271.395C21.8702 271.122 21.7569 270.765 21.7569 270.325C21.7569 269.885 21.8769 269.498 22.1169 269.165C22.3635 268.832 22.7069 268.575 23.1469 268.395C23.5935 268.215 24.1135 268.125 24.7069 268.125C25.2202 268.125 25.7069 268.198 26.1669 268.345C26.6269 268.492 27.0002 268.692 27.2869 268.945L26.7069 270.065C26.4069 269.832 26.0802 269.655 25.7269 269.535C25.3735 269.408 25.0202 269.345 24.6669 269.345C24.2402 269.345 23.9069 269.418 23.6669 269.565C23.4269 269.712 23.3069 269.918 23.3069 270.185C23.3069 270.365 23.3702 270.518 23.4969 270.645C23.6302 270.765 23.7969 270.865 23.9969 270.945C24.1969 271.018 24.4735 271.108 24.8269 271.215C25.3135 271.355 25.7102 271.495 26.0169 271.635C26.3302 271.768 26.5969 271.968 26.8169 272.235C27.0369 272.495 27.1469 272.835 27.1469 273.255C27.1469 273.942 26.8835 274.475 26.3569 274.855C25.8369 275.235 25.1069 275.425 24.1669 275.425ZM30.1191 269.425L29.9791 271.105H33.1591L33.0491 272.325H29.8891L29.7391 274.125H33.1191L33.0191 275.335H28.1191L28.6791 268.215H33.5891L33.4891 269.425H30.1191ZM36.1054 269.425L35.9654 271.105H39.1454L39.0354 272.325H35.8754L35.7254 274.125H39.1054L39.0054 275.335H34.1054L34.6654 268.215H39.5754L39.4754 269.425H36.1054ZM50.5243 268.215L49.9743 275.335H48.5943L48.8943 271.475L46.9543 275.335H45.9443L44.5943 271.505L44.2943 275.335H42.9243L43.4743 268.215H44.7143L46.5943 273.495L49.2943 268.215H50.5243ZM54.9001 275.435C54.2068 275.435 53.6001 275.298 53.0801 275.025C52.5668 274.745 52.1701 274.348 51.8901 273.835C51.6168 273.322 51.4801 272.715 51.4801 272.015C51.4801 271.235 51.6235 270.552 51.9101 269.965C52.2035 269.372 52.6135 268.915 53.1401 268.595C53.6735 268.275 54.2935 268.115 55.0001 268.115C55.6935 268.115 56.2968 268.255 56.8101 268.535C57.3301 268.808 57.7268 269.202 58.0001 269.715C58.2801 270.228 58.4201 270.835 58.4201 271.535C58.4201 272.315 58.2735 273.002 57.9801 273.595C57.6935 274.182 57.2835 274.635 56.7501 274.955C56.2235 275.275 55.6068 275.435 54.9001 275.435ZM54.8901 274.205C55.4968 274.205 55.9768 273.968 56.3301 273.495C56.6835 273.022 56.8601 272.368 56.8601 271.535C56.8601 270.835 56.6968 270.295 56.3701 269.915C56.0501 269.535 55.6001 269.345 55.0201 269.345C54.4001 269.345 53.9135 269.582 53.5601 270.055C53.2135 270.528 53.0401 271.185 53.0401 272.025C53.0401 272.725 53.2001 273.265 53.5201 273.645C53.8401 274.018 54.2968 274.205 54.8901 274.205ZM63.9194 272.305C64.106 272.365 64.2594 272.468 64.3794 272.615C64.506 272.762 64.6094 272.965 64.6894 273.225L65.3694 275.335H63.7294L62.9994 272.965C62.9394 272.778 62.836 272.648 62.6894 272.575C62.5494 272.502 62.3627 272.465 62.1294 272.465H61.1294L60.9094 275.335H59.3694L59.9194 268.215H63.2294C63.9627 268.215 64.536 268.395 64.9494 268.755C65.3627 269.115 65.5694 269.598 65.5694 270.205C65.5694 270.758 65.4327 271.215 65.1594 271.575C64.886 271.928 64.4727 272.172 63.9194 272.305ZM62.8894 271.275C63.2894 271.275 63.5894 271.192 63.7894 271.025C63.996 270.852 64.0994 270.605 64.0994 270.285C64.0994 269.992 64.0094 269.775 63.8294 269.635C63.656 269.488 63.3894 269.415 63.0294 269.415H61.3694L61.2294 271.275H62.8894ZM68.4394 269.425L68.2994 271.105H71.4794L71.3694 272.325H68.2094L68.0594 274.125H71.4394L71.3394 275.335H66.4394L66.9994 268.215H71.9094L71.8094 269.425H68.4394Z" fill="white"/>
</g>
<path d="M106.553 119.413H99.6365V135.634H106.553V119.413Z" fill="#D4E1F4"/>
<path d="M98.9554 102.409C96.1024 99.8423 93.8189 96.7061 92.2521 93.2026C90.6854 89.6992 89.8701 85.9063 89.8589 82.0686C89.8536 78.4074 90.5878 74.7829 92.0176 71.4125C93.4474 68.0421 95.5432 64.9952 98.1794 62.4547C102.625 58.1176 108.383 55.3776 114.553 54.6638C113.513 54.538 112.468 54.4692 111.421 54.4577C111.333 54.4577 111.245 54.4577 111.158 54.4577C103.772 54.4266 96.6692 57.299 91.3813 62.4558C88.7451 64.9963 86.6493 68.0432 85.2195 71.4136C83.7897 74.784 83.0555 78.4085 83.0608 82.0697C83.0721 85.9075 83.8874 89.7003 85.4542 93.2037C87.021 96.7072 89.3045 99.8434 92.1575 102.41C96.4068 106.262 99.0442 111.577 99.5414 117.29H106.339C105.842 111.576 103.205 106.261 98.9554 102.409Z" fill="#D4E1F4"/>
<path d="M90.956 104.31C92.869 106.085 94.3937 108.237 95.4339 110.63C96.4741 113.023 97.0072 115.606 96.9997 118.215V132.493C97.0015 134.011 97.6051 135.466 98.6782 136.539C99.7514 137.612 101.206 138.216 102.724 138.218H109.87V142.605C109.87 142.956 110.01 143.293 110.258 143.541C110.506 143.79 110.843 143.929 111.194 143.929C111.545 143.929 111.882 143.79 112.131 143.541C112.379 143.293 112.518 142.956 112.518 142.605V138.218H119.665C121.182 138.216 122.637 137.612 123.71 136.539C124.784 135.466 125.387 134.011 125.389 132.493V118.195C125.408 115.557 125.968 112.95 127.035 110.537C128.102 108.124 129.652 105.955 131.591 104.165C134.693 101.272 137.145 97.7537 138.786 93.8426C140.426 89.9315 141.218 85.7167 141.109 81.4768C140.956 75.1011 138.749 68.945 134.816 63.9243C134.709 63.787 134.576 63.6721 134.425 63.5862C134.274 63.5002 134.107 63.4449 133.935 63.4234C133.762 63.4019 133.587 63.4147 133.419 63.4609C133.251 63.5071 133.095 63.5859 132.957 63.6928C132.82 63.7997 132.705 63.9326 132.619 64.0839C132.533 64.2351 132.478 64.4019 132.457 64.5745C132.435 64.7471 132.448 64.9223 132.495 65.09C132.541 65.2576 132.62 65.4146 132.727 65.5517C136.31 70.1262 138.321 75.7353 138.461 81.5446C138.56 85.4093 137.838 89.2511 136.343 92.816C134.847 96.3809 132.612 99.5877 129.784 102.224C125.666 106.041 123.162 111.288 122.783 116.89H99.6056C99.2821 111.342 96.8245 106.134 92.7475 102.358C88.7008 98.6424 85.8703 93.7917 84.6265 88.4407C83.3828 83.0898 83.7838 77.488 85.777 72.3687C87.7702 67.2495 91.2628 62.8514 95.7974 59.7503C100.332 56.6492 105.697 54.9897 111.191 54.9889C111.277 54.9889 111.362 54.9889 111.448 54.9889C117.248 55.032 122.881 56.9409 127.513 60.4332C127.794 60.6439 128.147 60.7344 128.495 60.6847C128.842 60.6351 129.156 60.4493 129.367 60.1684C129.577 59.8874 129.668 59.5342 129.618 59.1865C129.569 58.8389 129.383 58.5252 129.102 58.3144C124.019 54.4828 117.838 52.3886 111.473 52.3418C111.379 52.3409 111.285 52.3405 111.191 52.3405C105.164 52.3409 99.2774 54.1614 94.3021 57.5636C89.3268 60.9658 85.4948 65.7911 83.3079 71.4077C81.1209 77.0242 80.681 83.1703 82.0457 89.0411C83.4104 94.9118 86.516 100.234 90.956 104.31ZM119.664 135.569H102.723C101.908 135.568 101.126 135.244 100.55 134.667C99.9734 134.09 99.6491 133.309 99.6482 132.493V131.925H114.822C115.173 131.925 115.51 131.786 115.758 131.537C116.006 131.289 116.146 130.952 116.146 130.601C116.146 130.25 116.006 129.913 115.758 129.665C115.51 129.416 115.173 129.277 114.822 129.277H99.6482V125.633H103.381C103.733 125.633 104.069 125.493 104.318 125.245C104.566 124.997 104.706 124.66 104.706 124.309C104.706 123.957 104.566 123.621 104.318 123.372C104.069 123.124 103.733 122.984 103.381 122.984H99.6482V119.539H122.74V122.984H107.935C107.584 122.984 107.247 123.124 106.999 123.372C106.75 123.621 106.611 123.957 106.611 124.309C106.611 124.66 106.75 124.997 106.999 125.245C107.247 125.493 107.584 125.633 107.935 125.633H122.74V129.276H119.376C119.024 129.276 118.687 129.416 118.439 129.664C118.191 129.913 118.051 130.249 118.051 130.601C118.051 130.952 118.191 131.289 118.439 131.537C118.687 131.785 119.024 131.925 119.376 131.925H122.74V132.493C122.739 133.309 122.415 134.09 121.838 134.667C121.261 135.244 120.48 135.568 119.664 135.569Z" fill="#0635C9"/>
<path d="M112.239 47.1888C112.59 47.1888 112.927 47.0493 113.175 46.8009C113.423 46.5526 113.563 46.2158 113.563 45.8646V37.0647C113.563 36.7135 113.423 36.3767 113.175 36.1283C112.927 35.88 112.59 35.7405 112.239 35.7405C111.887 35.7405 111.551 35.88 111.302 36.1283C111.054 36.3767 110.914 36.7135 110.914 37.0647V45.8646C110.914 46.2158 111.054 46.5526 111.302 46.8009C111.551 47.0493 111.887 47.1888 112.239 47.1888Z" fill="#0635C9"/>
<path d="M153.127 77.6741H144.327C143.976 77.6741 143.639 77.8136 143.391 78.0619C143.142 78.3103 143.003 78.6471 143.003 78.9983C143.003 79.3495 143.142 79.6863 143.391 79.9347C143.639 80.183 143.976 80.3225 144.327 80.3225H153.127C153.478 80.3225 153.815 80.183 154.064 79.9347C154.312 79.6863 154.451 79.3495 154.451 78.9983C154.451 78.6471 154.312 78.3103 154.064 78.0619C153.815 77.8136 153.478 77.6741 153.127 77.6741Z" fill="#0635C9"/>
<path d="M69.26 80.3225H78.0603C78.4115 80.3225 78.7484 80.183 78.9967 79.9347C79.245 79.6863 79.3845 79.3495 79.3845 78.9983C79.3845 78.6471 79.245 78.3103 78.9967 78.0619C78.7484 77.8136 78.4115 77.6741 78.0603 77.6741H69.26C68.9088 77.6741 68.572 77.8136 68.3236 78.0619C68.0753 78.3103 67.9358 78.6471 67.9358 78.9983C67.9358 79.3495 68.0753 79.6863 68.3236 79.9347C68.572 80.183 68.9088 80.3225 69.26 80.3225Z" fill="#0635C9"/>
<path d="M86.184 55.8611C86.4324 56.1095 86.7692 56.249 87.1204 56.2491C87.4716 56.2491 87.8085 56.1096 88.0568 55.8612C88.3052 55.6129 88.4447 55.2761 88.4447 54.9249C88.4448 54.5737 88.3053 54.2368 88.0569 53.9885L81.19 47.1213C80.9416 46.8729 80.6048 46.7334 80.2535 46.7334C79.9023 46.7334 79.5654 46.8729 79.3171 47.1213C79.0687 47.3696 78.9292 47.7065 78.9292 48.0577C78.9292 48.409 79.0687 48.7458 79.3171 48.9942L86.184 55.8611Z" fill="#0635C9"/>
<path d="M111.132 103.224C115.193 103.226 119.169 102.061 122.586 99.8669C126.003 97.6728 128.717 94.5426 130.405 90.8492C132.093 87.1558 132.683 83.055 132.105 79.0355C131.528 75.016 129.807 71.2472 127.148 68.1783L134.049 61.2767L141.599 63.1642C141.857 63.2289 142.129 63.2254 142.386 63.1542C142.643 63.0829 142.877 62.9463 143.066 62.7576L154.612 51.2118C154.819 51.0049 154.962 50.7435 155.027 50.458C155.091 50.1725 155.073 49.8746 154.974 49.5991C154.875 49.3236 154.701 49.0817 154.47 48.9016C154.239 48.7215 153.962 48.6107 153.671 48.5819L145.379 47.7617L144.559 39.4699C144.53 39.1787 144.419 38.9017 144.239 38.6711C144.059 38.4404 143.817 38.2657 143.542 38.1672C143.266 38.0687 142.968 38.0504 142.683 38.1145C142.397 38.1787 142.136 38.3226 141.929 38.5295L130.382 50.0767C130.194 50.2653 130.057 50.4996 129.986 50.7567C129.915 51.0138 129.911 51.2849 129.976 51.5437L131.863 59.0929L124.959 65.9969C122.371 63.7655 119.281 62.1935 115.953 61.4151C112.625 60.6366 109.158 60.6749 105.849 61.5266C102.539 62.3783 99.4844 64.0182 96.9457 66.3062C94.4071 68.5943 92.4597 71.4625 91.2698 74.6663C90.0799 77.87 89.6828 81.3141 90.1124 84.7046C90.5419 88.095 91.7855 91.3312 93.7368 94.1369C95.6881 96.9427 98.2893 99.2346 101.318 100.817C104.347 102.4 107.714 103.226 111.132 103.225V103.224ZM141.498 59.9543L136.596 58.7289L144.541 50.7836L150.118 51.3354L141.498 59.9543ZM133.186 51.6419L141.806 43.0219L142.357 48.5978L134.412 56.5431L133.186 51.6419ZM111.132 63.4977C115.508 63.4945 119.742 65.0463 123.079 67.876L116.264 74.6908C114.422 73.4024 112.164 72.8516 109.935 73.1471C107.706 73.4427 105.67 74.5633 104.227 76.2874C102.784 78.0116 102.041 80.214 102.143 82.4598C102.245 84.7056 103.185 86.8314 104.779 88.4176C106.372 90.0037 108.502 90.9347 110.748 91.0269C112.994 91.119 115.193 90.3655 116.911 88.9152C118.629 87.4649 119.74 85.4232 120.026 83.1933C120.312 80.9634 119.751 78.7074 118.454 76.8709L125.266 70.0598C127.992 73.2822 129.536 77.3389 129.643 81.5584C129.75 85.7779 128.412 89.9074 125.853 93.2634C123.293 96.6194 119.664 99.0008 115.566 100.013C111.469 101.026 107.148 100.609 103.32 98.8321C99.4911 97.0548 96.3842 94.0237 94.513 90.2402C92.6419 86.4567 92.1186 82.1478 93.0299 78.0265C93.9411 73.9052 96.2323 70.2185 99.5241 67.5766C102.816 64.9347 106.911 63.496 111.132 63.4985V63.4977ZM117.45 82.0367C117.452 83.4324 116.991 84.7895 116.141 85.8963C115.291 87.0032 114.098 87.7977 112.75 88.1561C111.401 88.5145 109.971 88.4167 108.683 87.8778C107.396 87.3389 106.323 86.3893 105.631 85.1768C104.94 83.9644 104.669 82.5573 104.861 81.1748C105.052 79.7923 105.696 78.5121 106.691 77.5335C107.687 76.555 108.978 75.9332 110.363 75.7649C111.749 75.5967 113.151 75.8915 114.351 76.6034L110.008 80.9469C109.718 81.2366 109.555 81.6296 109.555 82.0394C109.555 82.4491 109.718 82.8421 110.008 83.1318C110.298 83.4216 110.691 83.5844 111.1 83.5844C111.51 83.5844 111.903 83.4216 112.193 83.1318L116.544 78.7807C117.138 79.7628 117.451 80.8889 117.45 82.0367Z" fill="#1AE5BE"/>
<path d="M109.542 182.912L103.47 200H100.47L96.4856 188.696L92.4776 200H89.4776L83.4056 182.912H87.2216L91.1576 194.72L95.2856 182.912H97.9016L101.934 194.888L105.966 182.912H109.542ZM111.701 182.912H123.485V185.816H115.349V189.848H122.981V192.776H115.349V197.096H123.485V200H111.701V182.912ZM137.036 191.168C138.028 191.456 138.796 191.96 139.34 192.68C139.884 193.4 140.156 194.28 140.156 195.32C140.156 196.76 139.62 197.904 138.548 198.752C137.476 199.584 136.02 200 134.18 200H126.068V182.912H133.94C135.716 182.912 137.116 183.312 138.14 184.112C139.18 184.896 139.7 185.976 139.7 187.352C139.7 188.248 139.46 189.032 138.98 189.704C138.516 190.376 137.868 190.864 137.036 191.168ZM129.716 189.872H133.316C134.276 189.872 134.988 189.712 135.452 189.392C135.932 189.056 136.172 188.544 136.172 187.856C136.172 187.152 135.932 186.632 135.452 186.296C134.988 185.96 134.276 185.792 133.316 185.792H129.716V189.872ZM133.748 197.12C134.756 197.12 135.484 196.952 135.932 196.616C136.396 196.264 136.628 195.712 136.628 194.96C136.628 194.192 136.396 193.632 135.932 193.28C135.484 192.928 134.756 192.752 133.748 192.752H129.716V197.12H133.748ZM67.873 212.912H74.473C76.345 212.912 77.953 213.248 79.297 213.92C80.641 214.592 81.665 215.568 82.369 216.848C83.089 218.128 83.449 219.656 83.449 221.432C83.449 223.224 83.097 224.76 82.393 226.04C81.689 227.32 80.665 228.304 79.321 228.992C77.977 229.664 76.361 230 74.473 230H67.873V212.912ZM74.233 226.976C77.881 226.976 79.705 225.128 79.705 221.432C79.705 217.768 77.881 215.936 74.233 215.936H71.617V226.976H74.233ZM86.3886 212.912H98.1726V215.816H90.0366V219.848H97.6686V222.776H90.0366V227.096H98.1726V230H86.3886V212.912ZM106.497 230.216C105.201 230.216 103.953 230.048 102.753 229.712C101.569 229.36 100.585 228.872 99.8014 228.248L101.001 225.56C102.649 226.712 104.489 227.288 106.521 227.288C107.609 227.288 108.441 227.12 109.017 226.784C109.609 226.432 109.905 225.944 109.905 225.32C109.905 224.776 109.633 224.352 109.089 224.048C108.561 223.728 107.625 223.424 106.281 223.136C104.777 222.832 103.577 222.464 102.681 222.032C101.801 221.584 101.153 221.048 100.737 220.424C100.337 219.784 100.137 218.992 100.137 218.048C100.137 217.024 100.417 216.104 100.977 215.288C101.553 214.472 102.353 213.84 103.377 213.392C104.401 212.928 105.585 212.696 106.929 212.696C108.145 212.696 109.313 212.872 110.433 213.224C111.553 213.576 112.449 214.056 113.121 214.664L111.921 217.352C110.417 216.2 108.761 215.624 106.953 215.624C105.993 215.624 105.225 215.816 104.649 216.2C104.073 216.584 103.785 217.104 103.785 217.76C103.785 218.144 103.889 218.464 104.097 218.72C104.321 218.976 104.689 219.208 105.201 219.416C105.713 219.608 106.441 219.8 107.385 219.992C109.577 220.472 111.153 221.096 112.113 221.864C113.089 222.632 113.577 223.68 113.577 225.008C113.577 226.608 112.953 227.88 111.705 228.824C110.457 229.752 108.721 230.216 106.497 230.216ZM116.295 212.912H120.039V230H116.295V212.912ZM138.131 220.568V228.944C137.299 229.344 136.323 229.656 135.203 229.88C134.099 230.104 132.963 230.216 131.795 230.216C129.987 230.216 128.419 229.864 127.091 229.16C125.763 228.456 124.739 227.448 124.019 226.136C123.315 224.824 122.963 223.256 122.963 221.432C122.963 219.656 123.315 218.112 124.019 216.8C124.739 215.488 125.747 214.48 127.043 213.776C128.355 213.056 129.883 212.696 131.627 212.696C132.859 212.696 134.003 212.864 135.059 213.2C136.131 213.536 137.011 214.008 137.699 214.616L136.499 217.304C135.699 216.728 134.923 216.312 134.171 216.056C133.419 215.8 132.603 215.672 131.723 215.672C128.427 215.672 126.779 217.592 126.779 221.432C126.779 225.352 128.499 227.312 131.939 227.312C132.883 227.312 133.827 227.192 134.771 226.952V223.184H131.411V220.568H138.131ZM156.158 212.912V230H153.374L144.854 219.104V230H141.35V212.912H144.11L152.63 223.784V212.912H156.158Z" fill="white"/>
<defs>
<filter id="filter0_d" x="0" y="0.334839" width="221.899" height="294" filterUnits="userSpaceOnUse" color-interpolation-filters="sRGB">
<feFlood flood-opacity="0" result="BackgroundImageFix"/>
<feColorMatrix in="SourceAlpha" type="matrix" values="0 0 0 0 0 0 0 0 0 0 0 0 0 0 0 0 0 0 127 0" result="hardAlpha"/>
<feOffset dy="4"/>
<feGaussianBlur stdDeviation="2"/>
<feComposite in2="hardAlpha" operator="out"/>
<feColorMatrix type="matrix" values="0 0 0 0 0 0 0 0 0 0 0 0 0 0 0 0 0 0 0.25 0"/>
<feBlend mode="normal" in2="BackgroundImageFix" result="effect1_dropShadow"/>
<feBlend mode="normal" in="SourceGraphic" in2="effect1_dropShadow" result="shape"/>
</filter>
<filter id="filter1_b" x="0" y="-3.66516" width="221.899" height="294" filterUnits="userSpaceOnUse" color-interpolation-filters="sRGB">
<feFlood flood-opacity="0" result="BackgroundImageFix"/>
<feGaussianBlur in="BackgroundImage" stdDeviation="2"/>
<feComposite in2="SourceAlpha" operator="in" result="effect1_backgroundBlur"/>
<feBlend mode="normal" in="SourceGraphic" in2="effect1_backgroundBlur" result="shape"/>
</filter>
</defs>
</svg>
