<svg width="222" height="295" viewBox="0 0 222 295" fill="none" xmlns="http://www.w3.org/2000/svg">
<g filter="url(#filter0_d)">
<g filter="url(#filter1_b)">
<path d="M4 15.3348C4 7.05057 10.7157 0.334839 19 0.334839H202.899C211.184 0.334839 217.899 7.05057 217.899 15.3348V143.335V271.335C217.899 279.619 211.184 286.335 202.899 286.335H19C10.7157 286.335 4 279.619 4 271.335V143.335V15.3348Z" fill="#5F5BFF"/>
</g>
<path d="M87.704 193.912H95.456C97.344 193.912 98.808 194.368 99.848 195.28C100.904 196.192 101.432 197.432 101.432 199C101.432 200.552 100.904 201.792 99.848 202.72C98.792 203.632 97.328 204.088 95.456 204.088H91.448V211H87.704V193.912ZM94.976 201.232C96.928 201.232 97.904 200.496 97.904 199.024C97.904 197.536 96.928 196.792 94.976 196.792H91.448V201.232H94.976ZM103.899 193.912H111.651C113.539 193.912 115.003 194.368 116.043 195.28C117.099 196.192 117.627 197.432 117.627 199C117.627 200.552 117.099 201.792 116.043 202.72C114.987 203.632 113.523 204.088 111.651 204.088H107.643V211H103.899V193.912ZM111.171 201.232C113.123 201.232 114.099 200.496 114.099 199.024C114.099 197.536 113.123 196.792 111.171 196.792H107.643V201.232H111.171ZM128.087 211.216C126.359 211.216 124.847 210.856 123.551 210.136C122.271 209.4 121.287 208.376 120.599 207.064C119.911 205.736 119.567 204.192 119.567 202.432C119.567 200.688 119.911 199.16 120.599 197.848C121.287 196.52 122.271 195.496 123.551 194.776C124.847 194.056 126.359 193.696 128.087 193.696C129.223 193.696 130.303 193.872 131.327 194.224C132.367 194.56 133.215 195.04 133.871 195.664L132.695 198.352C131.927 197.776 131.175 197.36 130.439 197.104C129.719 196.832 128.959 196.696 128.159 196.696C126.623 196.696 125.447 197.184 124.631 198.16C123.815 199.136 123.407 200.56 123.407 202.432C123.407 204.32 123.815 205.76 124.631 206.752C125.447 207.728 126.623 208.216 128.159 208.216C128.959 208.216 129.719 208.088 130.439 207.832C131.175 207.56 131.927 207.136 132.695 206.56L133.871 209.248C133.215 209.872 132.367 210.36 131.327 210.712C130.303 211.048 129.223 211.216 128.087 211.216Z" fill="white"/>
<path d="M24.1668 275.425C23.6135 275.425 23.0901 275.355 22.5968 275.215C22.1035 275.075 21.6701 274.872 21.2968 274.605L21.8868 273.485C22.2468 273.732 22.6168 273.915 22.9968 274.035C23.3835 274.148 23.7935 274.205 24.2268 274.205C24.6735 274.205 25.0101 274.138 25.2368 274.005C25.4701 273.872 25.5868 273.678 25.5868 273.425C25.5868 273.178 25.4668 272.988 25.2268 272.855C24.9868 272.722 24.6168 272.582 24.1168 272.435C23.6168 272.288 23.2101 272.145 22.8968 272.005C22.5901 271.865 22.3235 271.662 22.0968 271.395C21.8701 271.122 21.7568 270.765 21.7568 270.325C21.7568 269.885 21.8768 269.498 22.1168 269.165C22.3635 268.832 22.7068 268.575 23.1468 268.395C23.5935 268.215 24.1135 268.125 24.7068 268.125C25.2201 268.125 25.7068 268.198 26.1668 268.345C26.6268 268.492 27.0001 268.692 27.2868 268.945L26.7068 270.065C26.4068 269.832 26.0801 269.655 25.7268 269.535C25.3735 269.408 25.0201 269.345 24.6668 269.345C24.2401 269.345 23.9068 269.418 23.6668 269.565C23.4268 269.712 23.3068 269.918 23.3068 270.185C23.3068 270.365 23.3701 270.518 23.4968 270.645C23.6301 270.765 23.7968 270.865 23.9968 270.945C24.1968 271.018 24.4735 271.108 24.8268 271.215C25.3135 271.355 25.7101 271.495 26.0168 271.635C26.3301 271.768 26.5968 271.968 26.8168 272.235C27.0368 272.495 27.1468 272.835 27.1468 273.255C27.1468 273.942 26.8835 274.475 26.3568 274.855C25.8368 275.235 25.1068 275.425 24.1668 275.425ZM30.1191 269.425L29.9791 271.105H33.1591L33.0491 272.325H29.8891L29.7391 274.125H33.1191L33.0191 275.335H28.1191L28.6791 268.215H33.5891L33.4891 269.425H30.1191ZM36.1054 269.425L35.9654 271.105H39.1454L39.0354 272.325H35.8754L35.7254 274.125H39.1054L39.0054 275.335H34.1054L34.6654 268.215H39.5754L39.4754 269.425H36.1054ZM50.5242 268.215L49.9742 275.335H48.5942L48.8942 271.475L46.9542 275.335H45.9442L44.5942 271.505L44.2942 275.335H42.9242L43.4742 268.215H44.7142L46.5942 273.495L49.2942 268.215H50.5242ZM54.9001 275.435C54.2067 275.435 53.6001 275.298 53.0801 275.025C52.5667 274.745 52.1701 274.348 51.8901 273.835C51.6167 273.322 51.4801 272.715 51.4801 272.015C51.4801 271.235 51.6234 270.552 51.9101 269.965C52.2034 269.372 52.6134 268.915 53.1401 268.595C53.6734 268.275 54.2934 268.115 55.0001 268.115C55.6934 268.115 56.2967 268.255 56.8101 268.535C57.3301 268.808 57.7267 269.202 58.0001 269.715C58.2801 270.228 58.4201 270.835 58.4201 271.535C58.4201 272.315 58.2734 273.002 57.9801 273.595C57.6934 274.182 57.2834 274.635 56.7501 274.955C56.2234 275.275 55.6067 275.435 54.9001 275.435ZM54.8901 274.205C55.4967 274.205 55.9767 273.968 56.3301 273.495C56.6834 273.022 56.8601 272.368 56.8601 271.535C56.8601 270.835 56.6967 270.295 56.3701 269.915C56.0501 269.535 55.6001 269.345 55.0201 269.345C54.4001 269.345 53.9134 269.582 53.5601 270.055C53.2134 270.528 53.0401 271.185 53.0401 272.025C53.0401 272.725 53.2001 273.265 53.5201 273.645C53.8401 274.018 54.2967 274.205 54.8901 274.205ZM63.9193 272.305C64.106 272.365 64.2593 272.468 64.3793 272.615C64.506 272.762 64.6093 272.965 64.6893 273.225L65.3693 275.335H63.7293L62.9993 272.965C62.9393 272.778 62.836 272.648 62.6893 272.575C62.5493 272.502 62.3626 272.465 62.1293 272.465H61.1293L60.9093 275.335H59.3693L59.9193 268.215H63.2293C63.9626 268.215 64.536 268.395 64.9493 268.755C65.3626 269.115 65.5693 269.598 65.5693 270.205C65.5693 270.758 65.4326 271.215 65.1593 271.575C64.886 271.928 64.4726 272.172 63.9193 272.305ZM62.8893 271.275C63.2893 271.275 63.5893 271.192 63.7893 271.025C63.996 270.852 64.0993 270.605 64.0993 270.285C64.0993 269.992 64.0093 269.775 63.8293 269.635C63.656 269.488 63.3893 269.415 63.0293 269.415H61.3693L61.2293 271.275H62.8893ZM68.4394 269.425L68.2994 271.105H71.4794L71.3694 272.325H68.2094L68.0594 274.125H71.4394L71.3394 275.335H66.4394L66.9994 268.215H71.9094L71.8094 269.425H68.4394Z" fill="white"/>
</g>
<path d="M121.726 103.04V108.077H125.722C125.716 108 125.71 107.923 125.71 107.845V101.047C125.715 100.87 125.684 100.694 125.618 100.529C125.552 100.364 125.454 100.215 125.328 100.09C125.203 99.9643 125.053 99.866 124.888 99.8007C124.724 99.7354 124.547 99.7045 124.37 99.7098H118.953L122.681 89.9156C122.742 89.7479 122.773 89.5712 122.773 89.393C122.777 87.5357 122.789 85.4252 122.803 85.1716C122.96 82.1467 123.828 79.2015 125.338 76.5756C126.848 73.9498 128.956 71.7174 131.492 70.0601C127.932 71.3494 124.831 73.6595 122.577 76.7016C120.323 79.7437 119.015 83.3827 118.818 87.1638C118.805 87.4174 118.793 89.5279 118.789 91.3852C118.788 91.5634 118.757 91.7401 118.697 91.9078L114.969 101.702H120.386C120.563 101.697 120.739 101.727 120.904 101.793C121.069 101.858 121.219 101.956 121.344 102.082C121.47 102.207 121.569 102.356 121.634 102.521C121.7 102.686 121.731 102.862 121.726 103.04Z" fill="#D4E1F4"/>
<path d="M152.866 120.229H140.875L139.407 114.379C139.171 113.434 138.627 112.594 137.86 111.994C137.093 111.393 136.147 111.067 135.173 111.065H135.153C133.034 111.065 129.412 111.065 129.05 111.077C128.988 111.079 128.927 111.075 128.866 111.073V113.057C129.683 113.057 130.5 113.057 131.168 113.057H131.188C132.162 113.059 133.108 113.385 133.875 113.986C134.643 114.586 135.187 115.426 135.422 116.371L136.891 122.222H153.312C153.181 121.661 153.028 120.986 152.866 120.229Z" fill="#D4E1F4"/>
<path d="M101.678 93.7008C101.617 93.5331 101.586 93.3564 101.586 93.1782C101.582 91.3209 101.57 89.2104 101.556 88.9568C101.359 85.1757 100.052 81.5366 97.7977 78.4945C95.5436 75.4524 92.4427 73.1423 88.8827 71.853C91.4183 73.5102 93.5268 75.7426 95.0368 78.3685C96.5468 80.9943 97.4157 83.9396 97.5727 86.9646C97.5862 87.2182 97.598 89.3287 97.6023 91.186C97.6027 91.3642 97.6338 91.541 97.6942 91.7086L101.422 101.503H96.0046C95.8274 101.497 95.6509 101.528 95.486 101.594C95.3212 101.659 95.1714 101.757 95.0458 101.882C94.9203 102.008 94.8217 102.157 94.7561 102.322C94.6904 102.487 94.6591 102.663 94.6641 102.84V109.638C94.6472 110.509 94.2865 111.337 93.6607 111.943C93.0349 112.548 92.1949 112.882 91.3242 112.87C90.9616 112.859 87.3398 112.858 85.2211 112.858H85.2012C84.227 112.859 83.2812 113.186 82.514 113.787C81.7468 114.387 81.2023 115.227 80.967 116.172L79.4995 122.022H67.5088C67.3462 122.779 67.1938 123.454 67.0631 124.014H83.4839L84.9522 118.164C85.1875 117.219 85.7319 116.379 86.4989 115.779C87.2659 115.179 88.2115 114.852 89.1856 114.85H89.2055C91.324 114.85 94.946 114.85 95.3085 114.862C96.1793 114.874 97.0193 114.54 97.6451 113.935C98.2709 113.329 98.6316 112.501 98.6484 111.63V104.832C98.6435 104.655 98.6748 104.479 98.7404 104.314C98.8061 104.149 98.9047 104 99.0302 103.875C99.1557 103.749 99.3055 103.651 99.4704 103.586C99.6353 103.52 99.8117 103.49 99.989 103.495H105.406L101.678 93.7008Z" fill="#D4E1F4"/>
<path d="M114.437 104.235H119.347V108.198H119.255C118.195 108.208 117.182 108.638 116.438 109.394C115.694 110.15 115.28 111.169 115.287 112.229C115.293 113.29 115.72 114.304 116.473 115.05C117.226 115.797 118.244 116.214 119.304 116.212H119.35L127.655 116.084C127.837 116.082 128.015 116.038 128.177 115.955C128.339 115.873 128.48 115.755 128.589 115.61C129.509 115.606 130.487 115.602 131.337 115.598H131.345C131.741 115.597 132.125 115.729 132.438 115.973C132.75 116.216 132.972 116.557 133.068 116.942L134.801 123.835C134.866 124.093 135.015 124.322 135.225 124.486C135.435 124.649 135.694 124.738 135.96 124.738H155.251C155.435 124.738 155.616 124.696 155.78 124.615C155.944 124.534 156.088 124.417 156.2 124.271C156.311 124.126 156.388 123.957 156.424 123.777C156.46 123.598 156.454 123.412 156.407 123.235C156.375 123.114 153.194 111.056 153.896 103.516C154.057 101.784 155.61 97.6417 156.224 96.1191C157.822 93.0532 158.616 89.6315 158.53 86.175C158.444 82.7186 157.481 79.3406 155.732 76.358C154.036 73.4089 151.616 70.9405 148.702 69.1858C145.787 67.431 142.473 66.4478 139.073 66.3287C138.886 66.322 138.698 66.3176 138.51 66.3156C132.867 66.251 127.417 68.3668 123.296 72.2219C119.175 76.077 116.701 81.374 116.39 87.0084C116.368 87.367 116.359 90.1822 116.356 91.16L112.461 101.365C112.338 101.685 112.296 102.03 112.336 102.371C112.377 102.711 112.5 103.037 112.695 103.319C112.889 103.602 113.149 103.833 113.453 103.992C113.757 104.152 114.094 104.235 114.437 104.235H114.437ZM119.317 113.821H119.299C118.981 113.821 118.67 113.727 118.405 113.551C118.14 113.376 117.933 113.126 117.81 112.833C117.686 112.54 117.652 112.217 117.711 111.904C117.77 111.592 117.92 111.304 118.142 111.076C118.288 110.925 118.463 110.804 118.656 110.72C118.849 110.636 119.057 110.592 119.268 110.589H126.378L126.423 113.712L119.317 113.821ZM153.665 77.5597C155.215 80.2023 156.066 83.1961 156.138 86.2589C156.21 89.3216 155.501 92.3522 154.077 95.0648C154.059 95.0989 154.043 95.134 154.028 95.1694C153.795 95.7472 151.74 100.876 151.515 103.294C151.202 106.656 151.542 111.142 152.528 116.627C152.956 119.016 153.412 121.05 153.721 122.348H136.891L135.385 116.359C135.177 115.526 134.717 114.779 134.067 114.219C133.417 113.659 132.61 113.314 131.756 113.231L132.966 113.223C135.126 113.203 137.19 112.326 138.704 110.784C140.217 109.242 141.056 107.162 141.036 105.002L141.02 103.298C142.825 103.059 144.479 102.166 145.67 100.789C146.86 99.4115 147.504 97.6454 147.48 95.8251L147.469 95.0449C147.441 93.2875 146.794 91.5964 145.641 90.2697C144.488 88.943 142.903 88.066 141.167 87.7934V68.9315C143.761 69.3497 146.229 70.3412 148.391 71.8338C150.553 73.3264 152.354 75.2826 153.665 77.5597ZM139.983 90.0951H140.03C141.357 90.0981 142.629 90.6217 143.573 91.5531C144.517 92.4846 145.058 93.7495 145.079 95.0756L145.089 95.8557C145.098 96.5205 144.976 97.1805 144.729 97.7979C144.482 98.4152 144.116 98.9778 143.651 99.4532C143.186 99.9287 142.632 100.308 142.021 100.568C141.409 100.829 140.752 100.967 140.087 100.973H140.04C138.714 100.97 137.441 100.446 136.497 99.515C135.553 98.5835 135.012 97.3186 134.992 95.9924L134.981 95.2123C134.972 94.5475 135.094 93.8875 135.341 93.2701C135.588 92.6528 135.954 92.0903 136.419 91.6148C136.884 91.1394 137.438 90.7604 138.049 90.4996C138.661 90.2388 139.318 90.1014 139.983 90.0951ZM118.666 91.8084C118.718 91.6732 118.745 91.5297 118.745 91.3849C118.749 89.515 118.761 87.3963 118.775 87.1457C119.037 82.1594 121.206 77.4645 124.832 74.0321C128.459 70.5998 133.266 68.6926 138.259 68.705C138.332 68.705 138.408 68.705 138.481 68.7062C138.581 68.7062 138.678 68.7106 138.776 68.713V87.8105C137.028 88.1093 135.445 89.0224 134.311 90.3853C133.176 91.7483 132.566 93.4714 132.59 95.2443L132.601 96.0245C132.628 97.7342 133.241 99.3827 134.339 100.694C135.436 102.005 136.95 102.9 138.629 103.228L138.645 105.024C138.658 106.549 138.065 108.017 136.997 109.106C135.929 110.195 134.473 110.816 132.948 110.833L128.773 110.858L128.751 109.376C128.747 109.062 128.619 108.763 128.395 108.542C128.172 108.322 127.87 108.198 127.556 108.198H121.738V103.04C121.738 102.723 121.612 102.419 121.388 102.194C121.164 101.97 120.86 101.844 120.543 101.844H114.836L118.666 91.8084Z" fill="#0635C9"/>
<path d="M67.8942 104.431C68.5634 111.618 65.5295 123.12 65.4988 123.235C65.4516 123.412 65.4458 123.598 65.4817 123.777C65.5177 123.957 65.5945 124.126 65.7061 124.271C65.8178 124.417 65.9614 124.534 66.1258 124.615C66.2902 124.696 66.471 124.738 66.6543 124.738H85.0689C85.3351 124.738 85.5938 124.649 85.8038 124.486C86.0138 124.322 86.1631 124.093 86.2281 123.835L87.8828 117.255C87.971 116.898 88.1767 116.582 88.4669 116.356C88.757 116.131 89.1146 116.01 89.482 116.013C94.3515 116.033 95.1216 116.043 95.2268 116.047C95.9739 116.067 96.7176 115.939 97.4143 115.668C98.1111 115.398 98.7467 114.991 99.2841 114.472C99.8233 113.952 100.252 113.329 100.543 112.64C100.835 111.95 100.984 111.209 100.981 110.46V105.167H105.613C105.949 105.167 106.28 105.085 106.578 104.929C106.876 104.772 107.131 104.546 107.321 104.269C107.512 103.992 107.632 103.673 107.672 103.34C107.712 103.006 107.671 102.667 107.551 102.353L103.836 92.6218C103.833 91.6791 103.824 89.0096 103.804 88.6739C103.52 83.2759 101.157 78.1974 97.2101 74.5038C93.2634 70.8102 88.0398 68.7883 82.6348 68.8624C82.4543 68.8644 82.2746 68.8686 82.0947 68.8751C78.8401 68.9891 75.6683 69.9303 72.8783 71.61C70.0883 73.2896 67.7722 75.6524 66.1485 78.4753C64.4746 81.3299 63.5532 84.5628 63.4707 87.871C63.3881 91.1791 64.1471 94.454 65.6765 97.3885C66.262 98.8414 67.7408 102.784 67.8942 104.431ZM68.215 79.6772C69.6365 77.2041 71.6646 75.134 74.108 73.662C76.5514 72.19 79.3295 71.3648 82.1802 71.2642C82.3396 71.2586 82.4999 71.2546 82.6611 71.2528C87.451 71.1861 92.0806 72.9776 95.5778 76.2513C99.0751 79.525 101.168 84.0262 101.418 88.8101C101.431 89.0456 101.442 91.0655 101.446 92.8465C101.447 92.9914 101.474 93.1349 101.526 93.2701L105.155 102.776H99.7854C99.4683 102.776 99.1643 102.902 98.9401 103.126C98.716 103.35 98.59 103.654 98.59 103.971V110.46C98.59 110.888 98.5042 111.311 98.3378 111.705C98.1714 112.099 97.9277 112.455 97.6211 112.753C97.3145 113.051 96.9513 113.285 96.5529 113.44C96.1545 113.595 95.729 113.669 95.3015 113.657C95.0481 113.649 93.0936 113.637 89.4921 113.623H89.475C88.5763 113.621 87.7031 113.921 86.9944 114.473C86.2857 115.026 85.7824 115.8 85.5647 116.672L84.1371 122.348H68.1843C69.008 118.898 70.8415 110.298 70.2747 104.21C70.0591 101.894 68.0944 96.9905 67.8713 96.4388C67.8567 96.4031 67.8406 96.3682 67.8229 96.334C66.468 93.7529 65.793 90.8692 65.8616 87.9548C65.9302 85.0405 66.7401 82.1917 68.215 79.6772Z" fill="#0635C9"/>
<path d="M87.273 67.4466C87.3055 67.6002 87.3679 67.7458 87.4567 67.8753C87.5455 68.0048 87.6589 68.1155 87.7905 68.2011C87.9221 68.2867 88.0693 68.3456 88.2236 68.3743C88.378 68.403 88.5364 68.4011 88.69 68.3686L97.8551 66.4286C98.0864 66.3796 98.298 66.2632 98.4631 66.094C98.6283 65.9247 98.7395 65.7103 98.7828 65.4779C98.8261 65.2454 98.7994 65.0054 98.7062 64.7881C98.6131 64.5708 98.4575 64.386 98.2593 64.2571L93.8472 61.3863C95.9671 58.8132 98.5919 56.7017 101.559 55.1822C104.527 53.6627 107.774 52.7674 111.101 52.5515C114.428 52.3357 117.764 52.8038 120.903 53.9272C124.042 55.0505 126.918 56.8051 129.353 59.0828C129.584 59.2992 129.892 59.4146 130.209 59.4038C130.526 59.393 130.826 59.2568 131.042 59.0251C131.258 58.7934 131.374 58.4853 131.363 58.1684C131.352 57.8516 131.216 57.552 130.984 57.3356C128.295 54.8195 125.115 52.885 121.644 51.6528C118.173 50.4207 114.485 49.9175 110.811 50.1745C107.137 50.4316 103.555 51.4434 100.289 53.1469C97.0235 54.8503 94.1442 57.2087 91.8309 60.0749L87.1535 57.032C86.9553 56.9031 86.7233 56.8358 86.4869 56.8387C86.2505 56.8416 86.0203 56.9145 85.8254 57.0483C85.6304 57.182 85.4795 57.3706 85.3917 57.5901C85.3039 57.8096 85.2832 58.0502 85.3322 58.2815L87.273 67.4466ZM91.3853 62.6368L91.3904 62.641C91.3998 62.648 91.4104 62.6528 91.4199 62.6593L94.5367 64.6874L89.3648 65.7829L88.2691 60.6096L91.3853 62.6368Z" fill="#1AE5BE"/>
<path d="M104.005 136.559C108.002 136.558 111.947 135.663 115.552 133.939C119.157 132.214 122.331 129.705 124.84 126.595L129.517 129.638C129.715 129.767 129.947 129.834 130.183 129.831C130.42 129.828 130.65 129.755 130.845 129.621C131.04 129.488 131.191 129.299 131.278 129.08C131.366 128.86 131.387 128.62 131.338 128.388L129.398 119.224C129.366 119.071 129.303 118.925 129.214 118.795C129.126 118.666 129.012 118.555 128.881 118.47C128.749 118.384 128.602 118.325 128.448 118.296C128.293 118.268 128.135 118.27 127.981 118.302L118.817 120.242C118.586 120.291 118.374 120.408 118.209 120.577C118.044 120.746 117.933 120.96 117.889 121.193C117.846 121.425 117.873 121.665 117.966 121.883C118.059 122.1 118.215 122.285 118.413 122.414L122.825 125.285C120.705 127.858 118.081 129.969 115.113 131.489C112.145 133.009 108.898 133.904 105.571 134.12C102.244 134.336 98.9077 133.867 95.7686 132.744C92.6295 131.621 89.7539 129.866 87.3192 127.588C87.0875 127.372 86.7794 127.256 86.4625 127.267C86.1457 127.278 85.8461 127.414 85.6297 127.646C85.4134 127.878 85.2979 128.186 85.3087 128.503C85.3195 128.819 85.4557 129.119 85.6874 129.335C90.6584 133.976 97.205 136.557 104.005 136.559ZM127.307 120.887L128.403 126.059L125.286 124.033L125.281 124.029C125.242 124.001 125.203 123.975 125.161 123.951L122.135 121.982L127.307 120.887Z" fill="#1AE5BE"/>
<defs>
<filter id="filter0_d" x="0" y="0.334839" width="221.899" height="294" filterUnits="userSpaceOnUse" color-interpolation-filters="sRGB">
<feFlood flood-opacity="0" result="BackgroundImageFix"/>
<feColorMatrix in="SourceAlpha" type="matrix" values="0 0 0 0 0 0 0 0 0 0 0 0 0 0 0 0 0 0 127 0" result="hardAlpha"/>
<feOffset dy="4"/>
<feGaussianBlur stdDeviation="2"/>
<feComposite in2="hardAlpha" operator="out"/>
<feColorMatrix type="matrix" values="0 0 0 0 0 0 0 0 0 0 0 0 0 0 0 0 0 0 0.5 0"/>
<feBlend mode="normal" in2="BackgroundImageFix" result="effect1_dropShadow"/>
<feBlend mode="normal" in="SourceGraphic" in2="effect1_dropShadow" result="shape"/>
</filter>
<filter id="filter1_b" x="0" y="-3.66516" width="221.899" height="294" filterUnits="userSpaceOnUse" color-interpolation-filters="sRGB">
<feFlood flood-opacity="0" result="BackgroundImageFix"/>
<feGaussianBlur in="BackgroundImage" stdDeviation="2"/>
<feComposite in2="SourceAlpha" operator="in" result="effect1_backgroundBlur"/>
<feBlend mode="normal" in="SourceGraphic" in2="effect1_backgroundBlur" result="shape"/>
</filter>
</defs>
</svg>
