<svg width="120" height="121" viewBox="0 0 120 121" fill="none" xmlns="http://www.w3.org/2000/svg">
<path d="M18.75 56.325C18.7517 55.7641 18.8964 55.2129 19.1704 54.7235C19.4444 54.2341 19.8386 53.8226 20.3159 53.5279L30.4688 47.374V41.5366L16.0971 50.2467C15.6199 50.5414 15.2256 50.9528 14.9516 51.4423C14.6776 51.9317 14.533 52.4828 14.5312 53.0437V55.6687L18.75 58.2469V56.325Z" fill="#D4E1F4"/>
<path d="M19.2188 98.6439V61.8285L14.5312 58.9637V98.6434C14.5336 101.033 15.4836 103.323 17.1728 105.013C18.862 106.702 21.1525 107.652 23.5416 107.655H28.2291C25.8401 107.652 23.5497 106.702 21.8605 105.013C20.1713 103.323 19.2212 101.033 19.2188 98.6439Z" fill="#D4E1F4"/>
<path d="M108.281 98.6439V53.0436C108.278 52.0014 108.009 50.9773 107.5 50.0681C106.99 49.1588 106.257 48.3945 105.37 47.8473L90.0544 38.3959C90.0072 38.3666 89.9583 38.3403 89.9079 38.3169L89.5312 38.1421V34.0002C89.5313 33.6535 89.4032 33.3191 89.1717 33.0611L69.1245 10.7118C69.113 10.6991 69.0989 10.6895 69.087 10.6773C68.9555 10.5281 68.7937 10.4087 68.6125 10.3268C68.4312 10.245 68.2346 10.2027 68.0358 10.2027C67.9757 10.2031 67.9158 10.2073 67.8562 10.2154L67.7991 10.2097C67.7523 10.205 67.7054 10.2027 67.6584 10.2027H39.308C36.9645 10.2054 34.7177 11.1375 33.0606 12.7946C31.4035 14.4517 30.4714 16.6984 30.4688 19.0419V38.2475L14.6348 47.844C13.7466 48.3911 13.0126 49.1557 12.5023 50.0656C11.992 50.9754 11.7223 52.0005 11.7188 53.0436V98.6439C11.722 101.779 12.9686 104.784 15.1851 107.001C17.4016 109.217 20.4069 110.464 23.5416 110.468H96.4584C99.5931 110.464 102.598 109.217 104.815 107.001C107.031 104.784 108.278 101.779 108.281 98.6439ZM103.898 50.2438C104.377 50.5383 104.772 50.9501 105.047 51.44C105.322 51.9299 105.467 52.4819 105.469 53.0436V55.6686L89.5312 65.4083V41.3779L103.898 50.2438ZM69.442 15.2779L82.9097 30.2919H75.4688C73.8708 30.2901 72.3388 29.6545 71.209 28.5245C70.0791 27.3945 69.4436 25.8624 69.442 24.2645V15.2779ZM39.308 13.0145H66.6295V24.2645C66.632 26.6081 67.564 28.8551 69.2211 30.5123C70.8782 32.1696 73.1251 33.1018 75.4688 33.1044H85.4325L86.7188 34.5386V67.1261L60 83.4543L33.2812 67.1261V19.0419C33.2829 17.444 33.9183 15.9119 35.0482 14.7819C36.178 13.6519 37.71 13.0163 39.308 13.0145ZM16.0971 50.2466L30.4688 41.5365V65.4074L14.5312 55.6677V53.0427C14.5331 52.482 14.6779 51.931 14.9519 51.4417C15.2258 50.9525 15.62 50.5412 16.0971 50.2466ZM14.5312 98.6439V58.9637L30.8852 68.9579C31.0405 69.1118 31.2295 69.2272 31.4372 69.2952L59.2666 86.3022C59.4874 86.4371 59.7412 86.5085 60 86.5085C60.2588 86.5085 60.5126 86.4371 60.7334 86.3022L88.5628 69.2952C88.7706 69.2273 88.9596 69.1118 89.1148 68.9579L105.469 58.9637V98.6434C105.466 101.032 104.516 103.323 102.827 105.013C101.138 106.702 98.8475 107.652 96.4584 107.655H23.5416C21.1526 107.652 18.8622 106.702 17.173 105.013C15.4838 103.323 14.5337 101.033 14.5312 98.6439Z" fill="#0635C9"/>
<path d="M56.5312 57.6367C56.7696 57.9159 57.1078 58.0908 57.4734 58.124C57.8391 58.1572 58.2032 58.0461 58.488 57.8144L66.8953 50.9746C67.1846 50.7392 67.3685 50.3985 67.4067 50.0275C67.4448 49.6565 67.334 49.2855 67.0986 48.9961C66.8632 48.7068 66.5225 48.5229 66.1515 48.4847C65.7804 48.4466 65.4094 48.5574 65.1201 48.7928L57.779 54.7661L55.0603 51.5828C54.818 51.2992 54.4731 51.1234 54.1013 51.0941C53.7294 51.0648 53.3612 51.1844 53.0776 51.4266C52.7939 51.6688 52.6181 52.0138 52.5888 52.3856C52.5595 52.7574 52.6791 53.1257 52.9213 53.4093L56.5312 57.6367Z" fill="#1AE5BE"/>
<path d="M59.9999 70.9539C63.4908 70.9539 66.9033 69.9187 69.8059 67.9793C72.7085 66.0398 74.9708 63.2832 76.3067 60.0581C77.6426 56.8329 77.9921 53.284 77.3111 49.8602C76.6301 46.4364 74.949 43.2914 72.4806 40.8229C70.0121 38.3545 66.8672 36.6735 63.4433 35.9924C60.0195 35.3114 56.4706 35.6609 53.2454 36.9968C50.0203 38.3327 47.2637 40.595 45.3242 43.4976C43.3848 46.4002 42.3496 49.8127 42.3496 53.3036C42.3549 57.9831 44.2162 62.4695 47.5251 65.7784C50.834 69.0874 55.3204 70.9486 59.9999 70.9539ZM59.9999 38.4658C62.9346 38.4658 65.8033 39.336 68.2434 40.9664C70.6834 42.5968 72.5852 44.9141 73.7083 47.6254C74.8313 50.3367 75.1252 53.32 74.5526 56.1983C73.9801 59.0766 72.5669 61.7204 70.4918 63.7955C68.4167 65.8706 65.7729 67.2838 62.8946 67.8563C60.0164 68.4288 57.033 68.135 54.3217 67.0119C51.6105 65.8889 49.2931 63.9871 47.6627 61.547C46.0323 59.107 45.1621 56.2382 45.1621 53.3036C45.1666 49.3697 46.7313 45.5983 49.5129 42.8166C52.2946 40.0349 56.0661 38.4702 59.9999 38.4658Z" fill="#1AE5BE"/>
<path d="M85.7399 53.3036C85.7399 52.9306 85.5918 52.5729 85.328 52.3092C85.0643 52.0455 84.7066 51.8973 84.3337 51.8973H81.2324C80.8595 51.8973 80.5018 52.0455 80.2381 52.3092C79.9743 52.5729 79.8262 52.9306 79.8262 53.3036C79.8262 53.6765 79.9743 54.0342 80.2381 54.298C80.5018 54.5617 80.8595 54.7098 81.2324 54.7098H84.3337C84.7066 54.7098 85.0643 54.5617 85.328 54.298C85.5918 54.0342 85.7399 53.6765 85.7399 53.3036Z" fill="#1AE5BE"/>
<path d="M34.4944 53.3036C34.4944 53.6765 34.6425 54.0342 34.9063 54.298C35.17 54.5617 35.5277 54.7098 35.9006 54.7098H39.0019C39.3748 54.7098 39.7325 54.5617 39.9963 54.298C40.26 54.0342 40.4081 53.6765 40.4081 53.3036C40.4081 52.9306 40.26 52.5729 39.9963 52.3092C39.7325 52.0455 39.3748 51.8973 39.0019 51.8973H35.9006C35.5277 51.8973 35.17 52.0455 34.9063 52.3092C34.6425 52.5729 34.4944 52.9306 34.4944 53.3036Z" fill="#1AE5BE"/>
<path d="M78.0407 62.1396L82.3687 63.6311C82.7213 63.7527 83.1078 63.7291 83.4431 63.5657C83.7783 63.4023 84.035 63.1124 84.1565 62.7597C84.278 62.4071 84.2545 62.0206 84.0911 61.6853C83.9276 61.3501 83.6377 61.0934 83.2851 60.9719L78.9569 59.4806C78.6052 59.3628 78.2213 59.3887 77.8886 59.5526C77.556 59.7166 77.3015 60.0053 77.1807 60.3559C77.0599 60.7066 77.0825 61.0907 77.2436 61.4248C77.4046 61.7588 77.6911 62.0157 78.0407 62.1396Z" fill="#1AE5BE"/>
<path d="M41.2773 47.1276C41.4524 47.1896 41.6379 47.2163 41.8233 47.2062C42.0088 47.1961 42.1903 47.1494 42.3576 47.0688C42.5249 46.9881 42.6745 46.8751 42.7979 46.7364C42.9212 46.5976 43.0159 46.4357 43.0764 46.2602C43.1369 46.0846 43.162 45.8988 43.1503 45.7135C43.1386 45.5282 43.0903 45.347 43.0082 45.1804C42.9262 45.0139 42.8119 44.8652 42.6721 44.743C42.5322 44.6209 42.3696 44.5276 42.1935 44.4686L37.8655 42.9771C37.5129 42.8555 37.1264 42.8791 36.7911 43.0425C36.4559 43.2059 36.1992 43.4958 36.0777 43.8485C35.9562 44.2011 35.9797 44.5876 36.1431 44.9229C36.3066 45.2581 36.5965 45.5148 36.9491 45.6363L41.2773 47.1276Z" fill="#1AE5BE"/>
<path d="M78.7169 47.8715C78.8586 47.8714 78.9995 47.8499 79.1348 47.8077L83.5064 46.4483C83.6827 46.3935 83.8465 46.3045 83.9885 46.1863C84.1304 46.0682 84.2477 45.9232 84.3336 45.7598C84.4195 45.5963 84.4724 45.4175 84.4892 45.2336C84.5061 45.0497 84.4865 44.8643 84.4317 44.6879C84.3768 44.5116 84.2878 44.3478 84.1697 44.2058C84.0515 44.0639 83.9066 43.9466 83.7431 43.8607C83.5797 43.7748 83.4009 43.7219 83.217 43.7051C83.0331 43.6882 82.8476 43.7078 82.6713 43.7626L78.2997 45.122C77.9783 45.2216 77.7032 45.4333 77.5245 45.7184C77.3458 46.0036 77.2752 46.3434 77.3257 46.6762C77.3762 47.0089 77.5444 47.3125 77.7996 47.5318C78.0549 47.7512 78.3804 47.8717 78.7169 47.8715Z" fill="#1AE5BE"/>
<path d="M37.1451 62.9081C37.2868 62.908 37.4277 62.8865 37.563 62.8443L41.9346 61.485C42.2907 61.3742 42.5883 61.1265 42.7618 60.7964C42.9354 60.4663 42.9706 60.0807 42.8599 59.7246C42.7492 59.3684 42.5015 59.0709 42.1713 58.8973C41.8412 58.7238 41.4557 58.6885 41.0995 58.7993L36.7279 60.1586C36.4065 60.2583 36.1314 60.4699 35.9527 60.7551C35.774 61.0403 35.7035 61.3801 35.754 61.7128C35.8044 62.0455 35.9726 62.3491 36.2279 62.5685C36.4831 62.7878 36.8086 62.9083 37.1451 62.9081Z" fill="#1AE5BE"/>
</svg>
