<svg width="65" height="39" viewBox="0 0 65 39" fill="none" xmlns="http://www.w3.org/2000/svg">
<path d="M9.64 0.456V9H7.432V5.544H3.976V9H1.768V0.456H3.976V3.78H7.432V0.456H9.64ZM21.9382 7.236H18.1462L17.3902 9H15.1342L19.1302 0.456H20.9062L24.9142 9H22.6942L21.9382 7.236ZM21.2062 5.544L20.0422 2.844L18.8782 5.544H21.2062ZM38.0419 0.456L34.1539 9H32.3659L28.4779 0.456H30.8179L33.2779 6.192L35.7739 0.456H38.0419ZM43.5336 0.456H49.6296V2.184H45.7296V3.792H49.3776V5.52H45.7296V7.272H49.6296V9H43.5336V0.456ZM6.076 20.736V24H3.808V20.724L0.22 15.456H2.764L4.924 18.864L7.12 15.456H9.688L6.076 20.736ZM18.254 24.108C17.382 24.108 16.622 23.932 15.974 23.58C15.326 23.22 14.826 22.708 14.474 22.044C14.13 21.38 13.958 20.604 13.958 19.716C13.958 18.828 14.134 18.056 14.486 17.4C14.838 16.744 15.334 16.24 15.974 15.888C16.622 15.528 17.382 15.348 18.254 15.348C19.126 15.348 19.882 15.528 20.522 15.888C21.17 16.24 21.666 16.744 22.01 17.4C22.354 18.056 22.526 18.828 22.526 19.716C22.526 20.604 22.354 21.38 22.01 22.044C21.666 22.708 21.17 23.22 20.522 23.58C19.882 23.932 19.126 24.108 18.254 24.108ZM18.254 22.392C18.894 22.392 19.394 22.164 19.754 21.708C20.122 21.252 20.306 20.588 20.306 19.716C20.306 18.852 20.122 18.196 19.754 17.748C19.394 17.292 18.894 17.064 18.254 17.064C17.614 17.064 17.114 17.288 16.754 17.736C16.394 18.184 16.214 18.844 16.214 19.716C16.214 20.596 16.394 21.264 16.754 21.72C17.114 22.168 17.614 22.392 18.254 22.392ZM32.5982 24.108C31.3502 24.108 30.4062 23.796 29.7662 23.172C29.1262 22.54 28.8062 21.616 28.8062 20.4V15.456H31.0022V20.484C31.0022 21.1 31.1382 21.572 31.4102 21.9C31.6902 22.228 32.0862 22.392 32.5982 22.392C33.1022 22.392 33.4902 22.228 33.7622 21.9C34.0342 21.564 34.1702 21.092 34.1702 20.484V15.456H36.3902V20.4C36.3902 21.6 36.0622 22.52 35.4062 23.16C34.7582 23.792 33.8222 24.108 32.5982 24.108ZM9.64 30.456V39H7.432V35.544H3.976V39H1.768V30.456H3.976V33.78H7.432V30.456H9.64ZM16.1782 30.456H22.2742V32.184H18.3742V33.792H22.0222V35.52H18.3742V37.272H22.2742V39H16.1782V30.456ZM34.0749 37.236H30.2829L29.5269 39H27.2709L31.2669 30.456H33.0429L37.0509 39H34.8309L34.0749 37.236ZM33.3429 35.544L32.1789 32.844L31.0149 35.544H33.3429ZM49.9655 39H47.5775L46.4735 36.156C46.3455 35.836 46.0455 35.676 45.5735 35.676H44.7575V39H42.5375V30.456H46.5095C47.5415 30.456 48.3175 30.68 48.8375 31.128C49.3575 31.568 49.6175 32.2 49.6175 33.024C49.6175 33.6 49.4615 34.1 49.1495 34.524C48.8455 34.94 48.4135 35.236 47.8535 35.412C48.0935 35.46 48.3095 35.572 48.5015 35.748C48.6935 35.924 48.8455 36.16 48.9575 36.456L49.9655 39ZM46.1495 33.996C46.6295 33.996 46.9775 33.924 47.1935 33.78C47.4095 33.628 47.5175 33.396 47.5175 33.084C47.5175 32.756 47.4095 32.52 47.1935 32.376C46.9855 32.232 46.6375 32.16 46.1495 32.16H44.7335V33.996H46.1495ZM56.1039 30.456H59.5959C60.5399 30.456 61.3519 30.628 62.0319 30.972C62.7199 31.308 63.2439 31.796 63.6039 32.436C63.9719 33.076 64.1559 33.836 64.1559 34.716C64.1559 35.604 63.9759 36.372 63.6159 37.02C63.2559 37.66 62.7319 38.152 62.0439 38.496C61.3639 38.832 60.5479 39 59.5959 39H56.1039V30.456ZM59.4399 37.2C60.2719 37.2 60.8919 36.996 61.2999 36.588C61.7159 36.172 61.9239 35.548 61.9239 34.716C61.9239 33.076 61.0959 32.256 59.4399 32.256H58.3599V37.2H59.4399Z" fill="black"/>
</svg>
