<svg width="113" height="114" viewBox="0 0 113 114" fill="none" xmlns="http://www.w3.org/2000/svg">
<path d="M51.5531 86.413H44.6365V102.634H51.5531V86.413Z" fill="#D4E1F4"/>
<path d="M43.9554 69.4092C41.1024 66.8423 38.8189 63.7061 37.2521 60.2026C35.6854 56.6992 34.8701 52.9063 34.8589 49.0686C34.8536 45.4074 35.5878 41.7829 37.0176 38.4125C38.4474 35.0421 40.5432 31.9952 43.1794 29.4547C47.6247 25.1176 53.3831 22.3776 59.5525 21.6638C58.5134 21.538 57.4681 21.4692 56.4214 21.4577C56.3331 21.4577 56.2448 21.4577 56.1577 21.4577C48.7717 21.4266 41.6692 24.299 36.3813 29.4558C33.7451 31.9963 31.6493 35.0432 30.2195 38.4136C28.7897 41.784 28.0555 45.4085 28.0608 49.0697C28.0721 52.9075 28.8874 56.7003 30.4542 60.2037C32.021 63.7072 34.3045 66.8434 37.1575 69.4103C41.4068 73.262 44.0442 78.5768 44.5414 84.2903H51.3391C50.8422 78.5764 48.2049 73.2611 43.9554 69.4092Z" fill="#D4E1F4"/>
<path d="M35.956 71.3099C37.869 73.0847 39.3937 75.2366 40.4339 77.6299C41.4741 80.0231 42.0072 82.6059 41.9997 85.2155V99.4934C42.0015 101.011 42.6051 102.466 43.6782 103.539C44.7514 104.612 46.2063 105.216 47.7239 105.218H54.8701V109.605C54.8701 109.956 55.0096 110.293 55.2579 110.541C55.5062 110.79 55.8431 110.929 56.1943 110.929C56.5455 110.929 56.8823 110.79 57.1306 110.541C57.379 110.293 57.5185 109.956 57.5185 109.605V105.218H64.6646C66.1823 105.216 67.6373 104.612 68.7104 103.539C69.7836 102.466 70.3873 101.011 70.389 99.4934V85.1952C70.4082 82.5567 70.9685 79.9502 72.0352 77.5369C73.1019 75.1236 74.6524 72.9548 76.5908 71.1646C79.6925 68.2719 82.1449 64.7537 83.7856 60.8426C85.4264 56.9315 86.2181 52.7167 86.1086 48.4768C85.9557 42.1011 83.7488 35.945 79.8161 30.9243C79.7093 30.787 79.5765 30.6721 79.4252 30.5862C79.274 30.5002 79.1073 30.4449 78.9347 30.4234C78.762 30.4019 78.5869 30.4147 78.4192 30.4609C78.2515 30.5071 78.0945 30.5859 77.9573 30.6928C77.8201 30.7997 77.7052 30.9326 77.6194 31.0839C77.5335 31.2351 77.4783 31.4019 77.4569 31.5745C77.4355 31.7471 77.4483 31.9223 77.4946 32.09C77.5409 32.2576 77.6198 32.4146 77.7267 32.5517C81.3103 37.1262 83.3214 42.7353 83.461 48.5446C83.5605 52.4093 82.8384 56.2511 81.3427 59.816C79.847 63.3809 77.6116 66.5877 74.7843 69.2244C70.666 73.0414 68.1616 78.2876 67.7832 83.8899H44.6056C44.2821 78.342 41.8245 73.1343 37.7475 69.3577C33.7008 65.6424 30.8703 60.7917 29.6265 55.4407C28.3828 50.0898 28.7838 44.488 30.777 39.3687C32.7702 34.2495 36.2628 29.8514 40.7974 26.7503C45.332 23.6492 50.6974 21.9897 56.191 21.9889C56.2766 21.9889 56.362 21.9889 56.4476 21.9889C62.2483 22.032 67.8811 23.9409 72.5128 27.4332C72.7938 27.6439 73.147 27.7344 73.4946 27.6847C73.8423 27.6351 74.156 27.4493 74.3667 27.1684C74.5775 26.8874 74.6679 26.5342 74.6183 26.1865C74.5686 25.8389 74.3829 25.5252 74.1019 25.3144C69.0189 21.4828 62.8378 19.3886 56.4726 19.3418C56.3787 19.3409 56.285 19.3405 56.1914 19.3405C50.1641 19.3409 44.2774 21.1614 39.3021 24.5636C34.3268 27.9658 30.4948 32.7911 28.3079 38.4077C26.1209 44.0242 25.681 50.1703 27.0457 56.0411C28.4104 61.9118 31.516 67.2337 35.956 71.3099ZM64.664 102.569H47.7232C46.9079 102.568 46.1263 102.244 45.5498 101.667C44.9734 101.09 44.6491 100.309 44.6482 99.4934V98.9253H59.8217C60.1729 98.9253 60.5098 98.7858 60.7581 98.5375C61.0064 98.2891 61.146 97.9523 61.146 97.6011C61.146 97.2499 61.0064 96.9131 60.7581 96.6648C60.5098 96.4164 60.1729 96.2769 59.8217 96.2769H44.6482V92.6329H48.3814C48.7326 92.6329 49.0694 92.4933 49.3177 92.245C49.5661 91.9967 49.7056 91.6599 49.7056 91.3087C49.7056 90.9575 49.5661 90.6206 49.3177 90.3723C49.0694 90.124 48.7326 89.9844 48.3814 89.9844H44.6482V86.5393H67.7399V89.9844H52.9351C52.5839 89.9844 52.2471 90.124 51.9988 90.3723C51.7504 90.6206 51.6109 90.9575 51.6109 91.3087C51.6109 91.6599 51.7504 91.9967 51.9988 92.245C52.2471 92.4933 52.5839 92.6329 52.9351 92.6329H67.7399V96.2765H64.3755C64.0243 96.2765 63.6875 96.416 63.4391 96.6643C63.1908 96.9127 63.0513 97.2495 63.0513 97.6007C63.0513 97.9519 63.1908 98.2887 63.4391 98.537C63.6875 98.7854 64.0243 98.9249 64.3755 98.9249H67.7399V99.493C67.7391 100.309 67.4148 101.09 66.8381 101.667C66.2614 102.244 65.4795 102.568 64.664 102.569Z" fill="#0635C9"/>
<path d="M57.2386 14.1888C57.5898 14.1888 57.9267 14.0493 58.175 13.8009C58.4233 13.5526 58.5629 13.2158 58.5629 12.8646V4.0647C58.5629 3.71349 58.4233 3.37667 58.175 3.12833C57.9267 2.87999 57.5898 2.74048 57.2386 2.74048C56.8874 2.74048 56.5506 2.87999 56.3023 3.12833C56.0539 3.37667 55.9144 3.71349 55.9144 4.0647V12.8646C55.9144 13.2158 56.0539 13.5526 56.3023 13.8009C56.5506 14.0493 56.8874 14.1888 57.2386 14.1888Z" fill="#0635C9"/>
<path d="M98.1272 44.6741H89.3269C88.9757 44.6741 88.6389 44.8136 88.3905 45.0619C88.1422 45.3103 88.0027 45.6471 88.0027 45.9983C88.0027 46.3495 88.1422 46.6863 88.3905 46.9347C88.6389 47.183 88.9757 47.3225 89.3269 47.3225H98.1272C98.4784 47.3225 98.8152 47.183 99.0636 46.9347C99.3119 46.6863 99.4514 46.3495 99.4514 45.9983C99.4514 45.6471 99.3119 45.3103 99.0636 45.0619C98.8152 44.8136 98.4784 44.6741 98.1272 44.6741Z" fill="#0635C9"/>
<path d="M14.26 47.3225H23.0603C23.4115 47.3225 23.7484 47.183 23.9967 46.9347C24.245 46.6863 24.3845 46.3495 24.3845 45.9983C24.3845 45.6471 24.245 45.3103 23.9967 45.0619C23.7484 44.8136 23.4115 44.6741 23.0603 44.6741H14.26C13.9088 44.6741 13.572 44.8136 13.3236 45.0619C13.0753 45.3103 12.9358 45.6471 12.9358 45.9983C12.9358 46.3495 13.0753 46.6863 13.3236 46.9347C13.572 47.183 13.9088 47.3225 14.26 47.3225Z" fill="#0635C9"/>
<path d="M31.184 22.8611C31.4324 23.1095 31.7692 23.249 32.1204 23.2491C32.4716 23.2491 32.8085 23.1096 33.0568 22.8612C33.3052 22.6129 33.4447 22.2761 33.4447 21.9249C33.4448 21.5737 33.3053 21.2368 33.0569 20.9885L26.19 14.1213C25.9416 13.8729 25.6048 13.7334 25.2535 13.7334C24.9023 13.7334 24.5654 13.8729 24.3171 14.1213C24.0687 14.3696 23.9292 14.7065 23.9292 15.0577C23.9292 15.409 24.0687 15.7458 24.3171 15.9942L31.184 22.8611Z" fill="#0635C9"/>
<path d="M56.1321 70.2242C60.1928 70.2264 64.1686 69.061 67.5856 66.8669C71.0027 64.6728 73.7168 61.5426 75.4047 57.8492C77.0925 54.1558 77.6829 50.055 77.1055 46.0355C76.528 42.016 74.8071 38.2472 72.1478 35.1783L79.0492 28.2767L86.5986 30.1642C86.8574 30.2289 87.1286 30.2254 87.3857 30.1542C87.6429 30.0829 87.8772 29.9463 88.0658 29.7576L99.6117 18.2118C99.8186 18.0049 99.9625 17.7435 100.027 17.458C100.091 17.1725 100.073 16.8746 99.974 16.5991C99.8755 16.3236 99.7007 16.0817 99.4701 15.9016C99.2395 15.7215 98.9624 15.6107 98.6713 15.5819L90.3794 14.7617L89.5591 6.46992C89.5303 6.17873 89.4194 5.9017 89.2393 5.67107C89.0593 5.44044 88.8174 5.2657 88.5418 5.16717C88.2663 5.06865 87.9685 5.0504 87.683 5.11454C87.3975 5.17869 87.1361 5.32259 86.9292 5.52951L75.3822 17.0767C75.1936 17.2653 75.057 17.4996 74.9858 17.7567C74.9146 18.0138 74.9112 18.2849 74.9759 18.5437L76.8634 26.0929L69.9591 32.9969C67.3706 30.7655 64.2806 29.1935 60.9528 28.4151C57.6251 27.6366 54.1584 27.6749 50.8486 28.5266C47.5389 29.3783 44.4844 31.0182 41.9457 33.3062C39.4071 35.5943 37.4597 38.4625 36.2698 41.6663C35.0799 44.87 34.6828 48.3141 35.1124 51.7046C35.5419 55.095 36.7855 58.3312 38.7368 61.1369C40.6881 63.9427 43.2893 66.2346 46.3184 67.8172C49.3475 69.3998 52.7145 70.226 56.1321 70.2253V70.2242ZM86.4982 26.9543L81.5961 25.7289L89.5414 17.7836L95.1177 18.3354L86.4982 26.9543ZM78.1856 18.6419L86.8056 10.0219L87.3574 15.5978L79.412 23.5431L78.1856 18.6419ZM56.1321 30.4977C60.5076 30.4945 64.7418 32.0463 68.0792 34.876L61.2643 41.6908C59.422 40.4024 57.1636 39.8516 54.935 40.1471C52.7064 40.4427 50.6697 41.5633 49.227 43.2874C47.7844 45.0116 47.0406 47.214 47.1428 49.4598C47.2449 51.7056 48.1854 53.8314 49.7786 55.4176C51.3717 57.0037 53.5018 57.9347 55.748 58.0269C57.9942 58.119 60.1933 57.3655 61.911 55.9152C63.6288 54.4649 64.7402 52.4232 65.0259 50.1933C65.3116 47.9634 64.7507 45.7074 63.4541 43.8709L70.2661 37.0598C72.9922 40.2822 74.5364 44.3389 74.6431 48.5584C74.7497 52.7779 73.4125 56.9074 70.8526 60.2634C68.2928 63.6194 64.6637 66.0008 60.5661 67.0134C56.4685 68.0261 52.148 67.6093 48.3195 65.8321C44.4911 64.0548 41.3842 61.0237 39.513 57.2402C37.6419 53.4567 37.1186 49.1478 38.0299 45.0265C38.9411 40.9052 41.2323 37.2185 44.5241 34.5766C47.816 31.9347 51.9112 30.496 56.1321 30.4985V30.4977ZM62.4501 49.0367C62.4516 50.4324 61.9914 51.7895 61.1412 52.8963C60.2909 54.0032 59.0984 54.7977 57.7495 55.1561C56.4006 55.5145 54.971 55.4167 53.6835 54.8778C52.396 54.3389 51.3229 53.3893 50.6314 52.1768C49.94 50.9644 49.669 49.5573 49.8607 48.1748C50.0524 46.7923 50.696 45.5121 51.6913 44.5335C52.6865 43.555 53.9775 42.9332 55.3631 42.7649C56.7486 42.5967 58.1509 42.8915 59.3515 43.6034L55.008 47.9469C54.7183 48.2366 54.5555 48.6296 54.5555 49.0394C54.5555 49.4491 54.7183 49.8421 55.008 50.1318C55.2978 50.4216 55.6907 50.5844 56.1005 50.5844C56.5103 50.5844 56.9032 50.4216 57.193 50.1318L61.5439 45.7807C62.138 46.7628 62.4514 47.8889 62.4501 49.0367Z" fill="#1AE5BE"/>
</svg>
