<svg width="109" height="110" viewBox="0 0 109 110" fill="none" xmlns="http://www.w3.org/2000/svg">
<path d="M11.2832 29.3731H4.89648V90.3876H11.2832V29.3731Z" fill="#D4E1F4"/>
<path d="M20.2246 16.3016H13.8379C11.4673 16.3043 9.19455 17.2472 7.51829 18.9234C5.84202 20.5997 4.89913 22.8724 4.89648 25.243V26.8184H11.2832V25.243C11.2859 22.8724 12.2287 20.5997 13.905 18.9234C15.5813 17.2472 17.854 16.3043 20.2246 16.3016Z" fill="#D4E1F4"/>
<path d="M11.2832 96.9872V92.5165H4.89648V96.9872C4.89913 99.3578 5.84202 101.631 7.51829 103.307C9.19455 104.983 11.4673 105.926 13.8379 105.929H20.2246C17.854 105.926 15.5813 104.983 13.905 103.307C12.2287 101.631 11.2859 99.3578 11.2832 96.9872Z" fill="#D4E1F4"/>
<path d="M47.1931 13.9198H13.1306C10.5343 13.9227 8.04508 14.9554 6.20918 16.7913C4.37327 18.6272 3.34058 21.1164 3.33765 23.7128V98.2245C3.34052 100.821 4.3732 103.31 6.20911 105.146C8.04503 106.982 10.5342 108.015 13.1306 108.017H47.1931C49.7895 108.015 52.2786 106.982 54.1145 105.146C55.9504 103.31 56.9831 100.821 56.9861 98.2245V72.6776H54.4314V90.1346H5.89233V29.2479H40.5935C40.9323 29.2479 41.2572 29.1133 41.4967 28.8738C41.7363 28.6343 41.8708 28.3094 41.8708 27.9706C41.8708 27.6318 41.7363 27.3069 41.4967 27.0674C41.2572 26.8278 40.9323 26.6932 40.5935 26.6932H5.89233V23.7128C5.89447 21.7937 6.65776 19.9539 8.01474 18.5969C9.37172 17.2399 11.2116 16.4766 13.1306 16.4745H47.1931C49.1122 16.4766 50.952 17.2399 52.309 18.5969C53.666 19.9539 54.4292 21.7937 54.4314 23.7128V26.6932H51.4509C51.1121 26.6932 50.7873 26.8278 50.5477 27.0674C50.3082 27.3069 50.1736 27.6318 50.1736 27.9706C50.1736 28.3094 50.3082 28.6343 50.5477 28.8738C50.7873 29.1133 51.1121 29.2479 51.4509 29.2479H54.4314V50.2898H56.9861V23.7128C56.9831 21.1164 55.9504 18.6273 54.1145 16.7914C52.2786 14.9555 49.7894 13.9228 47.1931 13.9198ZM54.4314 92.6893V98.2245C54.4293 100.144 53.666 101.983 52.309 103.34C50.9521 104.697 49.1122 105.461 47.1931 105.463H13.1306C11.2115 105.461 9.37167 104.697 8.01468 103.34C6.65769 101.983 5.89442 100.144 5.89233 98.2245V92.6893H54.4314Z" fill="#0635C9"/>
<path d="M48.43 27.9706C48.43 27.6318 48.2954 27.3069 48.0559 27.0674C47.8163 26.8278 47.4914 26.6932 47.1527 26.6932H44.7864C44.4476 26.6932 44.1227 26.8278 43.8832 27.0674C43.6436 27.3069 43.509 27.6318 43.509 27.9706C43.509 28.3094 43.6436 28.6343 43.8832 28.8738C44.1227 29.1133 44.4476 29.2479 44.7864 29.2479H47.1527C47.4914 29.2479 47.8163 29.1133 48.0559 28.8738C48.2954 28.6343 48.43 28.3094 48.43 27.9706Z" fill="#0635C9"/>
<path d="M30.1619 103.547C31.0461 103.547 31.9105 103.285 32.6457 102.793C33.3809 102.302 33.9539 101.604 34.2923 100.787C34.6306 99.97 34.7192 99.0711 34.5467 98.2039C34.3742 97.3366 33.9484 96.54 33.3231 95.9148C32.6979 95.2895 31.9013 94.8638 31.0341 94.6913C30.1668 94.5187 29.2679 94.6073 28.451 94.9457C27.6341 95.284 26.9359 95.8571 26.4446 96.5923C25.9534 97.3275 25.6912 98.1918 25.6912 99.0761C25.6925 100.261 26.164 101.398 27.0021 102.236C27.8402 103.074 28.9766 103.545 30.1619 103.547ZM30.1619 97.16C30.5408 97.16 30.9113 97.2724 31.2263 97.4829C31.5414 97.6935 31.787 97.9927 31.932 98.3428C32.0771 98.6929 32.115 99.0782 32.0411 99.4498C31.9671 99.8215 31.7847 100.163 31.5167 100.431C31.2487 100.699 30.9073 100.881 30.5357 100.955C30.164 101.029 29.7787 100.991 29.4286 100.846C29.0785 100.701 28.7793 100.456 28.5688 100.141C28.3582 99.8254 28.2458 99.455 28.2458 99.0761C28.2464 98.5681 28.4485 98.081 28.8077 97.7218C29.1669 97.3626 29.6539 97.1606 30.1619 97.16Z" fill="#0635C9"/>
<path d="M9.80957 39.9989H16.9627C17.3015 39.9989 17.6264 39.8643 17.8659 39.6248C18.1055 39.3852 18.24 39.0603 18.24 38.7216C18.24 38.3828 18.1055 38.0579 17.8659 37.8183C17.6264 37.5788 17.3015 37.4442 16.9627 37.4442H9.80957C9.4708 37.4442 9.1459 37.5788 8.90635 37.8183C8.6668 38.0579 8.53223 38.3828 8.53223 38.7216C8.53223 39.0603 8.6668 39.3852 8.90635 39.6248C9.1459 39.8643 9.4708 39.9989 9.80957 39.9989Z" fill="#0635C9"/>
<path d="M27.4369 37.4442H22.8385C22.4997 37.4442 22.1748 37.5788 21.9353 37.8183C21.6957 38.0579 21.5612 38.3828 21.5612 38.7216C21.5612 39.0603 21.6957 39.3852 21.9353 39.6248C22.1748 39.8643 22.4997 39.9989 22.8385 39.9989H27.4369C27.7757 39.9989 28.1006 39.8643 28.3402 39.6248C28.5797 39.3852 28.7143 39.0603 28.7143 38.7216C28.7143 38.3828 28.5797 38.0579 28.3402 37.8183C28.1006 37.5788 27.7757 37.4442 27.4369 37.4442Z" fill="#0635C9"/>
<path d="M42.8502 39.9989C43.1889 39.9989 43.5138 39.8643 43.7534 39.6248C43.9929 39.3852 44.1275 39.0603 44.1275 38.7216C44.1275 38.3828 43.9929 38.0579 43.7534 37.8183C43.5138 37.5788 43.1889 37.4442 42.8502 37.4442H34.8455C34.5067 37.4442 34.1818 37.5788 33.9422 37.8183C33.7027 38.0579 33.5681 38.3828 33.5681 38.7216C33.5681 39.0603 33.7027 39.3852 33.9422 39.6248C34.1818 39.8643 34.5067 39.9989 34.8455 39.9989H42.8502Z" fill="#0635C9"/>
<path d="M9.80957 51.9208H22.0721C22.4108 51.9208 22.7357 51.7862 22.9753 51.5467C23.2148 51.3071 23.3494 50.9822 23.3494 50.6434C23.3494 50.3047 23.2148 49.9798 22.9753 49.7402C22.7357 49.5007 22.4108 49.3661 22.0721 49.3661H9.80957C9.4708 49.3661 9.1459 49.5007 8.90635 49.7402C8.6668 49.9798 8.53223 50.3047 8.53223 50.6434C8.53223 50.9822 8.6668 51.3071 8.90635 51.5467C9.1459 51.7862 9.4708 51.9208 9.80957 51.9208Z" fill="#0635C9"/>
<path d="M32.1205 49.3661H27.9479C27.6091 49.3661 27.2842 49.5007 27.0447 49.7402C26.8051 49.9798 26.6705 50.3047 26.6705 50.6434C26.6705 50.9822 26.8051 51.3071 27.0447 51.5467C27.2842 51.7862 27.6091 51.9208 27.9479 51.9208H32.1205C32.4593 51.9208 32.7842 51.7862 33.0238 51.5467C33.2633 51.3071 33.3979 50.9822 33.3979 50.6434C33.3979 50.3047 33.2633 49.9798 33.0238 49.7402C32.7842 49.5007 32.4593 49.3661 32.1205 49.3661Z" fill="#0635C9"/>
<path d="M9.80957 63.8427H12.8752C13.214 63.8427 13.5389 63.7081 13.7784 63.4685C14.018 63.229 14.1525 62.9041 14.1525 62.5653C14.1525 62.2265 14.018 61.9016 13.7784 61.6621C13.5389 61.4225 13.214 61.288 12.8752 61.288H9.80957C9.4708 61.288 9.1459 61.4225 8.90635 61.6621C8.6668 61.9016 8.53223 62.2265 8.53223 62.5653C8.53223 62.9041 8.6668 63.229 8.90635 63.4685C9.1459 63.7081 9.4708 63.8427 9.80957 63.8427Z" fill="#0635C9"/>
<path d="M29.0975 62.5653C29.0975 62.2265 28.9629 61.9016 28.7233 61.6621C28.4838 61.4225 28.1589 61.288 27.8201 61.288H18.751C18.4122 61.288 18.0873 61.4225 17.8478 61.6621C17.6082 61.9016 17.4736 62.2265 17.4736 62.5653C17.4736 62.9041 17.6082 63.229 17.8478 63.4685C18.0873 63.7081 18.4122 63.8427 18.751 63.8427H27.8201C28.1589 63.8427 28.4838 63.7081 28.7233 63.4685C28.9629 63.229 29.0975 62.9041 29.0975 62.5653Z" fill="#0635C9"/>
<path d="M24.7973 74.4872C24.7973 74.1484 24.6627 73.8235 24.4232 73.584C24.1836 73.3444 23.8587 73.2098 23.52 73.2098H9.80981C9.47104 73.2098 9.14615 73.3444 8.9066 73.584C8.66705 73.8235 8.53247 74.1484 8.53247 74.4872C8.53247 74.826 8.66705 75.1508 8.9066 75.3904C9.14615 75.6299 9.47104 75.7645 9.80981 75.7645H23.52C23.8587 75.7645 24.1836 75.6299 24.4232 75.3904C24.6627 75.1508 24.7973 74.826 24.7973 74.4872Z" fill="#0635C9"/>
<path d="M31.865 73.2098H29.3955C29.0567 73.2098 28.7318 73.3444 28.4923 73.584C28.2527 73.8235 28.1182 74.1484 28.1182 74.4872C28.1182 74.826 28.2527 75.1508 28.4923 75.3904C28.7318 75.6299 29.0567 75.7645 29.3955 75.7645H31.865C32.2038 75.7645 32.5287 75.6299 32.7683 75.3904C33.0078 75.1508 33.1424 74.826 33.1424 74.4872C33.1424 74.1484 33.0078 73.8235 32.7683 73.584C32.5287 73.3444 32.2038 73.2098 31.865 73.2098Z" fill="#0635C9"/>
<path d="M9.80957 82.1512C9.4708 82.1512 9.1459 82.2858 8.90635 82.5254C8.6668 82.7649 8.53223 83.0898 8.53223 83.4286C8.53223 83.7674 8.6668 84.0923 8.90635 84.3318C9.1459 84.5714 9.4708 84.7059 9.80957 84.7059H21.3908C21.7296 84.7059 22.0545 84.5714 22.294 84.3318C22.5336 84.0923 22.6682 83.7674 22.6682 83.4286C22.6682 83.0898 22.5336 82.7649 22.294 82.5254C22.0545 82.2858 21.7296 82.1512 21.3908 82.1512H9.80957Z" fill="#0635C9"/>
<path d="M27.2666 84.7059H44.6385C44.9772 84.7059 45.3021 84.5714 45.5417 84.3318C45.7812 84.0923 45.9158 83.7674 45.9158 83.4286C45.9158 83.0898 45.7812 82.7649 45.5417 82.5254C45.3021 82.2858 44.9772 82.1512 44.6385 82.1512H27.2666C26.9278 82.1512 26.6029 82.2858 26.3634 82.5254C26.1238 82.7649 25.9893 83.0898 25.9893 83.4286C25.9893 83.7674 26.1238 84.0923 26.3634 84.3318C26.6029 84.5714 26.9278 84.7059 27.2666 84.7059Z" fill="#0635C9"/>
<path d="M88.4182 54.4928C88.4169 53.3548 87.9643 52.2637 87.1596 51.459C86.3549 50.6543 85.2639 50.2016 84.1259 50.2002H70.5145C70.216 50.2006 69.928 50.0906 69.7058 49.8913C69.4836 49.6921 69.343 49.4176 69.311 49.1209C69.1253 47.4028 69.344 45.6651 69.9497 44.0466C70.6356 42.2243 70.9864 40.293 70.9852 38.3459V37.2414C70.9832 35.4626 70.2757 33.7573 69.0179 32.4995C67.7601 31.2418 66.0547 30.5343 64.276 30.5323C63.9707 30.5323 63.6755 30.6417 63.4439 30.8405C63.2123 31.0394 63.0595 31.3146 63.0133 31.6164L62.4023 35.6049C61.7762 39.6622 60.2021 43.5147 57.8077 46.8496C57.1841 47.7056 56.3673 48.4024 55.4237 48.8833C54.4801 49.3642 53.4364 49.6156 52.3773 49.6171H50.7681V46.6637C50.7681 46.3249 50.6335 46 50.3939 45.7605C50.1544 45.5209 49.8295 45.3864 49.4907 45.3864H37.9554C37.6167 45.3864 37.2918 45.5209 37.0522 45.7605C36.8127 46 36.6781 46.3249 36.6781 46.6637V76.1816C36.6781 76.5204 36.8127 76.8453 37.0522 77.0849C37.2918 77.3244 37.6167 77.459 37.9554 77.459H49.4911C49.8299 77.459 50.1548 77.3244 50.3944 77.0849C50.6339 76.8453 50.7685 76.5204 50.7685 76.1816V73.7144H52.1523C55.2602 73.7137 58.3064 74.5818 60.947 76.2208C64.0552 78.1496 67.5183 78.3093 71.0889 78.3093H82.4464C83.2628 78.31 84.0639 78.0877 84.7633 77.6664C85.4626 77.2451 86.0336 76.6408 86.4147 75.9187C86.7957 75.1967 86.9723 74.3842 86.9254 73.5691C86.8785 72.7541 86.6099 71.9673 86.1486 71.2937C86.7574 70.9474 87.2767 70.4635 87.665 69.8806C88.0532 69.2976 88.2996 68.6319 88.3845 67.9367C88.4693 67.2414 88.3902 66.536 88.1535 65.8768C87.9168 65.2176 87.5291 64.623 87.0214 64.1405C87.4582 63.7171 87.8064 63.211 88.0459 62.6518C88.2854 62.0926 88.4114 61.4914 88.4165 60.8831C88.4217 60.2748 88.3059 59.6715 88.0759 59.1083C87.8459 58.5451 87.5063 58.0333 87.0768 57.6025C87.5003 57.2028 87.8378 56.7208 88.0685 56.1861C88.2991 55.6513 88.4181 55.0751 88.4182 54.4928ZM48.2138 74.9043H39.2328V47.9411H48.2138V74.9043ZM83.9181 65.4458C84.4341 65.4458 84.9289 65.6507 85.2937 66.0156C85.6585 66.3804 85.8635 66.8752 85.8635 67.3912C85.8635 67.9071 85.6585 68.4019 85.2937 68.7668C84.9289 69.1316 84.4341 69.3366 83.9181 69.3366H77.3738C77.0351 69.3366 76.7102 69.4711 76.4706 69.7107C76.2311 69.9502 76.0965 70.2751 76.0965 70.6139C76.0965 70.9527 76.2311 71.2776 76.4706 71.5171C76.7102 71.7567 77.0351 71.8913 77.3738 71.8913H82.4475C82.7028 71.8886 82.9562 71.9366 83.1929 72.0324C83.4296 72.1283 83.645 72.2702 83.8265 72.4498C84.008 72.6294 84.1522 72.8433 84.2505 73.079C84.3489 73.3147 84.3995 73.5675 84.3995 73.8229C84.3995 74.0783 84.3489 74.3312 84.2505 74.5669C84.1522 74.8025 84.008 75.0164 83.8265 75.196C83.645 75.3757 83.4296 75.5175 83.1929 75.6134C82.9562 75.7093 82.7028 75.7573 82.4475 75.7546H71.09C67.903 75.7546 64.8325 75.6241 62.2948 74.05C59.2499 72.1599 55.7372 71.1589 52.1533 71.1598H50.7695V52.172H52.3788C53.8419 52.1697 55.2837 51.822 56.5871 51.1572C57.8904 50.4924 59.0184 49.5294 59.8793 48.3464C62.5108 44.6826 64.2408 40.4498 64.9289 35.9917L65.3526 33.228C66.2354 33.4658 67.0154 33.9878 67.572 34.7132C68.1286 35.4386 68.4308 36.3271 68.432 37.2414V38.3459C68.4329 39.9862 68.1372 41.6131 67.5592 43.1482C66.8128 45.1416 66.543 47.2819 66.7715 49.3981C66.871 50.321 67.3083 51.1744 67.9994 51.7942C68.6904 52.4139 69.5863 52.7561 70.5145 52.7549H84.1259C84.5834 52.76 85.0205 52.9453 85.3423 53.2706C85.664 53.596 85.8445 54.0351 85.8445 54.4927C85.8445 54.9502 85.664 55.3893 85.3423 55.7147C85.0205 56.04 84.5834 56.2253 84.1259 56.2304H81.3502C81.2891 56.2309 81.228 56.2357 81.1676 56.2449H79.3793C79.0405 56.2449 78.7156 56.3794 78.4761 56.619C78.2365 56.8585 78.1019 57.1834 78.1019 57.5222C78.1019 57.861 78.2365 58.1859 78.4761 58.4254C78.7156 58.665 79.0405 58.7995 79.3793 58.7995H83.8183C84.3572 58.805 84.8722 59.023 85.2514 59.4061C85.6306 59.7891 85.8433 60.3063 85.8433 60.8453C85.8433 61.3843 85.6306 61.9015 85.2514 62.2846C84.8722 62.6676 84.3572 62.8856 83.8183 62.8911H79.3789C79.0401 62.8911 78.7152 63.0257 78.4756 63.2652C78.2361 63.5048 78.1015 63.8297 78.1015 64.1684C78.1015 64.5072 78.2361 64.8321 78.4756 65.0717C78.7152 65.3112 79.0401 65.4458 79.3789 65.4458H83.9181Z" fill="#1AE5BE"/>
<path d="M99.091 29.1042C98.3295 25.3295 95.5664 22.8906 92.0518 22.8906C90.4694 22.8906 88.7929 23.4173 87.1536 24.4223C85.4952 23.3696 83.8325 22.8372 82.2022 22.8372C78.6642 22.8372 75.91 25.3039 75.1868 29.1174C74.1922 34.3013 77.2501 41.1432 86.3235 44.7436C86.3493 44.7534 86.3751 44.763 86.401 44.7715C86.8789 44.9456 87.4028 44.9456 87.8806 44.7715C87.9098 44.7619 87.9383 44.7513 87.9658 44.7396C97.0349 41.0657 100.088 34.2441 99.0923 29.1147C99.0925 29.1115 99.0919 29.1079 99.091 29.1042ZM87.1372 41.8583C79.8672 38.8651 77.3606 33.6067 78.1147 29.6765C78.5658 27.2964 80.132 25.8176 82.2022 25.8176C83.4474 25.8176 84.8467 26.3711 86.249 27.4171C86.5038 27.6072 86.8127 27.711 87.1306 27.7131C87.4485 27.7152 87.7588 27.6156 88.016 27.4288C89.3998 26.4244 90.833 25.8711 92.052 25.8711C94.1145 25.8711 95.6924 27.3334 96.1687 29.6882C96.9185 33.5671 94.4079 38.8042 87.1372 41.8583Z" fill="#1AE5BE"/>
<path d="M105.509 6.90481C104.87 3.73976 102.545 1.69474 99.5847 1.69474C98.1983 1.72988 96.8465 2.13502 95.6694 2.86819C94.3459 2.06027 93.0164 1.65173 91.7056 1.65173C88.7251 1.65173 86.407 3.71997 85.8002 6.91843C84.9819 11.1858 87.4759 16.8093 94.8928 19.7523C94.9183 19.7623 94.9441 19.7716 94.9701 19.7804C95.4135 19.9397 95.8986 19.9397 96.3421 19.7804C96.3715 19.7706 96.4005 19.7591 96.4292 19.7481C99.7692 18.3952 102.374 16.3893 103.963 13.9481C105.41 11.724 105.96 9.22638 105.511 6.91503L105.509 6.90481ZM95.6517 16.8438C90.0793 14.5059 88.1507 10.4818 88.727 7.47663C89.0651 5.69538 90.1783 4.63199 91.7047 4.63199C92.6361 4.63199 93.6938 5.05394 94.7642 5.85228C95.019 6.04242 95.3279 6.1461 95.6458 6.14817C95.9637 6.15024 96.2739 6.05059 96.5312 5.86377C97.588 5.09737 98.6722 4.67457 99.5847 4.67457C101.084 4.67457 102.234 5.75243 102.586 7.48813C103.159 10.4533 101.227 14.459 95.6517 16.8438Z" fill="#1AE5BE"/>
</svg>
