<svg width="102" height="103" viewBox="0 0 102 103" fill="none" xmlns="http://www.w3.org/2000/svg">
<path d="M61.7261 61.0395V66.077H65.7223C65.7165 65.9999 65.7099 65.923 65.7099 65.8449V59.0473C65.7149 58.8701 65.6836 58.6938 65.618 58.5291C65.5524 58.3644 65.4539 58.2148 65.3284 58.0896C65.2029 57.9643 65.0532 57.866 64.8884 57.8007C64.7236 57.7354 64.5472 57.7045 64.37 57.7098H58.953L62.6814 47.9156C62.7416 47.7479 62.7726 47.5712 62.773 47.393C62.7774 45.5357 62.7894 43.4252 62.8027 43.1716C62.9596 40.1467 63.8283 37.2015 65.3381 34.5756C66.8479 31.9498 68.9563 29.7174 71.4916 28.0601C67.9317 29.3494 64.8309 31.6595 62.5768 34.7016C60.3227 37.7437 59.0154 41.3827 58.8183 45.1638C58.805 45.4174 58.793 47.5279 58.7887 49.3852C58.7883 49.5634 58.7573 49.7401 58.697 49.9078L54.9686 59.702H60.3856C60.5628 59.6966 60.7393 59.7275 60.9042 59.7927C61.0691 59.858 61.2189 59.9563 61.3444 60.0815C61.47 60.2068 61.5686 60.3564 61.6342 60.5211C61.6998 60.6858 61.7311 60.8623 61.7261 61.0395Z" fill="#D4E1F4"/>
<path d="M92.8658 78.2294H80.8751L79.4068 72.3789C79.1715 71.4336 78.627 70.594 77.8598 69.9937C77.0926 69.3933 76.1468 69.0665 75.1726 69.0653H75.1527C73.0342 69.0653 69.4122 69.0653 69.0496 69.0769C68.9881 69.0789 68.9271 69.0749 68.866 69.0733V71.0575C69.6828 71.0575 70.4996 71.0575 71.1683 71.0575H71.1883C72.1624 71.0587 73.1083 71.3855 73.8754 71.9858C74.6426 72.5862 75.1871 73.4258 75.4225 74.3711L76.8907 80.2216H93.3117C93.1806 79.6608 93.0284 78.9864 92.8658 78.2294Z" fill="#D4E1F4"/>
<path d="M41.6778 51.7008C41.6174 51.5331 41.5863 51.3564 41.5859 51.1782C41.5815 49.3209 41.5698 47.2104 41.5562 46.9568C41.3591 43.1757 40.0518 39.5366 37.7977 36.4945C35.5436 33.4524 32.4427 31.1423 28.8827 29.853C31.4183 31.5102 33.5268 33.7426 35.0368 36.3685C36.5468 38.9943 37.4157 41.9396 37.5727 44.9646C37.5862 45.2182 37.598 47.3287 37.6023 49.186C37.6027 49.3642 37.6338 49.541 37.6942 49.7086L41.4216 59.5028H36.0046C35.8274 59.4974 35.6509 59.5283 35.486 59.5936C35.3212 59.6589 35.1714 59.7571 35.0458 59.8824C34.9203 60.0076 34.8217 60.1572 34.7561 60.3219C34.6904 60.4867 34.6591 60.6631 34.6641 60.8403V67.6379C34.6472 68.5085 34.2865 69.3371 33.6607 69.9427C33.0349 70.5482 32.1949 70.8815 31.3242 70.8698C30.9616 70.8586 27.3398 70.8582 25.2211 70.8582H25.2012C24.227 70.8594 23.2812 71.1862 22.514 71.7866C21.7468 72.387 21.2023 73.2265 20.967 74.1718L19.4995 80.0223H7.50876C7.3462 80.7793 7.1938 81.4537 7.06311 82.0145H23.4839L24.9522 76.164C25.1875 75.2188 25.7319 74.3794 26.4989 73.779C27.2659 73.1787 28.2115 72.8518 29.1856 72.8504H29.2055C31.324 72.8504 34.946 72.8504 35.3085 72.862C36.1793 72.8737 37.0193 72.5404 37.6451 71.9348C38.2709 71.3293 38.6316 70.5007 38.6484 69.63V62.8325C38.6435 62.6552 38.6748 62.4788 38.7404 62.3141C38.8061 62.1494 38.9047 61.9998 39.0302 61.8746C39.1557 61.7493 39.3055 61.6511 39.4704 61.5858C39.6353 61.5205 39.8117 61.4896 39.989 61.4949H45.4059L41.6778 51.7008Z" fill="#D4E1F4"/>
<path d="M54.4365 62.2349H59.3473V66.1981H59.2552C58.195 66.2084 57.1821 66.6383 56.4383 67.3939C55.6945 68.1495 55.2805 69.1691 55.287 70.2294C55.2935 71.2896 55.7199 72.304 56.4729 73.0505C57.2258 73.7969 58.244 74.2145 59.3042 74.2117H59.3502L67.6551 74.0844C67.8366 74.0817 68.0151 74.0376 68.1769 73.9554C68.3388 73.8733 68.4797 73.7552 68.589 73.6103C69.509 73.6057 70.487 73.6015 71.337 73.5977H71.3446C71.7407 73.5971 72.1255 73.7291 72.4378 73.9727C72.7501 74.2163 72.9718 74.5574 73.0676 74.9417L74.8009 81.8346C74.8658 82.0928 75.0152 82.322 75.2252 82.4857C75.4352 82.6494 75.6938 82.7383 75.9601 82.7383H95.2515C95.4347 82.7383 95.6155 82.6963 95.7799 82.6153C95.9443 82.5344 96.0879 82.4167 96.1996 82.2715C96.3113 82.1262 96.3881 81.9572 96.424 81.7775C96.46 81.5978 96.4541 81.4122 96.4069 81.2352C96.3747 81.1143 93.1937 69.0557 93.8956 61.5159C94.0569 59.7841 95.6105 55.6417 96.224 54.1191C97.8223 51.0532 98.6157 47.6315 98.5297 44.175C98.4436 40.7186 97.481 37.3406 95.7322 34.358C94.0359 31.4089 91.6163 28.9405 88.7016 27.1858C85.7869 25.431 82.4732 24.4478 79.0731 24.3287C78.8861 24.322 78.6982 24.3176 78.5095 24.3156C72.8669 24.251 67.417 26.3668 63.2961 30.2219C59.1752 34.077 56.7013 39.374 56.3903 45.0084C56.3683 45.367 56.359 48.1822 56.3564 49.16L52.4607 59.3645C52.3383 59.6849 52.2956 60.0302 52.3364 60.3708C52.3771 60.7113 52.5001 61.0368 52.6946 61.3192C52.8891 61.6017 53.1494 61.8326 53.4529 61.9921C53.7565 62.1516 54.0944 62.2349 54.4373 62.2349H54.4365ZM59.3174 71.8211H59.2988C58.9809 71.8211 58.6701 71.7273 58.4052 71.5515C58.1403 71.3757 57.9331 71.1256 57.8096 70.8327C57.6861 70.5397 57.6518 70.2169 57.7109 69.9045C57.7699 69.5921 57.9198 69.3041 58.1418 69.0765C58.288 68.925 58.4628 68.8039 58.656 68.7202C58.8492 68.6365 59.057 68.5917 59.2676 68.5886H66.3777L66.4233 71.7121L59.3174 71.8211ZM93.6647 35.5597C95.2146 38.2023 96.0658 41.1961 96.138 44.2589C96.2101 47.3216 95.5007 50.3522 94.0769 53.0648C94.0591 53.0989 94.043 53.134 94.0285 53.1694C93.7948 53.7472 91.7396 58.8763 91.5145 61.2944C91.2015 64.6556 91.5424 69.1416 92.5275 74.6275C92.9563 77.0155 93.4121 79.0501 93.7215 80.3477H76.8915L75.3854 74.3585C75.1775 73.5262 74.717 72.7787 74.0672 72.2187C73.4174 71.6586 72.6101 71.3135 71.7562 71.2308L72.966 71.2234C75.1265 71.2033 77.1904 70.3258 78.7039 68.7839C80.2173 67.242 81.0563 65.1621 81.0362 63.0017L81.0203 61.2984C82.8249 61.059 84.4792 60.1661 85.6696 58.7888C86.8601 57.4115 87.504 55.6454 87.4795 53.8251L87.469 53.0449C87.4411 51.2875 86.7936 49.5964 85.6407 48.2697C84.4878 46.943 82.9035 46.066 81.1671 45.7934V26.9315C83.7608 27.3497 86.2286 28.3412 88.3906 29.8338C90.5526 31.3264 92.3544 33.2826 93.6647 35.5597ZM79.9827 48.0951H80.0303C81.3566 48.0981 82.6287 48.6217 83.5728 49.5531C84.517 50.4846 85.0577 51.7495 85.0786 53.0756L85.0891 53.8557C85.0981 54.5205 84.9756 55.1805 84.7289 55.7979C84.4821 56.4152 84.1158 56.9778 83.6511 57.4532C83.1864 57.9287 82.6323 58.3077 82.0208 58.5685C81.4092 58.8292 80.7521 58.9667 80.0873 58.9729H80.0399C78.7136 58.97 77.4415 58.4464 76.4973 57.515C75.5531 56.5835 75.0124 55.3186 74.9915 53.9924L74.9809 53.2123C74.972 52.5475 75.0945 51.8875 75.3413 51.2701C75.588 50.6528 75.9543 50.0903 76.419 49.6148C76.8837 49.1394 77.4378 48.7604 78.0493 48.4996C78.6609 48.2388 79.3179 48.1014 79.9827 48.0951ZM58.6663 49.8084C58.718 49.6732 58.7447 49.5297 58.745 49.3849C58.7494 47.515 58.7614 45.3963 58.7755 45.1457C59.0375 40.1594 61.206 35.4645 64.8324 32.0321C68.4589 28.5998 73.2659 26.6926 78.2591 26.705C78.3324 26.705 78.4079 26.705 78.4814 26.7062C78.581 26.7062 78.6779 26.7106 78.7761 26.713V45.8105C77.0283 46.1093 75.4447 47.0224 74.3106 48.3853C73.1765 49.7483 72.5663 51.4714 72.5901 53.2443L72.6007 54.0245C72.6276 55.7342 73.2411 57.3827 74.3385 58.6941C75.4359 60.0054 76.9505 60.8999 78.6286 61.2278L78.6454 63.0236C78.6581 64.5489 78.0654 66.0169 76.9973 67.1059C75.9293 68.1948 74.4729 68.8158 72.9477 68.8326L68.7731 68.8583L68.7514 67.3761C68.7468 67.0621 68.6189 66.7625 68.3952 66.5421C68.1715 66.3217 67.8701 66.1981 67.5561 66.1981H61.7379V61.0396C61.7379 60.7226 61.6119 60.4185 61.3878 60.1944C61.1636 59.9702 60.8596 59.8443 60.5426 59.8443H54.8355L58.6663 49.8084Z" fill="#0635C9"/>
<path d="M7.89421 62.4313C8.56339 69.6183 5.52949 81.1198 5.49881 81.2352C5.45162 81.4122 5.44578 81.5978 5.48173 81.7775C5.51768 81.9571 5.59446 82.1262 5.70614 82.2714C5.81782 82.4167 5.96141 82.5344 6.12582 82.6153C6.29022 82.6963 6.47103 82.7383 6.65427 82.7383H25.0689C25.3351 82.7383 25.5938 82.6494 25.8038 82.4857C26.0138 82.322 26.1631 82.0928 26.2281 81.8346L27.8828 75.2548C27.971 74.8982 28.1767 74.5817 28.4669 74.3565C28.757 74.1312 29.1146 74.0103 29.482 74.0133C34.3515 74.0332 35.1216 74.0434 35.2268 74.0467C35.9739 74.0675 36.7176 73.9388 37.4143 73.6683C38.1111 73.3978 38.7467 72.9909 39.2841 72.4715C39.8233 71.9522 40.2516 71.3289 40.5433 70.6395C40.835 69.9501 40.984 69.2087 40.9813 68.46V63.1668H45.6131C45.9492 63.1668 46.2804 63.0851 46.5779 62.9287C46.8755 62.7724 47.1306 62.546 47.3213 62.2692C47.5119 61.9923 47.6325 61.6733 47.6725 61.3395C47.7125 61.0058 47.6707 60.6673 47.5509 60.3532L43.8357 50.6218C43.8331 49.6791 43.8241 47.0096 43.8036 46.6739C43.5198 41.2759 41.1568 36.1974 37.2101 32.5038C33.2634 28.8102 28.0398 26.7883 22.6348 26.8624C22.4543 26.8644 22.2746 26.8686 22.0947 26.8751C18.8401 26.9891 15.6683 27.9303 12.8783 29.61C10.0883 31.2896 7.77218 33.6524 6.14846 36.4753C4.47463 39.3299 3.55323 42.5628 3.47068 45.871C3.38813 49.1791 4.14713 52.454 5.67651 55.3885C6.26201 56.8414 7.74081 60.784 7.89421 62.4313ZM8.21495 37.6772C9.63649 35.2041 11.6646 33.134 14.108 31.662C16.5514 30.19 19.3295 29.3648 22.1802 29.2642C22.3396 29.2586 22.4999 29.2546 22.6611 29.2528C27.451 29.1861 32.0806 30.9776 35.5778 34.2513C39.0751 37.525 41.1681 42.0262 41.4175 46.8101C41.4305 47.0456 41.4421 49.0655 41.4462 50.8465C41.4469 50.9914 41.4739 51.1349 41.5259 51.2701L45.1549 60.7762H39.7854C39.4683 60.7762 39.1643 60.9021 38.9401 61.1263C38.716 61.3504 38.59 61.6545 38.59 61.9715V68.46C38.59 68.8876 38.5042 69.3109 38.3378 69.7048C38.1714 70.0986 37.9277 70.4552 37.6211 70.7532C37.3145 71.0513 36.9513 71.2849 36.5529 71.4402C36.1545 71.5955 35.729 71.6693 35.3015 71.6573C35.0481 71.6493 33.0936 71.6374 29.4921 71.6226H29.475C28.5763 71.6213 27.7031 71.9208 26.9944 72.4735C26.2857 73.0261 25.7824 73.8 25.5647 74.6719L24.1371 80.3476H8.18428C9.00804 76.8976 10.8415 68.2985 10.2747 62.2096C10.0591 59.8938 8.09443 54.9905 7.8713 54.4388C7.85669 54.4031 7.84056 54.3682 7.82289 54.334C6.46797 51.7529 5.79297 48.8692 5.86156 45.9548C5.93016 43.0405 6.74009 40.1917 8.21495 37.6772Z" fill="#0635C9"/>
<path d="M27.273 25.4466C27.3055 25.6002 27.3679 25.7458 27.4567 25.8753C27.5455 26.0048 27.6589 26.1155 27.7905 26.2011C27.9221 26.2867 28.0693 26.3456 28.2236 26.3743C28.378 26.403 28.5364 26.4011 28.69 26.3686L37.8551 24.4286C38.0864 24.3796 38.298 24.2632 38.4631 24.094C38.6283 23.9247 38.7395 23.7103 38.7828 23.4779C38.8261 23.2454 38.7994 23.0054 38.7062 22.7881C38.6131 22.5708 38.4575 22.386 38.2593 22.2571L33.8472 19.3863C35.9671 16.8132 38.5919 14.7017 41.5594 13.1822C44.527 11.6627 47.7744 10.7674 51.1014 10.5515C54.4284 10.3357 57.7643 10.8038 60.9033 11.9272C64.0424 13.0505 66.9179 14.8051 69.3526 17.0828C69.5843 17.2992 69.8924 17.4146 70.2093 17.4038C70.5261 17.393 70.8257 17.2568 71.042 17.0251C71.2584 16.7934 71.3739 16.4853 71.3631 16.1684C71.3523 15.8516 71.2161 15.552 70.9844 15.3356C68.2946 12.8195 65.1148 10.885 61.6438 9.65284C58.1728 8.42072 54.485 7.91747 50.8108 8.17453C47.1366 8.43158 43.5548 9.44342 40.2892 11.1469C37.0235 12.8503 34.1442 15.2087 31.8309 18.0749L27.1535 15.032C26.9553 14.9031 26.7233 14.8358 26.4869 14.8387C26.2505 14.8416 26.0203 14.9145 25.8254 15.0483C25.6304 15.182 25.4795 15.3706 25.3917 15.5901C25.3039 15.8096 25.2832 16.0502 25.3322 16.2815L27.273 25.4466ZM31.3853 20.6368L31.3904 20.641C31.3998 20.648 31.4104 20.6528 31.4199 20.6593L34.5367 22.6874L29.3648 23.7829L28.2691 18.6096L31.3853 20.6368Z" fill="#1AE5BE"/>
<path d="M44.0054 94.5588C48.0016 94.558 51.947 93.6627 55.5521 91.9386C59.1573 90.2145 62.3308 87.7052 64.8399 84.5949L69.5167 87.6377C69.7149 87.7667 69.9468 87.8339 70.1832 87.831C70.4196 87.8281 70.6499 87.7552 70.8448 87.6214C71.0398 87.4877 71.1907 87.2992 71.2785 87.0796C71.3662 86.8601 71.387 86.6195 71.338 86.3882L69.3982 77.2242C69.3657 77.0706 69.3033 76.9249 69.2145 76.7954C69.1257 76.666 69.0122 76.5553 68.8806 76.4696C68.7491 76.384 68.6019 76.3252 68.4476 76.2964C68.2932 76.2677 68.1347 76.2697 67.9812 76.3022L58.8171 78.2422C58.5858 78.2911 58.3742 78.4076 58.209 78.5768C58.0439 78.746 57.9327 78.9604 57.8894 79.1928C57.8461 79.4253 57.8728 79.6654 57.9659 79.8827C58.0591 80.1 58.2147 80.2847 58.4129 80.4136L62.8254 83.2846C60.7054 85.8579 58.0807 87.9695 55.113 89.489C52.1454 91.0086 48.8979 91.904 45.5708 92.1198C42.2437 92.3357 38.9077 91.8675 35.7686 90.7441C32.6295 89.6207 29.7539 87.866 27.3192 85.5882C27.0875 85.3718 26.7794 85.2563 26.4625 85.2671C26.1457 85.2779 25.8461 85.4141 25.6297 85.6458C25.4134 85.8775 25.2979 86.1857 25.3087 86.5025C25.3195 86.8194 25.4557 87.1189 25.6874 87.3353C30.6584 91.9759 37.205 94.5574 44.0054 94.5588ZM67.3068 78.8868L68.4025 84.0594L65.2859 82.0329L65.2807 82.0287C65.2425 82.0006 65.2026 81.9748 65.1612 81.9514L62.1351 79.9823L67.3068 78.8868Z" fill="#1AE5BE"/>
</svg>
