<svg width="100" height="101" viewBox="0 0 100 101" fill="none" xmlns="http://www.w3.org/2000/svg">
<path d="M12.9961 4.92902H87.2148C88.5612 4.93052 89.852 5.46601 90.804 6.41802C91.756 7.37003 92.2915 8.6608 92.293 10.0071V33.8569C92.2915 35.2033 91.756 36.4941 90.804 37.4461C89.852 38.3981 88.5612 38.9336 87.2148 38.9351H70.334V46.1636C70.334 46.3954 70.2652 46.6219 70.1364 46.8146C70.0077 47.0074 69.8246 47.1575 69.6105 47.2462C69.3964 47.3349 69.1607 47.3581 68.9334 47.3129C68.7061 47.2676 68.4973 47.156 68.3334 46.9921L60.3906 39.0484H38.457L30.0377 47.0146C29.8713 47.1719 29.6625 47.2771 29.4371 47.3171C29.2116 47.3571 28.9794 47.3301 28.769 47.2396C28.5587 47.149 28.3795 46.9988 28.2536 46.8076C28.1277 46.6163 28.0606 46.3924 28.0605 46.1634V39.0401L12.9961 38.9351C11.6497 38.9336 10.359 38.3981 9.40697 37.4461C8.45496 36.4941 7.91946 35.2033 7.91796 33.8569V10.0071C7.91946 8.6608 8.45496 7.37003 9.40697 6.41802C10.359 5.46601 11.6497 4.93052 12.9961 4.92902ZM10.2617 33.8569C10.263 34.5832 10.5526 35.2792 11.0669 35.792C11.5812 36.3047 12.278 36.5923 13.0043 36.5913L29.2406 36.7046C29.55 36.7068 29.846 36.8312 30.064 37.0507C30.282 37.2703 30.4043 37.5671 30.4043 37.8765V43.4417L37.1875 37.0251C37.4051 36.8192 37.6934 36.7046 37.993 36.7046H60.8769C61.0309 36.7046 61.1833 36.7349 61.3256 36.7938C61.4678 36.8527 61.597 36.9391 61.7059 37.048L67.9902 43.3339V37.7632C67.9902 37.4524 68.1137 37.1543 68.3335 36.9346C68.5532 36.7148 68.8513 36.5913 69.1621 36.5913H87.2148C87.9398 36.5905 88.6349 36.3022 89.1475 35.7896C89.6601 35.277 89.9484 34.5819 89.9492 33.8569V10.0071C89.9484 9.28219 89.66 8.58718 89.1474 8.07456C88.6348 7.56194 87.9398 7.27359 87.2148 7.27277H12.9961C12.2711 7.27359 11.5761 7.56194 11.0635 8.07456C10.5509 8.58718 10.2625 9.28219 10.2617 10.0071V33.8569Z" fill="#1AE5BE"/>
<path d="M13.5427 28.8354H23.2728C23.6354 28.8354 23.9832 28.9795 24.2396 29.2359C24.496 29.4923 24.64 29.84 24.64 30.2026C24.64 30.5652 24.496 30.913 24.2396 31.1694C23.9832 31.4258 23.6354 31.5698 23.2728 31.5698H13.5427C13.1801 31.5698 12.8324 31.4258 12.576 31.1694C12.3196 30.913 12.1756 30.5652 12.1756 30.2026C12.1756 29.84 12.3196 29.4923 12.576 29.2359C12.8324 28.9795 13.1801 28.8354 13.5427 28.8354Z" fill="#1AE5BE"/>
<path d="M27.7996 28.8354H46.0895C46.4521 28.8354 46.7998 28.9795 47.0562 29.2359C47.3126 29.4923 47.4567 29.84 47.4567 30.2026C47.4567 30.5652 47.3126 30.913 47.0562 31.1694C46.7998 31.4258 46.4521 31.5698 46.0895 31.5698H27.7996C27.437 31.5698 27.0893 31.4258 26.8329 31.1694C26.5765 30.913 26.4325 30.5652 26.4325 30.2026C26.4325 29.84 26.5765 29.4923 26.8329 29.2359C27.0893 28.9795 27.437 28.8354 27.7996 28.8354Z" fill="#1AE5BE"/>
<path d="M51.2371 28.8354H61.4359C61.7985 28.8354 62.1463 28.9795 62.4027 29.2359C62.6591 29.4923 62.8031 29.84 62.8031 30.2026C62.8031 30.5652 62.6591 30.913 62.4027 31.1694C62.1463 31.4258 61.7985 31.5698 61.4359 31.5698H51.2371C50.8745 31.5698 50.5267 31.4258 50.2703 31.1694C50.0139 30.913 49.8699 30.5652 49.8699 30.2026C49.8699 29.84 50.0139 29.4923 50.2703 29.2359C50.5267 28.9795 50.8745 28.8354 51.2371 28.8354Z" fill="#1AE5BE"/>
<path d="M65.9828 28.8354H67.8304C68.193 28.8354 68.5408 28.9795 68.7972 29.2359C69.0536 29.4923 69.1976 29.84 69.1976 30.2026C69.1976 30.5652 69.0536 30.913 68.7972 31.1694C68.5408 31.4258 68.193 31.5698 67.8304 31.5698H65.9828C65.6202 31.5698 65.2724 31.4258 65.016 31.1694C64.7596 30.913 64.6156 30.5652 64.6156 30.2026C64.6156 29.84 64.7596 29.4923 65.016 29.2359C65.2724 28.9795 65.6202 28.8354 65.9828 28.8354Z" fill="#1AE5BE"/>
<path d="M72.2358 28.8354H84.7151C85.0777 28.8354 85.4254 28.9795 85.6818 29.2359C85.9382 29.4923 86.0823 29.84 86.0823 30.2026C86.0823 30.5652 85.9382 30.913 85.6818 31.1694C85.4254 31.4258 85.0777 31.5698 84.7151 31.5698H72.2358C71.8732 31.5698 71.5254 31.4258 71.269 31.1694C71.0126 30.913 70.8686 30.5652 70.8686 30.2026C70.8686 29.84 71.0126 29.4923 71.269 29.2359C71.5254 28.9795 71.8732 28.8354 72.2358 28.8354Z" fill="#1AE5BE"/>
<path d="M13.5427 20.2286H17.2C17.3795 20.2286 17.5573 20.264 17.7232 20.3327C17.889 20.4014 18.0397 20.5021 18.1667 20.6291C18.2937 20.756 18.3944 20.9067 18.4631 21.0726C18.5318 21.2385 18.5671 21.4163 18.5671 21.5958C18.5671 21.7754 18.5318 21.9531 18.4631 22.119C18.3944 22.2849 18.2937 22.4356 18.1667 22.5626C18.0397 22.6895 17.889 22.7902 17.7232 22.8589C17.5573 22.9276 17.3795 22.963 17.2 22.963H13.5427C13.3632 22.963 13.1854 22.9276 13.0195 22.8589C12.8537 22.7902 12.7029 22.6895 12.576 22.5626C12.449 22.4356 12.3483 22.2849 12.2796 22.119C12.2109 21.9531 12.1755 21.7754 12.1755 21.5958C12.1755 21.4163 12.2109 21.2385 12.2796 21.0726C12.3483 20.9067 12.449 20.756 12.576 20.6291C12.7029 20.5021 12.8537 20.4014 13.0195 20.3327C13.1854 20.264 13.3632 20.2286 13.5427 20.2286Z" fill="#1AE5BE"/>
<path d="M37.9216 21.5958C37.9216 21.9584 37.7776 22.3062 37.5212 22.5626C37.2648 22.819 36.917 22.963 36.5544 22.963H21.5636C21.201 22.963 20.8533 22.819 20.5969 22.5626C20.3405 22.3062 20.1964 21.9584 20.1964 21.5958C20.1964 21.2332 20.3405 20.8855 20.5969 20.6291C20.8533 20.3727 21.201 20.2286 21.5636 20.2286H36.5544C36.917 20.2286 37.2648 20.3727 37.5212 20.6291C37.7776 20.8855 37.9216 21.2332 37.9216 21.5958Z" fill="#1AE5BE"/>
<path d="M40.9752 22.963C40.6126 22.963 40.2648 22.819 40.0085 22.5626C39.7521 22.3062 39.608 21.9584 39.608 21.5958C39.608 21.2332 39.7521 20.8855 40.0085 20.6291C40.2648 20.3727 40.6126 20.2286 40.9752 20.2286H68.7871C69.1497 20.2286 69.4975 20.3727 69.7539 20.6291C70.0103 20.8855 70.1543 21.2332 70.1543 21.5958C70.1543 21.9584 70.0103 22.3062 69.7539 22.5626C69.4975 22.819 69.1497 22.963 68.7871 22.963H40.9752Z" fill="#1AE5BE"/>
<path d="M84.7151 22.963H74.1889C73.8263 22.963 73.4786 22.819 73.2222 22.5626C72.9658 22.3062 72.8217 21.9584 72.8217 21.5958C72.8217 21.2332 72.9658 20.8855 73.2222 20.6291C73.4786 20.3727 73.8263 20.2286 74.1889 20.2286H84.7151C85.0777 20.2286 85.4254 20.3727 85.6818 20.6291C85.9382 20.8855 86.0823 21.2332 86.0823 21.5958C86.0823 21.9584 85.9382 22.3062 85.6818 22.5626C85.4254 22.819 85.0777 22.963 84.7151 22.963Z" fill="#1AE5BE"/>
<path d="M13.5427 11.6973H25.8083C26.1709 11.6973 26.5187 11.8414 26.7751 12.0978C27.0315 12.3542 27.1755 12.7019 27.1755 13.0645C27.1755 13.4271 27.0315 13.7749 26.7751 14.0313C26.5187 14.2877 26.1709 14.4317 25.8083 14.4317H13.5427C13.1801 14.4317 12.8324 14.2877 12.576 14.0313C12.3196 13.7749 12.1755 13.4271 12.1755 13.0645C12.1755 12.7019 12.3196 12.3542 12.576 12.0978C12.8324 11.8414 13.1801 11.6973 13.5427 11.6973Z" fill="#1AE5BE"/>
<path d="M33.176 14.4317H30.4631C30.1005 14.4317 29.7528 14.2877 29.4964 14.0313C29.24 13.7749 29.096 13.4271 29.096 13.0645C29.096 12.7019 29.24 12.3542 29.4964 12.0978C29.7528 11.8414 30.1005 11.6973 30.4631 11.6973H33.176C33.5386 11.6973 33.8864 11.8414 34.1428 12.0978C34.3992 12.3542 34.5432 12.7019 34.5432 13.0645C34.5432 13.4271 34.3992 13.7749 34.1428 14.0313C33.8864 14.2877 33.5386 14.4317 33.176 14.4317Z" fill="#1AE5BE"/>
<path d="M51.0537 14.4317H37.7816C37.419 14.4317 37.0713 14.2877 36.8149 14.0313C36.5585 13.7749 36.4144 13.4271 36.4144 13.0645C36.4144 12.7019 36.5585 12.3542 36.8149 12.0978C37.0713 11.8414 37.419 11.6973 37.7816 11.6973H51.0537C51.4163 11.6973 51.7641 11.8414 52.0205 12.0978C52.2769 12.3542 52.4209 12.7019 52.4209 13.0645C52.4209 13.4271 52.2769 13.7749 52.0205 14.0313C51.7641 14.2877 51.4163 14.4317 51.0537 14.4317Z" fill="#1AE5BE"/>
<path d="M75.6873 14.4317H55.1878C54.8252 14.4317 54.4775 14.2877 54.2211 14.0313C53.9647 13.7749 53.8207 13.4271 53.8207 13.0645C53.8207 12.7019 53.9647 12.3542 54.2211 12.0978C54.4775 11.8414 54.8252 11.6973 55.1878 11.6973H75.6873C76.0499 11.6973 76.3976 11.8414 76.654 12.0978C76.9104 12.3542 77.0544 12.7019 77.0544 13.0645C77.0544 13.4271 76.9104 13.7749 76.654 14.0313C76.3976 14.2877 76.0499 14.4317 75.6873 14.4317Z" fill="#1AE5BE"/>
<path d="M84.7151 14.4317H80.1077C79.7451 14.4317 79.3973 14.2877 79.1409 14.0313C78.8845 13.7749 78.7405 13.4271 78.7405 13.0645C78.7405 12.7019 78.8845 12.3542 79.1409 12.0978C79.3973 11.8414 79.7451 11.6973 80.1077 11.6973H84.7151C85.0777 11.6973 85.4254 11.8414 85.6818 12.0978C85.9382 12.3542 86.0823 12.7019 86.0823 13.0645C86.0823 13.4271 85.9382 13.7749 85.6818 14.0313C85.4254 14.2877 85.0777 14.4317 84.7151 14.4317Z" fill="#1AE5BE"/>
<path d="M82.469 60.5815V56.2626C82.4668 54.6233 81.926 53.0302 80.9299 51.7283C79.9338 50.4264 78.5375 49.4879 76.9559 49.0571C78.063 48.7564 79.2245 48.715 80.3502 48.936C81.4758 49.157 82.5354 49.6346 83.4466 50.3316C84.3577 51.0286 85.096 51.9263 85.6039 52.9549C86.1118 53.9835 86.3758 55.1154 86.3752 56.2626V60.5815C86.373 62.561 85.5857 64.4587 84.186 65.8585C82.7863 67.2582 80.8885 68.0455 78.909 68.0477C78.2493 68.0476 77.5925 67.96 76.9559 67.787C78.5375 67.3562 79.9338 66.4176 80.9299 65.1157C81.926 63.8139 82.4668 62.2208 82.469 60.5815Z" fill="#D4E1F4"/>
<path d="M75.0845 77.021C72.6827 77.0884 70.3449 76.2414 68.5437 74.6513C69.4636 74.1541 70.4674 73.831 71.5046 73.6984C72.8709 75.297 74.7297 76.3963 76.7888 76.8234C76.2277 76.9397 75.6574 77.0058 75.0845 77.021Z" fill="#D4E1F4"/>
<path d="M87.4342 76.2048C86.7745 75.5289 86.0075 74.9668 85.1643 74.5413C85.4653 74.2673 85.7485 73.9745 86.0124 73.6646C88.134 73.8614 90.1057 74.8432 91.5413 76.4177C92.977 77.9922 93.7731 80.0459 93.7737 82.1767V90.7239H89.8674V82.1767C89.8722 79.9437 88.9982 77.7986 87.4342 76.2048Z" fill="#D4E1F4"/>
<path d="M54.7946 56.1208V51.1864C54.7916 49.2203 54.1236 47.3131 52.8993 45.7747C51.6749 44.2364 49.9661 43.1576 48.0508 42.7136C49.3254 42.4185 50.6502 42.4151 51.9264 42.7036C53.2025 42.992 54.397 43.5649 55.4209 44.3794C56.4447 45.194 57.2714 46.2292 57.8393 47.4078C58.4073 48.5864 58.7017 49.8781 58.7008 51.1864V56.1208C58.7017 57.4291 58.4073 58.7208 57.8393 59.8994C57.2714 61.078 56.4447 62.1132 55.4209 62.9278C54.397 63.7423 53.2025 64.3152 51.9264 64.6036C50.6502 64.8921 49.3254 64.8887 48.0508 64.5936C49.9661 64.1496 51.6749 63.0708 52.8993 61.5325C54.1236 59.9942 54.7916 58.0869 54.7946 56.1208Z" fill="#D4E1F4"/>
<path d="M24.6982 60.5815V56.2626C24.696 54.6233 24.1553 53.0302 23.1592 51.7283C22.1631 50.4264 20.7668 49.4879 19.1852 49.0571C20.2922 48.7564 21.4537 48.715 22.5794 48.936C23.7051 49.157 24.7647 49.6346 25.6758 50.3316C26.587 51.0286 27.3252 51.9263 27.8331 52.9549C28.3411 53.9835 28.605 55.1154 28.6045 56.2626V60.5815C28.6023 62.561 27.8149 64.4587 26.4152 65.8585C25.0155 67.2582 23.1178 68.0455 21.1383 68.0477C20.4786 68.0477 19.8218 67.96 19.1852 67.787C20.7668 67.3561 22.163 66.4176 23.1591 65.1157C24.1552 63.8138 24.696 62.2207 24.6982 60.5815Z" fill="#D4E1F4"/>
<path d="M17.3136 77.021C14.9108 77.0886 12.5719 76.2407 10.7707 74.6489C11.691 74.1517 12.6954 73.8291 13.7332 73.6974C15.0994 75.2961 16.9582 76.3954 19.0173 76.8224C18.4564 76.939 17.8863 77.0055 17.3136 77.021Z" fill="#D4E1F4"/>
<path d="M28.097 74.9386C27.8681 74.7939 27.632 74.664 27.3922 74.5425C27.6938 74.2679 27.9775 73.9744 28.2416 73.6636C29.5791 73.7825 30.8688 74.2194 32.0033 74.9378C31.0233 76.7331 30.5102 78.7459 30.5111 80.7913V90.7231H26.6049V80.7921C26.6039 78.7467 27.117 76.7339 28.097 74.9386Z" fill="#D4E1F4"/>
<path d="M49.9805 40.1459C52.9076 40.1492 55.7139 41.3134 57.7837 43.3832C59.8535 45.453 61.0178 48.2592 61.0211 51.1864V56.1207C61.0088 59.0408 59.8402 61.8371 57.7711 63.8976C55.7019 65.9581 52.9007 67.1149 49.9806 67.1149C47.0605 67.1149 44.2593 65.9581 42.1901 63.8976C40.121 61.8371 38.9523 59.0408 38.9401 56.1207V51.1864C38.9434 48.2593 40.1076 45.453 42.1774 43.3833C44.2472 41.3135 47.0534 40.1492 49.9805 40.1459ZM41.2838 56.1207C41.2947 58.4201 42.2158 60.6216 43.8456 62.2437C45.4753 63.8658 47.6812 64.7764 49.9806 64.7764C52.28 64.7764 54.4858 63.8658 56.1156 62.2437C57.7454 60.6216 58.6665 58.4201 58.6774 56.1207V51.1864C58.6665 48.887 57.7454 46.6855 56.1156 45.0634C54.4858 43.4413 52.28 42.5307 49.9806 42.5307C47.6812 42.5307 45.4753 43.4413 43.8456 45.0634C42.2158 46.6855 41.2947 48.887 41.2838 51.1864V56.1207Z" fill="#0635C9"/>
<path d="M30.9246 56.2625V60.5815C30.9246 63.1832 29.891 65.6784 28.0513 67.5182C26.2116 69.3579 23.7164 70.3914 21.1146 70.3914C18.5128 70.3914 16.0176 69.3579 14.1779 67.5182C12.3382 65.6784 11.3046 63.1832 11.3046 60.5815V56.2625C11.3046 53.6608 12.3382 51.1656 14.1779 49.3258C16.0176 47.4861 18.5128 46.4526 21.1146 46.4526C23.7164 46.4526 26.2116 47.4861 28.0513 49.3258C29.891 51.1656 30.9246 53.6608 30.9246 56.2625ZM13.6484 56.2625V60.5815C13.6484 62.5616 14.435 64.4607 15.8352 65.8609C17.2354 67.2611 19.1344 68.0477 21.1146 68.0477C23.0948 68.0477 24.9938 67.2611 26.394 65.8609C27.7942 64.4607 28.5808 62.5616 28.5808 60.5815V56.2625C28.5808 54.2824 27.7942 52.3833 26.394 50.9831C24.9938 49.5829 23.0948 48.7963 21.1146 48.7963C19.1344 48.7963 17.2354 49.5829 15.8352 50.9831C14.435 52.3833 13.6484 54.2824 13.6484 56.2625Z" fill="#0635C9"/>
<path d="M14.1154 71.3063C14.7404 71.261 15.0508 71.6401 15.3801 72.0415C16.0739 72.8893 16.952 73.5676 17.9477 74.0245C18.9434 74.4815 20.0302 74.7051 21.1254 74.6783C22.2206 74.6516 23.2952 74.3751 24.2674 73.87C25.2395 73.3649 26.0835 72.6445 26.735 71.7637C26.8476 71.6131 26.9945 71.4915 27.1634 71.4088C27.3324 71.3262 27.5186 71.285 27.7066 71.2885C29.6904 71.3326 31.6234 71.9236 33.2926 72.9964C34.3625 71.6926 35.6899 70.6237 37.1918 69.8566C38.6938 69.0894 40.3379 68.6405 42.0213 68.538C42.6338 68.5089 42.9422 68.8833 43.2998 69.3192C44.1085 70.3075 45.1322 71.0981 46.2928 71.6308C47.4533 72.1634 48.7202 72.4241 49.9968 72.3928C51.2734 72.3616 52.5261 72.0393 53.6592 71.4505C54.7924 70.8618 55.7761 70.022 56.5355 68.9954C56.6475 68.844 56.7943 68.7218 56.9635 68.6391C57.1326 68.5564 57.3192 68.5156 57.5074 68.5202C60.7062 68.5943 63.7481 69.9212 65.9785 72.2153C66.2283 72.4712 66.4635 72.7374 66.6883 73.0106C68.2464 72.0069 70.0362 71.4202 71.8861 71.3067C72.51 71.2614 72.8215 71.6405 73.1508 72.0419C73.8446 72.8897 74.7227 73.568 75.7184 74.0249C76.7141 74.4819 77.8009 74.7055 78.8961 74.6787C79.9913 74.6519 81.0659 74.3755 82.0381 73.8704C83.0102 73.3653 83.8542 72.6449 84.5057 71.7641C84.618 71.6131 84.7648 71.4911 84.9339 71.4084C85.1029 71.3258 85.2894 71.2848 85.4775 71.2889C88.3173 71.3613 91.0165 72.5401 92.9997 74.574C94.9828 76.6078 96.0931 79.3359 96.0938 82.1766V91.8958C96.0938 92.2066 95.9703 92.5046 95.7505 92.7244C95.5307 92.9442 95.2327 93.0676 94.9219 93.0676H69.4727V94.877C69.4727 95.1878 69.3492 95.4859 69.1294 95.7057C68.9097 95.9254 68.6116 96.0489 68.3008 96.0489H31.6602C31.3494 96.0489 31.0513 95.9254 30.8315 95.7057C30.6117 95.4859 30.4883 95.1878 30.4883 94.877V93.0676H5.07812C4.76733 93.0676 4.46925 92.9442 4.24948 92.7244C4.02972 92.5046 3.90625 92.2066 3.90625 91.8958V82.1766C3.90818 79.4067 4.96461 76.7414 6.8609 74.7223C8.75719 72.7032 11.3511 71.4818 14.1154 71.3063ZM93.75 90.7239V82.1766C93.7494 80.0459 92.9533 77.9921 91.5177 76.4176C90.082 74.8431 88.1103 73.8613 85.9887 73.6645C85.0953 74.7148 83.985 75.5591 82.734 76.139C81.4831 76.719 80.1213 77.021 78.7425 77.0241C77.3636 77.0272 76.0005 76.7315 74.7469 76.1572C73.4934 75.5829 72.3792 74.7438 71.4811 73.6975C70.2416 73.8551 69.0521 74.2839 67.9973 74.9536C68.9688 76.7461 69.4762 78.7532 69.4732 80.7921V90.7239H93.75ZM32.832 93.7051H67.1289V80.7921C67.1282 78.301 66.1918 75.9012 64.5053 74.0679C62.8188 72.2346 60.5052 71.1017 58.0229 70.8936C57.0179 72.0945 55.7624 73.061 54.3444 73.7252C52.9263 74.3894 51.3801 74.7353 49.8142 74.7386C48.2483 74.7419 46.7007 74.4025 45.2798 73.7443C43.859 73.086 42.5994 72.1248 41.5895 70.9282C39.1765 71.218 36.9531 72.3814 35.3394 74.1986C33.7257 76.0159 32.8332 78.3611 32.8307 80.7915L32.832 93.7051ZM6.25 90.7239H30.4883V80.7921C30.4874 78.7467 31.0005 76.7339 31.9805 74.9385C30.846 74.2202 29.5564 73.7833 28.2189 73.6643C27.3256 74.7147 26.2152 75.559 24.9642 76.139C23.7133 76.719 22.3514 77.021 20.9725 77.0241C19.5937 77.0273 18.2305 76.7315 16.9769 76.1572C15.7233 75.5829 14.609 74.7436 13.7109 73.6973C11.6498 73.9639 9.7561 74.9713 8.38322 76.5316C7.01034 78.0918 6.25209 80.0983 6.25 82.1766V90.7239Z" fill="#0635C9"/>
<path d="M78.8854 46.4525C81.4862 46.4554 83.9798 47.4899 85.8189 49.329C87.6579 51.1682 88.6924 53.6617 88.6953 56.2626V60.5816C88.6953 63.1833 87.6618 65.6785 85.822 67.5183C83.9823 69.358 81.4871 70.3915 78.8854 70.3915C76.2836 70.3915 73.7884 69.358 71.9487 67.5183C70.1089 65.6785 69.0754 63.1833 69.0754 60.5816V56.2626C69.0783 53.6617 70.1128 51.1682 71.9518 49.329C73.7909 47.4899 76.2845 46.4554 78.8854 46.4525ZM71.4191 60.5816C71.4191 62.5617 72.2058 64.4608 73.6059 65.861C75.0061 67.2612 76.9052 68.0478 78.8854 68.0478C80.8655 68.0478 82.7646 67.2612 84.1648 65.861C85.5649 64.4608 86.3516 62.5617 86.3516 60.5816V56.2626C86.3516 54.2825 85.5649 52.3834 84.1648 50.9832C82.7646 49.583 80.8655 48.7964 78.8854 48.7964C76.9052 48.7964 75.0061 49.583 73.6059 50.9832C72.2058 52.3834 71.4191 54.2825 71.4191 56.2626V60.5816Z" fill="#0635C9"/>
<path d="M46.1631 74.7351C44.7589 74.7763 43.3605 74.5391 42.0484 74.0374C40.7363 73.5357 39.5365 72.7792 38.5181 71.8116C39.4872 71.3518 40.5248 71.0534 41.59 70.9282C43.1873 72.8304 45.3986 74.1153 47.8422 74.561C47.2878 74.6624 46.7264 74.7206 46.1631 74.7351Z" fill="#D4E1F4"/>
<path d="M60.3957 73.8528C59.5059 72.9404 58.4488 72.2079 57.282 71.6952C57.5427 71.4409 57.7904 71.1736 58.0242 70.8944C60.5065 71.1025 62.8201 72.2354 64.5066 74.0687C66.1931 75.902 67.1295 78.3018 67.1302 80.7928V93.7059H63.224V80.7921C63.2294 78.1972 62.2134 75.7045 60.3957 73.8528Z" fill="#D4E1F4"/>
</svg>
